<svg xmlns="http://www.w3.org/2000/svg" width="663.5" height="236.94" viewBox="-10.04 141.64 912.31 325.79">
  <g stroke-width=".5" stroke-linecap="round" stroke-linejoin="round">
    <path fill="#a8da45" stroke="#a8da45" d="M560.96 267.41l-.01.36q0 .18-.02.35l-.02.36-.03.36-.04.35-.05.36-.05.35-.06.35-.07.35-.08.35-.09.35-.1.34-.1.34-.1.34-.12.34-.13.33-.13.33-.14.33-.15.33-.15.32-.17.32-.16.31-.18.31-.18.31-.2.3-.19.3-.2.3-.21.28-.22.29-.22.28-.23.27-.24.27-.24.26-.25.26-.25.25-.26.25-.26.24-.27.23-.28.23-.27.22-.29.22-.29.2-.3.21-.3.2-.3.19-.3.18-.31.17-.32.17-.32.16-.32.15-.33.15-.33.14-.33.13-.33.13-.34.11-.34.11-.34.1-.35.1-.34.08-.35.08-.35.07-.35.06-.36.05-.35.05-.36.03-.35.04-.36.02-.36.01H544.5l-.35-.03-.36-.02-.36-.04-.35-.04-.35-.05-.36-.06-.35-.07-.35-.07-.34-.08-.35-.1-.34-.1-.34-.1-.34-.11-.34-.12-.33-.13-.33-.14-.33-.14-.32-.15-.32-.16-.32-.17-.31-.17-.31-.18-.3-.19-.3-.19-.3-.2-.3-.2-.28-.22-.28-.22-.28-.23-.27-.23-.26-.24-.26-.24-.26-.25-.25-.26-.24-.26-.24-.26-.23-.28-.23-.27-.21-.29-.22-.28-.2-.3-.2-.3-.2-.3-.18-.3-.18-.3-.17-.32-.16-.32-.16-.32-.15-.32-.14-.33-.14-.33-.13-.33-.12-.34-.1-.34-.11-.34-.1-.34-.09-.35-.08-.35-.08-.35-.06-.35-.06-.35-.05-.36-.04-.35-.03-.35-.03-.36-.02-.36v-.35-.36-.36l.01-.36.03-.35.03-.36.04-.35.04-.36.06-.35.06-.35.07-.35.08-.35.09-.35.1-.34.1-.34.1-.34.12-.34.13-.33.13-.34.14-.32.15-.33.15-.32.16-.32.17-.32.18-.3.18-.31.2-.3.19-.3.2-.3.21-.28q.1-.15.22-.29l.22-.28.23-.27.24-.27.24-.26.24-.26.26-.25.25-.25.27-.24.27-.24.27-.22.28-.22.29-.22.29-.2.3-.21.29-.2.3-.19.31-.18.31-.17.32-.17.32-.16.32-.16.32-.14.33-.14.34-.13.33-.13.34-.11.34-.11.34-.1.35-.1.34-.08.35-.08.35-.07.35-.06.36-.05.35-.05.36-.04.35-.03.36-.02.35-.01H545.8l.36.03.36.02.35.04.36.04.35.05.35.06.36.07.34.07.35.08.35.1.34.1.34.1.34.11.34.12.33.13.33.14.33.14.32.15.32.16.32.17.3.17.32.18.3.19.3.19.3.2.29.2.28.22q.15.1.29.22l.27.23q.14.1.28.23l.26.24.26.24.26.25.25.26.24.26.24.26.23.28.22.27.22.28.21.3.21.28.2.3.2.3.18.3.17.32.18.3.16.33.16.32.15.32.14.33.14.33.12.33.12.34.12.34.1.34.1.34.09.35.08.35.07.35.07.35.06.35.05.35.04.36.03.35.03.36.01.36.01.35v.36zM257.62 228.13v.5l-.02.26-.02.25-.02.25-.03.25-.04.26-.04.25-.05.24-.05.25-.06.25-.06.25-.07.24-.08.24-.08.24-.08.24-.1.24-.09.23-.1.24-.1.23-.12.22-.12.23-.12.22-.13.22-.13.22-.14.21-.14.21-.14.2-.16.21-.15.2-.16.2-.17.2-.17.18-.17.19-.18.18-.18.18-.18.17-.2.17-.19.16-.2.16-.2.16-.2.15-.2.15-.21.14-.22.14-.21.13-.22.13-.22.12-.23.12-.23.1-.23.11q-.11.06-.23.1l-.24.1-.23.1-.24.08-.24.08-.24.08-.25.06-.24.07-.25.06-.25.05-.25.05-.25.04-.25.03-.25.03-.25.03-.26.02h-.25l-.25.02h-.51l-.26-.02-.25-.01-.25-.02-.25-.03-.26-.03-.25-.04-.25-.05-.25-.05-.24-.05-.25-.06-.24-.07-.25-.07-.24-.08-.24-.08-.24-.09q-.12-.04-.23-.1l-.24-.1-.23-.1-.23-.1-.22-.12-.23-.12-.22-.13-.22-.13-.21-.13-.21-.14-.21-.14-.2-.15-.2-.16-.2-.15-.2-.17-.2-.16-.18-.17-.19-.18-.17-.18-.18-.18-.17-.19-.17-.2-.16-.19-.16-.2-.15-.2-.15-.2-.14-.21-.15-.21-.13-.22-.13-.22-.12-.22-.12-.22-.12-.23q-.06-.11-.1-.23l-.11-.23-.1-.23-.1-.24-.08-.23-.09-.24-.08-.25-.07-.24-.06-.24-.06-.25-.06-.25-.05-.25-.05-.25-.03-.25-.04-.25-.02-.25-.03-.25-.01-.26-.01-.25v-.25-.26-.25q0-.13.02-.25l.02-.26q0-.13.02-.25l.03-.25.03-.25.05-.25.04-.25.06-.25.05-.25.07-.25.07-.24.07-.24.08-.24.09-.24.09-.24.1-.23.1-.24.1-.22.12-.23.11-.23.13-.22.12-.22.13-.22.14-.21.14-.21.15-.2.15-.21.16-.2.16-.2.16-.2.17-.18.18-.19.17-.18.18-.18.19-.17.19-.17.2-.16.19-.16.2-.16.2-.15.2-.15.22-.14.21-.14.22-.13.22-.13.22-.12.23-.11.22-.12.23-.1.24-.1q.11-.06.23-.1l.24-.1.24-.08.24-.08.24-.07.24-.07.25-.07.25-.06.25-.05.24-.05.25-.04.26-.03.25-.03.25-.03q.13 0 .25-.02h.26l.25-.02h.51l.25.02.25.01.26.02.25.03.25.03.25.04.25.05.25.05.25.05.25.06.24.07.24.07.25.08.24.08.23.09.24.1q.12.04.23.1.12.04.23.1l.23.1.23.12.22.12.22.13.22.13.22.13.2.14.22.14.2.15.2.16.2.15.2.17.19.16.19.18.18.17.18.18.18.18.17.19.16.2.17.19.16.2.15.2.15.2.14.21.14.21.14.22.13.22.12.22.12.22.11.23.11.23q.06.11.1.23.06.11.1.23l.1.24.09.24.08.23.08.25.07.24.07.24.06.25.06.25.05.25.04.25.04.25.03.25.03.25.02.25.02.26v.25l.01.25zM263.04 357.91v.28l-.02.29-.02.28-.02.28-.03.28-.04.28-.04.27-.05.28-.06.28-.06.27-.07.28-.07.27-.08.27-.09.27-.1.26-.09.27-.1.26-.12.26-.11.25-.12.26-.13.25-.13.25-.14.24-.15.24-.15.24-.15.24-.16.23-.17.23-.17.22-.18.22-.18.22-.18.2-.2.22-.19.2-.2.2-.2.2-.2.18-.22.19-.22.18-.22.17-.22.17-.23.17-.23.16-.24.15-.24.15-.24.14-.25.14-.25.13-.25.13-.25.12-.26.12-.26.1-.26.11-.26.1-.27.09-.27.09-.27.08-.27.07-.27.07-.28.06-.27.05-.28.05-.28.04-.28.04-.28.03-.28.02-.28.02-.28.01H250.06l-.28-.02-.28-.02-.28-.03-.28-.03-.28-.04-.28-.05-.28-.05-.27-.06-.27-.07-.28-.07-.27-.07-.27-.09-.26-.09q-.14-.04-.27-.1l-.26-.1-.26-.1-.26-.12-.25-.12-.26-.12-.25-.13-.24-.14-.25-.14-.24-.15-.23-.15-.24-.16-.23-.16-.22-.17-.23-.17-.21-.18-.22-.18-.2-.2-.21-.18-.2-.2-.2-.2-.2-.2-.18-.22q-.1-.1-.18-.21l-.18-.22-.17-.22-.17-.23-.16-.23-.16-.24-.15-.23-.15-.24-.14-.25-.13-.25-.13-.25-.13-.25-.11-.25-.12-.26-.1-.26q-.06-.13-.1-.27l-.1-.26-.09-.27-.08-.27-.08-.27-.07-.27-.06-.28-.06-.27-.05-.28-.05-.28-.04-.27-.03-.29-.03-.27q0-.15-.02-.29l-.01-.28v-.28q-.01-.14 0-.28v-.28-.28l.03-.29.02-.28.03-.28.04-.27.04-.28.05-.28.06-.28.06-.27.07-.27.07-.28.08-.27.09-.26q.04-.14.1-.27l.09-.26.1-.27.11-.25.12-.26.12-.26.13-.25.13-.25.14-.24.15-.24.15-.24.15-.24.16-.23.17-.23.17-.22.18-.22.18-.22.18-.2.2-.21.19-.2.2-.2.2-.2.2-.2.22-.18.22-.18.22-.17.22-.17.23-.17.23-.15.24-.16.24-.15.24-.14.25-.14.25-.13.25-.13.25-.12.26-.12.26-.1.26-.11.26-.1.27-.09.27-.09.27-.07.27-.08.27-.06.28-.07.28-.05.27-.05.28-.04.28-.04.28-.03.28-.02.28-.02h.28l.29-.01h.56l.28.02.28.02.28.03.28.03.28.04.28.05.27.05.28.06.27.07.28.07.27.08.27.08.26.09.27.1.26.1.26.1.26.12.25.12.26.12.25.13.24.14.25.14.24.15.23.15.24.16.23.16.22.17.23.17q.1.1.21.18l.22.18.2.2.21.19.2.2.2.2.2.2.18.21q.1.1.18.22.1.1.18.21l.17.23q.09.1.17.22l.16.23.16.24.15.23.15.24.14.25.13.25.13.25.13.25.12.25.1.26.11.26q.06.13.1.27l.1.26.09.27.08.27.08.27.07.27.06.28.06.27.05.28.05.28.04.28.03.28.03.28.02.28.01.28v.28q.01.14 0 .28zM293.57 281.78v.3l-.01.15-.02.14-.01.15-.02.15-.02.15-.03.14-.03.15-.03.15-.04.14-.04.15-.04.14-.04.14-.05.14-.06.14-.05.14-.06.14-.06.13-.06.14-.07.13-.07.13-.08.13-.07.13-.08.13-.08.12-.09.13-.09.12-.08.12-.1.11-.1.12-.1.11q-.04.06-.1.11-.04.06-.1.1l-.1.11-.1.1-.12.1-.11.1-.12.1-.11.1-.12.09-.12.08-.13.09-.12.08-.13.08-.12.07-.13.08-.14.07-.13.07-.13.06-.14.06-.14.06-.13.06-.15.05-.14.05-.14.04-.14.05-.14.03-.15.04-.14.03-.15.03-.15.03-.15.02-.14.02q-.08 0-.15.02h-.15l-.15.02h-.75l-.14-.02-.15-.01q-.08 0-.15-.02l-.15-.02-.15-.02-.14-.03-.15-.03-.14-.04-.15-.03-.14-.04-.15-.05-.14-.04-.14-.06-.14-.05-.13-.06-.14-.06-.14-.06-.13-.06-.13-.07-.13-.07-.13-.08-.13-.08-.13-.08-.12-.08-.12-.09-.12-.09-.12-.09-.12-.1-.1-.09-.12-.1-.1-.1-.12-.1-.1-.11-.1-.11-.1-.11-.1-.11-.1-.12-.08-.12-.1-.12-.08-.12-.08-.12-.08-.13-.08-.13-.08-.13-.07-.13-.07-.13-.06-.13-.07-.14-.06-.13-.05-.14-.06-.14-.05-.14-.04-.14-.05-.14-.04-.15-.04-.14-.03-.15-.03-.14-.03-.15-.03-.15-.02-.15-.01-.14-.02-.15v-.15l-.02-.15v-.15-.15-.15-.15l.02-.15v-.14l.02-.15.02-.15.03-.15.02-.15.03-.14.03-.15.04-.14.04-.15.04-.14.05-.14.05-.14.05-.14.05-.14.06-.14.06-.14.07-.13.06-.13.07-.13.08-.13.07-.13.08-.13.08-.12.09-.13.09-.12.09-.12.09-.11.1-.12q.04-.06.1-.11.04-.06.1-.11l.1-.1.1-.11.11-.1.11-.1.11-.1.12-.1.11-.1.12-.08.12-.1.13-.08.12-.08.13-.08.13-.07.13-.08.13-.07.13-.07.13-.06.14-.06.14-.06.14-.06.14-.05.14-.05.14-.04.14-.05.15-.03.14-.04.15-.03.14-.03.15-.03.15-.02.15-.02.14-.02.15-.01h.15l.15-.02H287.23l.15.01.15.02.15.01.14.02q.08 0 .15.02l.15.02.14.03.15.03.15.03.14.04.14.04.15.05.14.05.14.05.14.05.14.06.13.06.14.06.13.06.13.07.13.07.13.08.13.08.13.08.12.08.12.09.12.09.12.09.12.1.11.09.11.1.11.1.1.1.11.11.1.1.1.12.1.11.1.12.09.12.08.12.1.12.07.12q.05.06.08.13.05.06.08.13l.08.13.07.13.07.13.06.13.07.14.06.13.06.14.05.14.05.14.05.14.04.14.04.15.04.14.03.15.03.14.03.15.03.15.02.15.02.14v.15l.02.15v.15l.01.15v.15zM162.24 331.37l-.01.23-.01.22-.01.23-.03.22q0 .12-.02.23l-.03.22-.04.23-.04.22-.04.22-.05.22-.06.22-.06.22-.07.22-.07.22-.07.2-.08.22-.09.21-.09.21-.09.2-.1.21-.1.2-.11.2-.11.2-.12.2-.12.18-.13.2-.13.18-.13.18-.14.18-.14.18-.15.17-.15.17-.15.17-.16.16-.16.16-.16.16-.17.15-.17.15-.18.14-.18.14-.18.14-.18.13-.19.13-.19.12-.2.12-.19.12-.2.1-.2.11-.2.1-.2.1-.21.1-.21.08-.21.08-.21.08-.22.07-.22.07-.21.07-.22.05-.22.06-.22.05-.23.04-.22.04-.22.03-.23.03-.22.02-.23.02-.23.01-.22.01h-.68l-.23-.02-.23-.02-.22-.02-.23-.03-.22-.03-.22-.04-.23-.04-.22-.05-.22-.05-.22-.06-.22-.06-.21-.07-.22-.07-.21-.08-.21-.08-.21-.1-.2-.08-.21-.1-.2-.1-.2-.1-.2-.12-.2-.11-.2-.12-.18-.13-.19-.12-.19-.13-.18-.14-.17-.14-.18-.14-.17-.15-.17-.16-.16-.15-.17-.16-.15-.16-.16-.17-.15-.17-.14-.17-.15-.18-.13-.18-.14-.18-.13-.19-.12-.19-.13-.19-.11-.2-.12-.19-.1-.2-.1-.2-.1-.2-.1-.2-.1-.22-.08-.2-.08-.22-.07-.21-.07-.22-.07-.22-.06-.21-.06-.22-.05-.23-.04-.22-.04-.22-.04-.22-.03-.23-.03-.22q0-.12-.02-.23l-.01-.23-.01-.22v-.23-.23-.22-.23l.02-.22.02-.23.03-.23.03-.22.03-.23.04-.22.05-.22.05-.22.06-.22.06-.22.06-.22.07-.21.08-.22.08-.2.08-.22.1-.2.09-.21.1-.2.1-.2.1-.2.12-.2.12-.2.12-.19.12-.19.13-.19.14-.18.14-.18.14-.17.14-.18.15-.17.16-.16.16-.17.16-.16.16-.15.17-.15.17-.15.18-.15.17-.14.18-.13.19-.14.19-.12.19-.13.19-.12.2-.11.2-.11.2-.1.2-.11.2-.1.2-.09.22-.09.2-.08.22-.08.22-.07.21-.07.22-.06.22-.06.22-.05.22-.05.22-.05.23-.03.22-.04.23-.03.22-.02q.12 0 .23-.02l.22-.01h.23l.23-.01h.22l.23.01.23.01.22.02.23.02.22.03.23.03.22.04.22.05.23.04.22.06.22.06.21.06.22.07.21.07.22.08.2.08.22.09.2.09.21.1.2.1.2.1.2.11.2.12.19.12.2.12.18.13.18.13.18.13.18.14.18.15.17.15.17.15.16.16.16.15.16.17.16.16.14.17.15.18.14.17.14.18.14.19.13.18.12.19.12.2.12.19.11.2.11.2.1.2.1.2.1.2.09.21.08.21.09.21.07.22.07.21.07.22.06.22.05.22.05.22.05.22.04.22.04.23.03.22.02.23.02.22.02.23.01.23v.45zM171.46 248.11l-.01.23-.01.23-.01.22-.03.23-.02.22-.03.23-.04.22-.04.23-.04.22-.05.22-.06.22-.06.22-.07.21-.07.22-.07.21-.08.22-.09.2-.09.21-.09.21-.1.2-.1.2-.11.2-.11.2-.12.2-.12.19-.13.19-.13.18-.13.19-.14.18-.14.17-.15.18-.15.17-.15.16-.16.17-.16.16-.16.15-.17.15-.17.15-.18.15-.18.14-.18.13-.18.14-.19.12-.19.13-.2.12-.19.11-.2.11-.2.1-.2.1-.2.1-.21.1-.21.08-.21.09-.21.08-.22.07-.22.07-.21.06-.22.06-.22.05-.22.05-.23.04-.22.04-.22.04-.23.02-.22.03-.23.01-.23.02h-.9l-.23-.01-.23-.02-.22-.02-.23-.03-.22-.03-.22-.04-.23-.05-.22-.04-.22-.06-.22-.06-.22-.06-.21-.07-.22-.07-.21-.08-.21-.08-.21-.09-.2-.09-.21-.1-.2-.1-.2-.1-.2-.11-.2-.12-.2-.12-.18-.12-.19-.13-.19-.13-.18-.14q-.09-.06-.17-.14l-.18-.14-.17-.15-.17-.15-.16-.16q-.09-.07-.17-.16l-.15-.16-.16-.16-.15-.18-.14-.17-.15-.17-.13-.18-.14-.19-.13-.18-.12-.2-.13-.18-.11-.2-.12-.2-.1-.2-.1-.2-.1-.2-.1-.2-.1-.21-.08-.21-.08-.21-.07-.22-.07-.21-.07-.22-.06-.22-.06-.22-.05-.22-.04-.22-.04-.22-.04-.23-.03-.22-.03-.23-.02-.22-.01-.23-.01-.23v-.22-.23-.23-.22l.02-.23.02-.23.03-.22.03-.23.03-.22.04-.22.05-.22.05-.23.06-.22.06-.21.06-.22.07-.22.08-.21.08-.21.08-.21.1-.21.09-.2.1-.21.1-.2.1-.2.12-.2.12-.2.12-.19.12-.18.13-.19.14-.18.14-.18.14-.18.14-.17.15-.17.16-.17.16-.16.16-.16.16-.16.17-.15.17-.15.18-.14.17-.14.19-.14.18-.13.19-.13.19-.12.19-.12.2-.12.2-.1.2-.11.2-.1.2-.1.2-.1.22-.08.2-.08.22-.08.22-.08.21-.06.22-.07.22-.06.22-.05.22-.05.22-.04.23-.04.22-.03.23-.03.22-.02.23-.02.22-.01.23-.01h.68l.23.02.22.01.23.03.22.03.23.03.22.04.22.04.23.05.22.05.22.06.21.06.22.07.21.07.22.08.2.08.22.1.2.08.21.1.2.1.2.1.2.12.2.11.19.12.19.12.19.13.18.13.18.14.18.14.18.14.17.15.17.15.16.16.16.16.16.16.16.17.14.17.15.17.14.18.14.18.14.18.13.19.12.19.12.19.12.19.11.2.11.2.1.2.1.2.1.2.09.22.08.2.08.22.08.21.07.22.07.21.06.22.05.22.05.22.05.22.04.23.04.22.03.23.02.22.02.23.02.22.01.23v.45z"/>
    <path fill="#f8ff77" stroke="#f8ff77" d="M892.66 196.87q.06.51.1 1.03l.05 1.03q.02.52.01 1.04 0 .52-.03 1.03-.03.52-.08 1.03-.05.52-.12 1.03-.07.52-.16 1.03l-.2 1.03-.25 1.01-.29 1.02q-.15.5-.33 1-.17.51-.37 1.01l-.4 1-.45 1-.48.98-.51.98-.55.97-.58.96q-.3.48-.62.95l-.64.94-.66.94-.7.92-.71.91-.74.9-.76.9q-.38.44-.78.87l-.8.87q-.4.43-.82.85l-.83.85-.85.83q-.43.42-.87.82-.43.41-.88.81l-.89.8-.9.8-.93.78q-.46.4-.93.78l-.95.77-.97.76-.97.76-1 .76-1 .75-1 .76-1.04.75-1.04.77-1.06.77-1.07.78-1.09.79-1.1.8-1.11.83-1.13.85-1.14.87-1.15.9-1.15.92q-.59.47-1.17.96-.6.48-1.18.99-.6.5-1.19 1.02-.6.52-1.19 1.06-.6.53-1.2 1.09l-1.2 1.12-1.2 1.14-1.2 1.16-1.2 1.18-1.2 1.17-1.19 1.17-1.19 1.15-1.18 1.12-1.18 1.07-1.18 1.02q-.58.5-1.16.96l-1.16.88q-.58.42-1.15.8-.56.38-1.13.72-.57.34-1.13.63-.56.3-1.1.54-.56.24-1.1.44-.55.2-1.09.36-.53.15-1.06.26-.53.1-1.05.16t-1.04.08q-.5.02-1.01-.01-.5-.03-1-.1-.5-.08-.98-.2-.48-.12-.96-.28-.48-.17-.94-.38-.46-.2-.91-.46-.45-.25-.9-.55-.44-.3-.86-.64-.43-.35-.85-.74-.41-.38-.82-.81l-.8-.91q-.38-.48-.76-1t-.75-1.08q-.36-.56-.71-1.16-.36-.6-.7-1.24-.34-.63-.67-1.3t-.65-1.37q-.33-.7-.64-1.41l-.62-1.46-.6-1.5q-.31-.74-.6-1.5l-.6-1.53-.6-1.52-.58-1.51-.6-1.5-.59-1.48-.6-1.45-.6-1.42-.6-1.4-.6-1.36-.62-1.33q-.3-.66-.62-1.3-.3-.64-.62-1.27-.3-.63-.62-1.25l-.62-1.21-.62-1.2-.62-1.17-.62-1.16-.62-1.13q-.3-.57-.62-1.13l-.6-1.1-.6-1.1-.6-1.1-.6-1.08-.57-1.08-.58-1.08-.56-1.08-.55-1.08-.54-1.08-.52-1.08-.51-1.09-.5-1.1-.47-1.1-.46-1.1-.44-1.12-.42-1.12-.4-1.13-.37-1.14-.35-1.16q-.17-.57-.32-1.16l-.3-1.16-.27-1.18-.24-1.18-.2-1.19-.19-1.2-.14-1.19-.1-1.2-.08-1.2-.04-1.2v-1.2q0-.6.03-1.2.02-.6.07-1.18.04-.6.1-1.19l.15-1.17.19-1.17q.1-.57.23-1.15l.26-1.14.3-1.12q.16-.56.34-1.11l.38-1.1.42-1.07.46-1.05q.24-.53.5-1.04l.53-1.02q.28-.5.58-.99l.6-.97.65-.95q.33-.47.69-.93.35-.46.72-.9.37-.46.75-.9.39-.43.8-.85l.82-.84.85-.81.88-.8.92-.76.95-.75.97-.72 1-.7 1.01-.68 1.05-.65 1.06-.63 1.08-.61 1.1-.6 1.1-.56q.56-.28 1.13-.54l1.14-.53 1.14-.5 1.15-.47 1.16-.46 1.16-.43 1.16-.4 1.17-.4 1.17-.35 1.16-.34 1.17-.32 1.16-.3 1.17-.26 1.15-.24 1.16-.22 1.15-.19 1.15-.16 1.14-.15 1.15-.12 1.13-.09 1.13-.07 1.13-.05 1.13-.02H835l1.12.03 1.1.05 1.1.07q.56.04 1.1.1.56.04 1.1.1l1.1.15 1.08.16 1.08.18 1.07.2q.54.1 1.07.22l1.06.25 1.06.26 1.05.29 1.04.3 1.04.33q.52.16 1.03.34l1.02.36 1.02.39 1 .4 1 .42 1 .44.98.45.98.47.97.5.96.5.96.53.94.55.94.56.92.58.92.6.91.61.9.63.9.65.89.67.88.68.87.7.86.7.86.73.84.75.84.76.84.77.82.8.82.8.8.81.8.83.8.85.78.86.77.87.76.88.74.9.74.9.71.93q.36.46.7.93l.69.94q.34.47.66.95l.65.96.62.97.6.97.57.99q.28.49.54.99l.51 1 .49 1 .44 1 .42 1.02.38 1.02.34 1.02q.16.51.3 1.03.14.51.26 1.03.12.51.22 1.03l.18 1.03.14 1.04z"/>
  </g>
  <g fill="none" stroke="#000" stroke-linecap="round" stroke-linejoin="round">
    <path stroke-width="1.39" d="M.08 324.37l.4.06.81.08.83.1.85.08.85.1.88.1.88.1.9.1.91.1.93.1.94.11.96.11.96.11.98.12 1 .12 1 .12 1.03.12 1.02.12 1.02.12 1 .12 1 .11.98.11.98.1.97.11.96.1q.47.06.95.1l.93.1.93.1.92.09.91.08.9.1.9.07.88.08.88.08.9.08.9.07.93.08.93.07.95.07.96.07.98.07.98.07 1 .07 1.01.06 1.03.07 1.04.06 1.05.07 1.06.06 1.08.06 1.08.06 1.1.06 1.1.05 1.12.05 1.12.05 1.14.05 1.14.05 1.15.04 1.16.04 1.18.04 1.18.04 1.18.03 1.2.04 1.21.03 1.22.03 1.23.02 1.23.02 1.1.03h.77l.63.02H69l.64.01.63.01.64.01h.64l.64.01h.64l.65.01h.65l.65.01h1.31l.66.01H83.44l.69-.01h1.37l.69-.01.7-.01h.69l.69-.01.7-.01h.7l.7-.02h.7l.7-.01.72-.01.7-.01.72-.01.7-.01.72-.01.72-.02h.72l.72-.02.72-.02h.73l.72-.02.73-.02.73-.01.74-.02.73-.01.74-.02.73-.02.75-.01.74-.02.74-.02.75-.02.74-.02q.38 0 .75-.02l.76-.02.75-.02q.38 0 .75-.02l.76-.02.75-.02.76-.02.76-.03.76-.02q.38 0 .75-.02l.77-.02.76-.02.76-.03.77-.02.76-.03.77-.02.76-.02.77-.03.77-.02.77-.03.77-.03q.39 0 .77-.02l.78-.03.77-.02.78-.03.78-.03.77-.03.78-.03q.4 0 .78-.02l.78-.03.78-.03.79-.03.78-.03.78-.03.78-.03.78-.03.78-.03.77-.03.76-.03.77-.03.76-.03.76-.03.75-.03.75-.03.75-.03.75-.03.74-.03.74-.03.74-.03.73-.03.73-.03.73-.03.72-.03.72-.03.72-.03.72-.03.7-.03.72-.03.7-.04.7-.03.7-.03.7-.03.7-.03.68-.03.69-.03.68-.03.68-.04.68-.03.67-.03.67-.03.66-.03.66-.03.66-.03.65-.03.65-.03.64-.03.64-.03.64-.03.63-.03.63-.03.78-.04 1.08-.05 1.22-.06 1.2-.06 1.2-.06 1.17-.06 1.16-.06 1.14-.05 1.13-.06 1.11-.06 1.1-.05 1.07-.06 1.06-.05 1.04-.06 1.03-.05 1-.05 1-.06.98-.05.95-.05.95-.05.92-.05.9-.05.9-.05.87-.05.86-.04.84-.05.83-.05.81-.04.8-.05.8-.04.77-.05.76-.04.75-.04.73-.04.72-.04.71-.04.7-.04.68-.04.66-.04.66-.04.64-.04.62-.03.76-.05 1.01-.06 1.1-.07 1.02-.06.96-.06.89-.06.81-.06.75-.05.7-.05.65-.05.62-.04.72-.05.9-.07.9-.07.72-.05.65-.06.43-.03h-.15l-.63.05-.73.07-.7.06-.82.09-.92.1-1.02.1-1.07.12-1.13.14-1.05.13q-.46.05-.76.1l-.62.07-.63.09-.62.08-.63.1-.64.08-.64.1-.64.1-.64.09-.64.1-.63.1-.63.1-.63.1-.63.1q-.3.06-.62.1l-.61.11-1.13.22-1.08.22q-.53.1-1.03.22l-.99.21-.92.2-.85.21-.77.2-.7.19-.64.18-.68.21q-.4.13-.76.27-.37.14-.6.26-.22.12-.34.25-.13.13.1.17.22.04.56.03l.73-.02.7-.06.68-.08.76-.1.86-.15.91-.15.93-.15.94-.15.95-.15 1-.16 1.1-.16 1-.14q.46-.07.78-.1l.63-.1.64-.08.63-.08.62-.07.75-.09 1.02-.1 1.12-.1 1-.08.83-.05.63-.02.54.02q.27.02.27.1 0 .07-.34.2l-.7.26-.64.23-.57.2q-.3.1-.6.24-.32.13-.63.3-.32.16-.65.35l-.65.4q-.33.22-.61.47-.28.25-.5.54-.23.28-.4.6-.18.31-.3.66-.12.35-.08.8.03.47.17.9.15.42.28.73.13.31.3.65l.39.7q.2.37.46.77.25.4.54.8.29.41.62.84l.7.86.69.79.53.57.44.47.47.48.48.48.51.5.53.5.55.5.57.52.57.52.57.51.56.5.55.5.54.5.53.48.52.48.52.47.5.47.5.46.49.45.48.44.47.44.47.44.45.43.56.52.75.72q.43.4.83.8l.79.78.75.75.72.73.68.7.64.69.6.65.59.66q.3.32.58.65l.58.67.58.68.58.68.57.7.57.7.56.7.56.72.55.7q.26.36.53.7l.5.7.5.7.48.68.47.69.45.67.44.7.45.71.45.75.45.78.45.82.46.84.45.87.46.9.44.9.4.88q.19.44.35.86l.3.84q.15.41.27.81l.22.8q.1.38.17.76.08.38.13.75l.09.7.04.66q.02.32.01.6 0 .3-.05.69-.04.39-.17.8-.13.42-.35.73-.21.31-.44.58-.23.27-.47.5-.25.23-.5.41-.27.19-.67.4-.42.23-.86.44-.44.22-.78.36l-.56.24q-.22.1-.37.2t-.07.3q.1.19.41.37.33.19.64.15.31-.03.37-.2.06-.19-.03-.37-.08-.18-.3-.42-.2-.25-.54-.47l-.6-.4-.62-.34-.73-.38q-.4-.2-.85-.4l-.84-.4-.66-.3-.56-.25-.6-.25-.61-.28-.65-.29-.67-.3-.7-.31-.73-.34-.76-.34-.78-.36-.82-.38-.87-.41-.92-.45-.97-.47-1.01-.5-.93-.46-.68-.35-.56-.28-.57-.3q-.3-.14-.59-.3-.3-.14-.59-.3l-.58-.3-.58-.3-.58-.3-.57-.3-.56-.3q-.29-.14-.57-.3l-.55-.29-.56-.3-.68-.36-.95-.52-1.07-.58-1.04-.58-.93-.51-.68-.38-.56-.3-.56-.32-.57-.32-.59-.32-.6-.33-.6-.33-.61-.34-.62-.35-.64-.35-.64-.35-.65-.37-.67-.36-.67-.37-.68-.38-.68-.38-.69-.37-.69-.38-.7-.37q-.34-.2-.69-.38l-.7-.38-.7-.38-.7-.38-.7-.38-.72-.38-.71-.38-.72-.38-.72-.38-.72-.38q-.36-.2-.73-.38-.36-.2-.73-.38l-.73-.39-.73-.38-.74-.38-.73-.38-.75-.38-.74-.38-.74-.38-.75-.38-.75-.38-.75-.37-.76-.38-.76-.38-.76-.37-.76-.38-.76-.38-.77-.37-.77-.38-.77-.37-.77-.38-.78-.37-.77-.37-.78-.38-.78-.37-.78-.38-.79-.37-.78-.37-.8-.37-.78-.38-.8-.37-.79-.37-.8-.37-.8-.38-.79-.37-.8-.37-.79-.36-.79-.37-.79-.37-.79-.37-.79-.36-.78-.37-.79-.36-.78-.36-.79-.36-.78-.37-.78-.36-.78-.36-.78-.35-.77-.36-.77-.36-.75-.35-.75-.34-.74-.35-.73-.34-.72-.34-.72-.34-.7-.33-.7-.33-.69-.33-.68-.32-.67-.33-.66-.32-.65-.31-.65-.31-.64-.32-.62-.3-.62-.3-.6-.31-.6-.3-.6-.3-.58-.3-.57-.29-.56-.29-.68-.36-.94-.5-1.04-.55-1-.54-.96-.54-.91-.52-.88-.5-.84-.5-.8-.49-.75-.47-.71-.46-.68-.44-.65-.45-.64-.46-.63-.47-.63-.48-.62-.5-.61-.5-.6-.52-.6-.53q-.3-.26-.58-.53-.28-.26-.53-.52l-.5-.5-.44-.5-.4-.5q-.2-.24-.46-.6t-.53-.81q-.26-.46-.45-.86-.2-.4-.31-.76-.12-.35-.17-.65-.05-.3-.01-.67.04-.37.25-.8.2-.41.58-.76.37-.35.76-.57.39-.23.69-.37.3-.14.63-.27t.7-.25l.78-.22.85-.2.92-.17 1.03-.15q.54-.07 1-.1l.8-.07.66-.05.7-.04.74-.03.77-.02.8-.02h2.63l.95.01.98.02 1.02.03 1.05.04 1.1.05 1.12.05 1.16.07 1.04.06.76.06.63.04.62.04.64.05.65.05.66.05.66.06.68.05.67.06.69.06.7.06.7.07.7.07.71.06.72.08.73.07.73.07.74.08.75.08.75.08.77.09.76.08.78.09.77.09.77.08.77.1.78.08.77.1.77.09.77.09q.39.04.77.1l.78.09.77.09.77.1.78.1.77.09.77.1.78.1.77.1.77.1.76.1q.39.04.77.1l.76.1.76.1.76.09.75.1.75.1.75.1.75.1.74.1.75.1q.37.04.73.1l.74.1.74.1.73.1.72.09.73.1.72.1.72.1.71.09.72.1.7.09.7.1.71.09.7.1.7.08.69.1.68.09q.35.04.69.1l.68.08.68.1.67.08.68.1.66.08.67.09.66.08.66.09.66.09.65.08.65.08.65.09.65.08.64.08.63.08.64.08.63.08.63.08.62.07.63.08.77.1 1.08.12 1.23.14 1.21.14 1.2.14 1.2.13 1.19.13 1.17.12 1.17.12 1.16.12 1.14.11 1.15.1 1.13.11 1.12.1 1.12.1 1.1.08 1.1.08 1.1.08 1.08.08 1.07.07 1.07.06 1.06.07 1.06.05 1.04.05 1.04.05 1.03.04 1.03.04 1.01.03 1.02.03 1 .02 1 .02 1 .01 1 .01H241.34l1-.01 1-.02 1-.02 1-.02 1-.03.99-.04 1-.03 1-.05 1-.04 1-.06 1-.05.99-.06 1-.06.99-.07 1-.08.99-.07.99-.09.99-.08.99-.1.98-.1q.5-.04.99-.1l.98-.1.98-.1.98-.12.97-.12.97-.12.97-.12.95-.13.93-.13.92-.13.91-.13.9-.14.87-.14.87-.13.87-.15.9-.16.94-.16.96-.18 1-.2 1.02-.2 1.06-.2 1.1-.23 1.1-.23 1.1-.25 1.1-.26 1.1-.27 1.09-.28 1.09-.3 1.1-.3 1.08-.31 1.07-.33 1.04-.33 1-.33.98-.34.95-.35.91-.35.88-.35.85-.36.82-.36.8-.37.76-.37.74-.37.71-.38.69-.38.65-.38.63-.4q.31-.19.61-.4l.6-.41q.3-.21.58-.44l.56-.45.54-.48.53-.49.51-.5.5-.53.48-.55q.24-.28.46-.57.23-.28.45-.58l.42-.6.41-.62.4-.64.36-.65q.19-.33.36-.68l.33-.67q.17-.34.31-.67l.3-.64.26-.64.24-.62.21-.61.2-.6.2-.72.25-.99.22-1.07q.1-.52.16-1.02l.1-.96q.03-.47.03-1 0-.52-.02-.96l-.04-.74-.05-.62-.07-.65-.08-.68-.1-.7-.1-.69-.12-.69-.14-.69-.14-.69-.16-.69-.18-.68-.18-.7-.2-.66-.18-.65-.2-.62-.23-.74-.32-.95-.37-1-.38-.94-.4-.95-.42-.96-.45-.96-.46-.97-.5-.97q-.24-.5-.5-.99l-.53-.98-.54-1-.56-1-.59-1.02-.6-1.01-.6-1.02-.62-1.01-.63-1-.63-1-.64-.99-.64-.98-.66-.97-.65-.96-.66-.96-.67-.95-.67-.94-.59-.82-.43-.6-.37-.5-.4-.54-.41-.56-.44-.6-.46-.6-.48-.65-.5-.67-.53-.7-.54-.71-.56-.74-.59-.75-.6-.78-.63-.8-.64-.8-.67-.84-.68-.84-.67-.84-.68-.83-.67-.81-.68-.82-.67-.8-.67-.8-.68-.8-.67-.78q-.33-.4-.67-.78l-.67-.78-.67-.78-.67-.78-.67-.77-.67-.77-.67-.77-.67-.76-.67-.76-.67-.77-.67-.75-.67-.76-.68-.75-.67-.75-.68-.75q-.33-.38-.68-.75l-.69-.74-.7-.74-.7-.74-.72-.73-.72-.73-.73-.72-.74-.72-.75-.72-.77-.71-.77-.71-.78-.71-.79-.7-.8-.71q-.4-.36-.81-.7-.41-.36-.83-.7-.41-.36-.83-.7l-.84-.7-.85-.69-.85-.69-.87-.68-.87-.68-.88-.67-.89-.67-.88-.66-.85-.63-.84-.6-.82-.59-.79-.55-.77-.54-.75-.5-.73-.49-.7-.46-.69-.45-.66-.43-.64-.42-.61-.4-.6-.4-.56-.36-.55-.36-.54-.35-.54-.35-.55-.36-.56-.36-.57-.36-.57-.37-.57-.37-.59-.37-.59-.38-.6-.38-.6-.38-.6-.38-.61-.38-.62-.38-.62-.39-.63-.38-.63-.39-.64-.39-.63-.38q-.32-.2-.65-.38l-.64-.39-.65-.38-.65-.38-.66-.37-.65-.38-.65-.36-.64-.35-.63-.34-.63-.33-.62-.32-.61-.31-.6-.3-.6-.3-.6-.27-.58-.26-.71-.32-.99-.4q-.56-.23-1.1-.42l-1.06-.38q-.53-.17-1.04-.31-.51-.15-1-.27l-.99-.22q-.48-.1-.94-.16-.47-.07-.92-.11l-.9-.06h-.85q-.42 0-.84.04l-.81.1-.8.14q-.38.08-.77.19-.38.1-.74.25-.37.15-.72.33-.35.18-.69.4-.33.22-.66.48-.32.26-.62.54-.31.28-.6.59-.3.3-.59.64l-.56.69q-.27.35-.52.74-.26.38-.5.8-.25.4-.47.84-.23.44-.44.9-.22.47-.41.97-.2.5-.38 1.03t-.34 1.1q-.17.56-.28 1l-.18.76-.14.62-.13.63-.12.65-.11.66q-.06.33-.1.67-.06.34-.1.7l-.1.7-.08.71-.08.73-.07.75-.07.75-.06.77-.06.78-.05.79-.05.8-.04.81-.05.82-.04.83-.04.84-.04.85-.04.86-.04.86-.03.88-.04.87-.05.86-.05.85-.05.84-.06.83-.06.82-.07.8-.08.8q-.03.4-.08.78l-.08.77-.1.76q-.04.38-.1.75l-.1.73-.11.73-.12.7-.13.7-.13.69-.14.67-.14.66-.15.65-.16.63-.16.63-.17.6q-.08.31-.22.75l-.31 1.02-.38 1.12-.4 1.07-.4 1.03-.43.99-.45.96q-.22.47-.46.92l-.47.9q-.24.44-.54.9-.3.47-.56.84l-.44.63-.39.51-.41.53-.44.55-.46.55-.49.55q-.24.28-.5.55l-.53.55-.55.55-.57.55-.6.56-.6.55-.63.54q-.31.28-.63.54l-.63.52-.63.51q-.31.26-.63.5l-.63.5-.63.47-.64.47-.63.45-.63.45-.62.44-.62.43-.62.43-.6.42-.62.4-.6.4-.6.41-.6.42q-.3.2-.6.43-.31.21-.61.44l-.6.45-.62.46-.6.48-.61.5-.61.5-.61.5-.61.54-.61.54-.61.55-.62.57-.6.58-.62.6-.6.59-.6.6-.57.59-.55.6-.54.58-.52.59-.5.58-.5.59-.46.58-.46.58-.43.58-.42.57-.4.58-.38.58-.37.57-.35.58-.34.56-.32.57-.32.55-.39.68-.5.93q-.3.53-.56 1.04l-.52 1-.48.97-.45.95-.41.9q-.2.46-.35.9-.16.46-.27.91-.12.45-.19.9-.07.46-.1.92t-.02.92q.01.45.06.92.05.46.13.92.09.46.22.93.12.46.27.91l.32.9.36.86.4.84q.22.42.46.82.23.4.49.8.26.39.54.76.28.38.58.75.3.37.62.73t.66.7q.33.36.7.7.35.35.72.69l.74.65.7.61.68.57.64.52.65.51.68.53.7.54.75.55.8.56.85.56.93.56.98.57.92.5.7.35.57.29.59.29.6.29.63.29.64.29.64.29.64.28.63.27.63.26.62.25.61.25.6.24.6.23q.3.1.58.22.3.1.7.26l.93.34q.52.2 1 .36l.9.33.87.3.9.3.9.31.93.3.93.31.92.3.9.29.9.29.94.3 1.02.31.98.3.73.23.62.2.63.19.65.2.66.19.67.2.68.2.7.2.7.2.73.21.72.2.7.2.7.2.67.18.66.18.65.17.64.17.62.16.6.15.74.18 1 .25 1.09.25 1.03.23.99.21.96.21.94.2.9.2.94.2 1 .2 1.09.22 1.15.24 1.19.24 1.19.24 1.18.24 1.18.23 1.18.23 1.18.22 1.17.2 1.16.21 1.13.2 1.06.17.97.16.91.14.88.14.9.14.92.14.95.14.95.14.95.14.94.13.93.12.93.11.92.1.91.11.9.1.9.09.9.08.88.08.87.07.87.07.87.06.85.06.85.05.84.04.82.04.8.04.79.03.81.03.89.02.95.03 1.03.02 1.07.01h1.1l1.1-.01 1.13-.03q.57-.02 1.13-.06.55-.04 1.09-.1.54-.07 1.06-.16.52-.08 1.02-.2.5-.1 1-.23.48-.13.95-.29.47-.15.93-.33l.89-.37.86-.41.83-.43.8-.44.77-.46q.38-.23.74-.48.37-.24.72-.5.35-.24.68-.5.34-.26.66-.53t.62-.57l.6-.62.56-.66q.27-.35.52-.72.26-.38.5-.78t.46-.82q.23-.43.44-.88l.4-.93q.19-.48.35-.97l.3-1q.13-.51.24-1.03l.18-1.06q.08-.54.12-1.1.05-.55.07-1.12.02-.57 0-1.15 0-.58-.04-1.18l-.08-1.18-.08-1.14-.08-1.1-.09-1.05-.08-1.01-.08-.98-.09-.94-.08-.89q-.05-.44-.14-.9-.1-.47-.24-.98-.15-.5-.34-1.03-.2-.53-.45-1.1l-.49-1.1q-.24-.54-.49-1.05l-.48-1-.48-.94-.49-.94-.53-.97-.56-1.02-.6-1.06-.62-1.07-.6-1.06-.6-1.03-.6-1-.57-1-.56-.98-.56-.95-.55-.93-.54-.92-.53-.9-.52-.87-.51-.85-.53-.88-.5-.84-.38-.63-.32-.53-.34-.54-.34-.57-.36-.58-.37-.56-.38-.57-.4-.56-.4-.56-.42-.56-.44-.55-.44-.55-.45-.54-.43-.5-.42-.5-.5-.58-.66-.75-.7-.76-.7-.72-.7-.72-.71-.72-.74-.71-.75-.71-.78-.71-.78-.72-.8-.7-.83-.71-.84-.71-.85-.71-.88-.71q-.44-.36-.89-.7l-.9-.72-.93-.7-.94-.72-.96-.71-.97-.71-1-.72-1-.71-1.02-.72-1.02-.7-1-.7-1.01-.69-1-.68-1-.67-1-.66-.98-.65-.98-.65-.98-.63-.98-.62-.97-.6-.96-.6-.96-.6-.96-.57-.95-.56-.95-.55-.98-.55-.99-.54-1-.53-1.03-.53-1.05-.52-1.06-.5-1.08-.5-1.1-.5-1.1-.47-1.14-.46-1.14-.46-1.02-.38-.73-.27-.6-.2-.59-.21-.6-.2-.6-.2-.6-.2-.6-.18-.74-.23-1.02-.3-1.12-.3-1.08-.28-1.04-.25-1.01-.23-.97-.2q-.48-.1-.94-.17l-.9-.15-.85-.13-.83-.1-.78-.08-.8-.06-.83-.04-.88-.02h-.93l-.94.02-.95.04-.94.06q-.48.03-.95.08l-.95.1-.96.1-.97.14-.98.14q-.49.08-.95.25-.45.18-.88.46-.43.27-.82.64-.4.38-.76.85-.37.47-.67.94-.3.48-.53.94-.23.47-.4.94-.18.47-.28.93l-.19.92-.12.88q-.05.44-.07.86-.02.42 0 .83 0 .4.04.8t.11.8q.07.39.18.77.1.4.23.77.13.38.3.8l.35.84.43.9.49.98q.26.5.5.88l.41.65.37.53.39.53q.2.28.42.55l.46.55.48.56.51.57q.27.3.55.58l.57.6.6.59.63.6.67.62.69.63.72.63.74.63.73.62.73.6.72.58.72.56.7.56.72.53.7.52.7.5.7.5.68.47.69.45.68.44.68.42.67.4.66.4.67.37.68.36.69.35.7.34.7.33.72.3q.36.16.73.3l.74.3.74.26.76.27.76.24.78.24.78.21.8.21.8.2.8.17.82.17.82.15.81.15.81.13.8.12.81.11.8.1.8.09.8.07.76.07.73.05.7.05.7.03.65.02.63.01h.75q.44 0 1-.04.56-.03 1.1-.1.53-.08 1.03-.2.5-.1.98-.24.48-.15.97-.33.5-.18 1.02-.4.51-.21.92-.4l.68-.32.55-.28.56-.3.58-.31.58-.34.6-.35.6-.37.62-.4.62-.4.64-.43.64-.44.66-.47.66-.48.68-.5.69-.52.7-.54.7-.55.72-.58q-.37-.19-.8-.3-.42-.1-.9-.14-.47-.04-1 0t-1.12.15l-1.14.24-1.1.26q-.54.13-1.06.28l-1 .3-1.02.34-1.06.37-.97.36-.72.28-.6.23-.59.25-.59.24-.59.24-.58.25-.58.25-.58.26-.57.25-.57.26-.57.27-.7.33-.98.47-1.1.55-1.08.57-1.08.57-1.05.6q-.53.29-1.05.6l-1.03.6-1.01.63-1 .64-.99.65-.97.66-.95.66-.92.65-.89.64-.86.62-.82.6-.8.6-.76.59-.74.57-.7.56-.68.54-.64.53-.62.52-.6.53-.65.58-.67.63-.7.66-.71.7-.72.7-.73.73-.73.74-.74.76-.76.78-.76.81-.68.73q-.3.32-.47.58-.17.25-.33.54-.15.29-.28.62-.14.33-.25.7l-.2.77q-.09.4-.16.85l-.11.93q-.05.48-.07 1 .31.3.76.5.44.22.87.31.43.1.75.14l.66.07q.35.02.73.02h.8l.85-.06.92-.1q.47-.05.98-.13l1.05-.18 1.1-.21 1.03-.22.76-.18.62-.15.64-.17.66-.17.66-.18.65-.17.64-.17.64-.17.62-.17.6-.17.61-.16.74-.2 1-.27 1.13-.3 1.07-.3 1.04-.28 1-.28.96-.26.93-.25.88-.25.89-.25.94-.26.99-.28 1.03-.29 1.1-.3.98-.3.74-.21.6-.18.6-.18.63-.18.62-.19.61-.19.6-.18.75-.23 1.01-.31 1.12-.36q.55-.18 1.12-.3.57-.12 1.17-.19t1.06-.08h.77l.64.02.65.05.66.08.66.1.69.13.69.16.7.19.72.2.72.25q.37.4.35.83-.01.41-.11.73t-.3.67q-.2.35-.42.69-.2.34-.43.67l-.45.64-.48.61-.52.62-.57.65-.63.69-.68.72-.7.72-.7.7-.68.69-.67.66-.7.67-.75.73-.82.77-.77.72-.57.53-.47.42-.47.42-.48.41-.49.41-.5.4q-.24.21-.5.41l-.5.4-.5.4-.52.36-.51.35-.65.41q-.38.25-.9.53t-1.04.53q-.52.24-1.05.45-.53.2-1.06.37-.53.17-1.06.3-.53.13-1.07.22-.26-.01-.36-.35-.1-.33-.13-.67-.04-.33-.04-.77v-.88q0-.44.02-.87l.03-.88.06-.88.06-.9.09-1 .1-1.05.12-1.13.12-1.16.1-1.17.12-1.18.1-1.18.08-1.18.08-1.18.08-1.19.06-1.19.06-1.2.05-1.2.05-1.2.03-1.2.03-1.2.02-1.22.02-1.22v-1.21-1.2-1.18-1.13-1.1l.01-1.12v-1.05l.01-.79v-.65l.01-.68v-.7l.01-.7v-.7l.01-.68.01-.69v-.68l.02-.67v-.67l.02-.66.01-.66.02-.66v-.66l.03-.66.01-.66.02-.66.02-.66.02-.66.02-.65.03-.79.04-1.04.05-1.12.04-1.03.05-.98.05-.94.05-.92.05-.88.06-.9.06-.94.06-1 .07-1.05.08-1.1.08-1.16.08-1.05.06-.77.04-.64.05-.65.05-.66.05-.67.05-.7.05-.7.06-.7.06-.73.05-.74.06-.74.06-.74.06-.73.06-.72.06-.72.06-.7.06-.71.06-.7.06-.7.07-.68.06-.67.06-.68.07-.66.06-.66.07-.65.07-.65.06-.64.07-.63.06-.63.09-.78.12-1.07.14-1.2.14-1.13.13-1.05.12-.95.11-.86.11-.8.11-.8.1-.78.12-.78.1-.8.12-.85.12-.9.13-.97.14-1.03.15-1.08.16-1.13.14-1.04.1-.77.09-.64.09-.64.09-.66.09-.68.09-.69.1-.7.1-.72q.04-.36.1-.71l.09-.71.1-.7.08-.68.1-.67.08-.65.1-.65.08-.64.08-.61.1-.74.13-.98.14-1.03.13-.94.12-.9.13-.91.12-.93.13-.95.13-.95.13-.98.14-.98.13-1 .14-1.02.14-1.03.14-1.04.14-1.06.15-1.07.14-1.08.15-1.1.15-1.12.16-1.13.15-1.14.16-1.15.16-1.17q.08.15.13.48.05.33.07.62l.05.65.03.8.02.93.01.94v2.02l-.01.66v.66l-.02.67-.01.68-.02.68-.02.7-.01.69-.02.69-.02.67-.02.65-.03.78-.03 1.05-.04 1.11-.04 1.1-.04 1.13-.05 1.17-.05 1.2-.05 1.2-.04 1.2-.05 1.2-.05 1.16-.04 1.16-.04 1.14-.04 1.13-.04 1.12-.04 1.1-.04 1.08-.04 1.07-.03 1.06-.03 1.05-.04 1.03-.03 1.01-.03 1-.02 1-.03.97-.03.96q0 .48-.02.95l-.02.98-.03 1.09q0 .56-.02 1.03l-.01.78-.02.65-.01.66-.01.69-.01.7-.01.7-.01.73-.01.74-.01.75v.76l-.01.77-.01.75v1.48l-.01.72V231.2l.01 1.06.01 1.18q0 .58.02 1.13 0 .56.02 1.1 0 .53.02 1.04l.02 1.06.04 1.12.03 1.04.03.77.03.63.02.65.03.67.03.69.03.71.02.73.03.75.03.77.03.79.03.8.03.78.02.78.03.77.03.77.02.76.03.75q0 .38.02.75l.02.74.02.72.02.7.02.69.01.67.02.66v.64l.02.78.01 1.05V263.13l-.01.96-.01.9V267.47l.01.83.02.84.02.86q.01.44.07.8.05.36.18.78.13.42.46.67l.65.48.55.43.5.4.47.37.5.4.48.43q.22.19.6.39.37.2.77.36l.72.27.68.24.78.25.88.28.94.27.97.23q.49.1 1 .18.5.09 1.03.15.52.06 1.05.1.54.05 1.09.07.55.03 1.11.03l1.15-.01 1.17-.06 1.06-.1.78-.1.62-.1.64-.1.65-.12.65-.13.67-.15.67-.16.68-.18.7-.19.7-.2.7-.22.72-.23.72-.23.72-.23.72-.22.71-.22.71-.2.71-.2.7-.2.7-.19.7-.18.7-.18.7-.17.7-.16.69-.15.68-.15.69-.14.68-.14q.24.14.22.47-.02.33-.09.62-.07.3-.21.67-.14.37-.3.73l-.37.71q-.2.36-.43.7-.23.35-.49.69-.25.34-.55.7l-.65.75-.72.8-.81.84-.86.84q-.44.42-.9.8-.45.4-.92.77-.46.38-.95.73l-.93.68-.88.62-.84.57-.77.51-.77.5-.8.49-.81.5-.85.5-.85.5-.83.47-.81.47-.8.45-.81.46-.89.5-.95.52-1.02.56-1.05.57q-.53.29-1.07.56l-1.07.55-1.07.54q-.55.27-1.07.56-.53.28-1.05.59-.52.3-1.03.63-.5.32-1 .67-.5.34-.96.68l-.87.67-.8.65q-.38.32-.72.64l-.68.6-.65.58-.63.53q-.3.25-.61.48-.3.24-.62.47l-.66.49-.7.49-.73.5-.77.51-.82.52-.85.53-.9.54-.93.54-.97.56-1.02.56-1.05.56q-.25.02-.25-.2 0-.2.07-.42.07-.22.2-.51l.25-.6.27-.59.28-.6.29-.6.3-.64.34-.69.37-.75.4-.8.42-.84.44-.85.47-.86.49-.88.5-.88.54-.9.54-.93.57-.93.59-.95.6-.97.6-1 .64-1 .64-1.03.56-.92.41-.67.33-.54.33-.54.34-.56.33-.55.33-.56.32-.57.31-.57.31-.58.3-.58.3-.59.3-.59.28-.6.28-.6.28-.6.27-.62.26-.61.26-.62.25-.63.24-.63.24-.64.23-.64.23-.65.22-.65.2-.66.21-.66.2-.66.2-.68.19-.68.18-.68.17-.69.17-.69.16-.7.16-.7.15-.71.14-.71.13-.72.14-.7.12-.7.12-.7.1-.69.11-.68.1-.68.1-.67.08-.66.09-.66.07-.65.08-.64.07-.63.06-.63.06-.62.07-.76.1-1.05.09-1.16.08-1.13.06-1.1.06-1.12.06-1.04.03-.78.03-.65.03-.66.02-.7.03-.7.03-.71.03-.73.03-.74.03-.75.04-.77.03-.78.04-.79.04-.79.04-.77.04-.75.05-.73.04-.72.06-.7.05-.68.05-.66.06-.66.06-.65.06-.66.06-.66.07-.67.07-.66.07-.67.07-.67.08-.67.08-.68.09-.67.09-.67.1-.67.1-.67.1-.67.12-.67.12-.67.13-.66.14-.65.15-.64.15-.64.17-.63.17-.62.18-.62.2-.6.2-.6.22-.6.29-.71q.18-.43.44-.98t.55-1.08q.29-.53.61-1.05.33-.52.6-.9l.46-.63.4-.5.4-.48.44-.49.45-.47.48-.46.51-.45.54-.44q.27-.22.56-.42l.6-.42.62-.4.65-.39.68-.37.73-.35.75-.34.8-.3q.41-.16.84-.3.43-.15.87-.28l.91-.26.95-.23q.49-.12.99-.22l1.03-.2q.52-.1 1.06-.18l1.1-.15q.57-.08 1.15-.14.59-.07 1.19-.12l1.22-.1 1.26-.07q-.01-.08-.13.02-.1.11-.31.4-.2.29-.38.67-.18.39-.3.7l-.26.69-.25.77-.22.82-.2.87-.16.93-.14.93-.1.9-.09.86-.05.82-.03.82-.01.86v.9l.02.95.03.97.04.96.06.95.06.94.08 1 .08.95.06.73.06.61.05.64.07.67.06.68.06.7.07.7.06.73.06.73.07.75.06.76.06.78.06.77.05.75.05.74.04.72.03.7.03.69.03.66.01.65.01.63v1.8q0 .57-.03 1.11l-.05 1.04-.07.99q-.03.48-.08.94-.04.47-.1.9l-.1.86-.14.86-.17.9-.2.96-.22.99-.25 1-.25.95-.27.92-.26.88-.3.89-.3.93-.35.98-.37 1.03-.4 1.07q-.21.55-.39.97l-.29.7-.25.58-.25.58-.27.6-.27.59-.32.71-.45.96-.5 1.04-.49.98-.47.97-.49 1.02-.5 1.06-.5 1.1q-.25.57-.47 1.15-.23.57-.43 1.15-.2.58-.37 1.18-.18.59-.32 1.19-.15.6-.2 1.1-.03.51.03.93.06.41.23.73t.44.55q.27.22.57.41.3.19.64.34.34.15.7.27.37.12.77.2l.85.13q.45.06.96.1l1.07.05h1.03l.78-.01.62-.05.63-.06.62-.08.63-.11.64-.13.63-.15.64-.18.64-.18.6-.19.6-.19.72-.23.95-.33 1.02-.38 1-.4 1.04-.41 1.06-.46 1.1-.49 1.1-.5 1.08-.5 1.04-.47 1.02-.48.9-.43.7-.33.56-.27.6-.29.6-.3.63-.3.65-.32.66-.33.66-.33.65-.34.64-.34.64-.34.63-.35.64-.35.62-.36.62-.36.6-.34.58-.34.57-.33.55-.33.66-.4q.4-.22.89-.52l.95-.58.9-.55.82-.51.76-.5.73-.48.73-.5.73-.53.74-.54.74-.57.75-.58.74-.61q.37-.3.74-.63.37-.32.73-.68.35-.37.69-.79.33-.42.65-.89.32-.47.54-.86l.37-.66.28-.56.27-.58.26-.6.26-.63.24-.66.23-.68.21-.7q-.04-.38-.28-.63-.25-.25-.48-.41-.24-.16-.54-.3-.3-.15-.65-.28-.34-.13-.73-.24l-.8-.2q-.42-.09-.88-.16l-.9-.13-.87-.1-.84-.1-.8-.07-.8-.05-.86-.04-.9-.04-.95-.02-.99-.01h-2.13l-1.13.02-1.03.03-.76.02-.63.03-.63.02-.65.03-.66.03-.67.04-.68.04-.67.03-.67.04-.67.04-.66.04-.66.04-.66.05-.65.04-.65.04-.65.05-.64.04-.64.04-.63.05-.63.04-.63.05-.78.06-1.07.08-1.22.1-1.2.08-1.17.1-1.15.1-1.14.09-1.12.1-1.1.09-1.07.09-1.06.1-1.03.08-1.01.1-1.05.09-1 .1-.75.06-.63.06-.65.06-.68.06-.69.07-.7.07-.7.07-.72.07-.72.07-.73.08-.74.08-.74.08-.75.08-.74.07-.73.07-.72.07-.72.07-.71.06-.7.06-.7.05-.69.06-.68.04-.68.05-.67.04-.66.04-.65.04-.65.03-.64.03-.63.02-.79.03-1.08.03-1.2.03H241.5l-1.11-.03-1.08-.04-1.06-.05-1.03-.06-1.01-.07-.98-.07-1-.1-1.1-.13-1.02-.12-.77-.1-.64-.1-.65-.1-.65-.11-.66-.13-.66-.13-.67-.16-.67-.16-.68-.18-.68-.19-.67-.19-.65-.19-.62-.19-.75-.22-1-.31-1.06-.34-1-.34-1.02-.35-1.01-.37-1.02-.38q-.5-.2-1.02-.44-.52-.23-.92-.44-.4-.2-.68-.36l-.54-.3-.55-.33-.56-.35-.54-.35-.63-.45q-.36-.26-.78-.61-.4-.36-.74-.7-.34-.35-.6-.7-.26-.34-.47-.7-.2-.36-.36-.73-.15-.36-.25-.75-.1-.38-.15-.77-.05-.4-.06-.78-.01-.38.02-.75t.09-.74q.06-.36.17-.7l.22-.73q.11-.38.25-.77l.27-.8.3-.84q.16-.44.3-.92.15-.49.27-1.03.13-.54.21-.99l.14-.75.1-.64.08-.64.1-.75.08-1 .04-1.03q0-.48-.02-.92l-.06-.82-.07-.71-.08-.6q-.05-.28-.14-.62-.08-.33-.33-.78-.25-.46-.54-.8l-.53-.6-.52-.52-.59-.56-.67-.6q-.36-.3-.78-.59-.41-.28-.88-.53-.47-.24-1-.46-.53-.22-.96-.35-.44-.14-.75-.22l-.63-.17-.66-.14-.7-.13-.71-.11-.76-.1-.78-.08-.82-.06-.82-.06-.8-.05-.77-.05-.76-.04-.73-.04-.71-.03-.7-.04-.66-.03q-.33 0-.65-.02l-.78-.03-1.02-.02-1.08-.02h-.98q-.47 0-.96.03l-.98.08q-.5.04-1.02.12-.51.07-1.04.17l-1.07.21q-.55.12-1.11.27-.57.14-1 .27l-.74.22-.6.18-.6.2-.6.22-.6.25-.6.26-.62.28-.6.3-.62.32-.61.34-.61.35-.6.34-.57.34-.56.33-.54.32-.65.4-.87.55q-.49.3-.86.55l-.64.4-.51.35-.53.35-.54.36-.54.36-.56.38-.56.38-.56.4-.56.38-.56.4-.56.39-.57.4-.56.4-.56.4-.57.4-.56.42-.56.41-.56.42-.56.42q-.29.2-.57.42l-.56.43-.56.43-.56.43-.55.44-.56.44-.55.44-.55.45-.55.45-.55.45-.55.46-.54.47-.54.46-.54.47-.54.48-.53.48-.53.48-.52.5-.52.48-.52.5-.5.5q-.26.24-.5.5-.26.24-.5.5-.25.24-.49.5l-.48.5q-.24.24-.47.5l-.47.5-.47.52-.49.55-.5.59-.54.62-.54.65-.57.68q-.3.35-.59.72l-.6.74-.61.79-.6.82-.56.86-.55.9-.53.92q-.27.48-.52.97l-.5 1.01-.47 1.05-.45 1.06-.43 1.04-.4 1.03-.38 1.02-.35 1.01-.32 1-.3.98-.27.98-.25.95-.23.95-.2.92-.19.92-.16.9-.14.87-.12.87-.1.85-.09.84-.07.83-.06.81-.05.8-.04.8-.03.79-.01.77-.01.76v.77l.02.8.02.82.04.86.05.88.06.92.07.94.09.97.09.96.1.93.1.9.12.86.12.82.13.79.14.75.14.71.15.71.17.72.17.74.19.75.2.77.2.78.22.8.23.81.25.8.29.78q.15.37.32.73l.35.7q.19.35.39.67.2.32.42.63.22.31.46.6.24.29.5.56.25.28.5.53l.48.5.48.45.58.51q.35.3.79.63.43.32.84.57.42.25.85.48.43.23.89.43.45.2.93.37.47.17.97.32t1.03.27q.54.12.97.18.44.07.74.1.3.04.62.06l.63.05.66.03.67.02h1.31l.65-.03.65-.03.64-.05.63-.06.64-.08.61-.09.75-.1 1-.19q.56-.1 1.08-.22l1-.25.97-.29 1-.32 1.05-.37 1.07-.4.95-.4.7-.3q.29-.11.57-.24l.58-.26.58-.28.6-.28.59-.3.6-.3.62-.32.61-.33.63-.34.63-.35.64-.36.65-.37.65-.39.65-.39.65-.38.63-.39.62-.38.61-.38.6-.38.6-.38.58-.38.57-.37.57-.37.55-.37.54-.36.54-.36.52-.36.52-.35.63-.43.85-.6.94-.67.9-.65.88-.63.87-.65.8-.6.6-.46.49-.38.5-.39.52-.4.52-.41.53-.42.53-.42.53-.42.54-.44.54-.43.54-.44.55-.45.55-.45.56-.46.57-.47.57-.48.58-.5q.3-.24.59-.5l.6-.5.6-.52q.3-.26.59-.54l.56-.57.53-.61q.26-.31.5-.64.25-.33.48-.68.23-.35.44-.71.22-.36.42-.75l.39-.77q.05-.33-.1-.65-.15-.32-.41-.56-.27-.24-.5-.4-.22-.16-.5-.33l-.59-.33-.7-.35-.75-.34-.79-.31q-.4-.16-.82-.3l-.84-.27-.84-.26-.8-.22-.74-.2-.7-.17-.7-.16-.73-.15-.75-.14-.78-.14-.79-.13-.8-.13-.78-.12-.79-.11-.79-.1-.78-.1-.78-.1-.79-.09-.78-.08-.77-.07-.78-.08-.77-.06-.82-.07-.91-.06-1-.06-1.1-.07-1.04-.05-.78-.04-.64-.03-.67-.02-.68-.03-.7-.02-.74-.03-.73-.02q-.37 0-.73-.02-.37 0-.73-.02l-.73-.01-.72-.01-.72-.02h-.7l-.72-.01-.7-.01-.72-.02-.7-.01-.72-.02-.71-.02-.72-.03-.7-.03-.72-.03-.72-.04-.72-.04-.71-.04-.72-.05-.72-.05-.72-.06-.72-.06-.72-.06-.72-.07-.72-.07-.72-.08-.72-.08-.72-.08q-.37-.04-.73-.1l-.72-.08-.73-.1-.72-.1-.73-.1-.72-.12-.73-.11-.72-.12-.73-.13-.73-.13-.72-.13q-.09-.25.09-.18.17.08.36.22.2.14.47.37l.59.5.66.62.76.71q.4.38.83.82l.88.86.88.84.88.82.88.8.88.8.88.78.88.77.89.76.85.73.8.68.75.63.7.58.67.57.69.57.7.6.74.6.74.62.77.63.78.64.8.66.83.67.84.68.86.7.88.7.88.72.86.7.86.7.84.68.83.66.82.67.8.64.8.64.78.63.77.62.75.6.75.6.73.59.72.58.7.56.7.56.68.54.66.53.66.53.65.51.66.53.73.58.8.63.84.67.9.7.91.73.94.74.97.75.96.75.93.73.9.7.86.67.83.65.8.62.77.6.74.56.7.55.67.51.65.5.6.46.61.47.64.48.66.5.68.51.73.56.8.62.86.68.92.75.93.75.87.71.8.67.76.62.73.61.76.63.78.66.8.67.8.67q.38.34.77.66l.75.63.72.62.75.63.8.67.85.72.9.77.94.78.91.77.9.76.89.75.86.74.83.75.81.75.78.76.75.77.71.77.7.78.66.78.62.79.59.77.53.77q.27.39.5.77.24.38.48.8l.47.9q.23.46.46.97.23.5.46 1.06.23.55.41 1.1.2.53.34 1.07.14.53.24 1.05.1.52.17 1.02l.1.98q.05.46.07.89.03.42.03.8v.71q0 .33-.06.65t-.17.61q-.1.3-.26.58-.16.27-.36.53-.2.26-.45.52-.26.27-.56.55l-.65.56q-.35.28-.75.57-.4.3-.84.57-.44.29-.93.55-.48.27-1.01.52-.53.26-.96.44l-.72.3-.6.23-.63.23-.65.21-.67.22-.69.2-.7.2-.74.2-.73.18-.72.18-.7.17-.67.16-.66.15-.64.14-.62.13-.75.16-.99.2-1.07.18-.99.15-.91.12-.86.1-.81.07-.77.05-.73.05-.73.02h-.75l-.77-.02q-.4 0-.8-.03-.41-.03-.78-.08-.36-.05-.69-.14-.32-.08-.6-.2-.28-.11-.52-.26-.24-.14-.44-.36-.2-.21-.35-.5-.15-.29-.27-.65-.11-.36-.18-.79l-.14-.85-.11-.84-.1-.84-.07-.81-.06-.85-.05-.9-.05-.96-.03-1.02-.03-1.04-.03-1.01-.03-.99-.03-.95-.02-.98-.03-1.05-.02-1.14-.03-1.2-.02-1.25-.02-1.23v-1.23l-.01-1.07-.01-.77-.01-.62-.03-.63-.03-.65-.05-.65-.05-.67-.06-.67-.07-.69-.08-.67-.07-.66-.08-.65-.09-.77-.13-1.04-.15-1.1-.16-1.1-.16-1.13-.19-1.17-.19-1.2-.2-1.22-.2-1.2-.2-1.16-.2-1.14-.2-1.12-.2-1.1-.2-1.06-.2-1.04-.21-1.02-.2-1-.2-.96-.21-.95-.22-.97-.25-1.05-.23-.98-.18-.74-.15-.62-.16-.63-.16-.63-.17-.65-.17-.66-.18-.67-.18-.68-.19-.68-.19-.7-.2-.7-.18-.67-.2-.66-.18-.64-.19-.63-.18-.6-.19-.6-.18-.58-.2-.57q-.1-.29-.23-.58l-.28-.6-.31-.6-.35-.6-.39-.62-.42-.62-.46-.64-.5-.64-.54-.65q-.27-.33-.57-.66l-.61-.67-.65-.67-.68-.69-.72-.69-.77-.7-.02.44-.01.8v4.73l.02 1.16v1.19l.02 1.21v1.2l.02 1.12v1.06l.02.99v.97l.01 1 .01 1.05.02 1.07v1.09l.01 1.07.01 1.07v1.05l.01.95V306.06l.01.65v2.13l.01.76v5.86l-.01.9v.88l-.01.88-.01.86v.85l-.02.84v.83l-.02.82v.8l-.02.8-.01.77-.01.76-.02.76-.01.74-.02.72-.01.72-.02.7-.01.7-.02.7-.01.68-.01.68-.02.67-.01.67-.01.65-.01.66-.01.64-.02.64v.63l-.01.62-.01.77-.02 1.06-.01 1.18v1.15l-.02 1.11v3.24l.01.78v.65l.01.67.01.69.01.7.02.74.03.75.04.77.04.8.05.8.06.83.07.85.08.86.08.85q.04.42.1.83l.09.83.1.82.12.8.12.8.13.8.13.77.13.75.13.73.13.7.12.68.13.65.12.63.15.75.22 1.03.27 1.17.3 1.16.27 1q.12.44.23.75l.23.65q.13.34.29.7l.33.76q.17.39.38.8l.42.87.48.91.52.96q.27.5.55.97l.55.9q.27.43.55.83l.55.78.56.71q.27.35.55.66l.56.59q.28.28.56.53l.55.5.5.46.48.45.54.53q.32.31.67.68l.64.7q.28.34.57.62.29.29.58.53.3.24.6.43.31.2.63.35.3.15.65.3.34.14.72.27l.77.25.84.24.85.19q.42.08.82.13.4.05.8.07.38.02.75 0 .38 0 .74-.05.35-.05.7-.13.34-.08.67-.2.33-.12.65-.28.32-.15.62-.34.3-.2.58-.42.28-.22.55-.48.26-.25.51-.55.25-.29.49-.62.23-.33.45-.69.21-.36.41-.76.2-.4.39-.84l.35-.86.33-.85q.17-.42.31-.84l.3-.82.26-.84.27-.88.25-.9.25-.95.23-.93.2-.84q.1-.41.17-.78l.15-.7.15-.73.2-.89.19-.9.15-.72.14-.61.14-.66.15-.68.16-.7.16-.75.17-.77.18-.8.18-.83.19-.86.19-.87.19-.86.18-.84.18-.83.18-.82.17-.81.18-.8.16-.79.17-.79q.1-.4.18-.81l.18-.85.19-.86.19-.9.2-.92.2-.94.2-.97.21-1 .22-1.02.22-1.05.23-1.08.23-1.1.24-1.14.24-1.15.25-1.19.22-1.06.16-.77.13-.62.13-.62.14-.64.13-.64.13-.64.14-.65.14-.66.14-.67.14-.67.14-.67.14-.69.15-.69.14-.7q.31-.05.09.2t-.5.45q-.3.2-.72.44-.43.24-.82.5-.38.26-.73.55-.34.28-.65.6-.3.31-.57.66-.27.35-.45.76-.18.42-.28.9-.1.48-.1 1-.01.53.07 1.1.21.12.5.12.28 0 .62-.1.35-.1.75-.32.41-.21.89-.53l.93-.65.9-.67q.45-.33.88-.68.44-.34.85-.7l.76-.64.56-.49.46-.4.48-.43.49-.44.5-.46.51-.47.53-.47.51-.47.52-.47.52-.46.51-.45.52-.45.51-.45.51-.44.51-.43.52-.43.5-.42.51-.42.5-.42.51-.4.5-.41.51-.4.5-.4.5-.4.5-.38.5-.38.5-.38.62-.47.87-.65.99-.72.98-.7.98-.7.98-.68.96-.66.92-.63.9-.6.87-.59.88-.58.95-.62.87-.57.66-.42.53-.35.55-.35.54-.35.53-.35.66-.43q.4-.25.9-.59l1-.67.97-.64.9-.63q.44-.3.84-.6l.78-.57.72-.55.65-.53.6-.5.52-.5.54-.49.6-.53.67-.57.74-.61.82-.65.88-.7.82-.62.63-.47.51-.39.52-.39.52-.37.5-.37.61-.44.84-.6.92-.64.88-.6.84-.57.81-.53.77-.49.75-.47.76-.47.77-.47.77-.46.79-.46.78-.46.8-.45.8-.46q.4-.23.8-.42.41-.2.82-.35.4-.16.81-.28.41-.13.82-.22.4-.09.82-.15l.82-.08q.42-.02.83 0 .42 0 .83.05.14.35.17.78.04.42.05.75l-.02.72q-.01.39-.05.83l-.1.93-.14 1.03-.18 1.13-.2 1.16-.19 1.08-.18 1-.18.94-.17.86-.17.8-.15.71-.16.64-.15.67-.18.76-.2.88-.22.97-.22 1.01-.21.98-.2.93-.2.9-.2.9-.2.95-.21 1-.22 1.04-.23 1.06-.22 1.05-.2 1.02-.2 1.01-.21 1.06-.2 1-.14.76-.12.64-.12.66-.13.69-.12.7-.13.72-.12.73-.12.75-.12.75-.12.77-.11.78-.12.79-.1.79-.1.78-.1.77-.09.77-.07.75-.08.74-.06.73-.06.73-.05.7-.04.71-.04.7-.03.67-.02.68-.02.66V347.29l-.01 1-.01 1.01-.02 1.03-.03 1.04q-.01.53.03.96l.1.73q.04.3.11.6l.15.64.2.65.22.68.27.7q.14.36.29.69l.3.64.31.6.33.56.34.5q.17.25.44.57.26.33.64.68.38.35.77.63.38.28.78.48.39.21.79.35.4.14.8.2.4.07.75.09.35.02.79-.03.43-.05.79-.32.35-.27.58-.6.23-.32.33-.7l.17-.7.1-.59.06-.64.07-.7.08-.7.07-.8.05-.87.05-.93.02-1 .02-.96v-.75l.01-.64v-.67-.7-.74-.77l-.01-.78q0-.4-.02-.79l-.02-.78-.03-.79-.04-.78-.04-.78-.05-.78-.06-.77-.07-.78-.08-.78-.08-.78-.09-.77-.1-.78-.1-.77-.11-.78-.12-.77-.13-.76-.14-.75-.15-.74q-.07-.37-.16-.73l-.17-.7-.18-.7-.2-.69q-.09-.34-.2-.67l-.2-.65-.2-.63-.2-.6-.24-.72-.33-.95-.37-1-.36-.95-.39-.98-.4-1-.43-1-.44-1.03-.46-1.02-.47-1.03-.5-1.02q-.24-.52-.5-1.03l-.51-1.03-.54-1.04-.55-1.04-.57-1.04q-.28-.53-.58-1.05l-.6-1.05-.62-1.06q-.3-.53-.55-.93l-.4-.67-.33-.54-.33-.53-.34-.54-.34-.54-.34-.55-.35-.54-.34-.53-.34-.53-.41-.66-.58-.9-.56-.89-.41-.64-.34-.53-.36-.56-.37-.58-.39-.6-.4-.64-.42-.65-.43-.67-.44-.69-.44-.68-.45-.69-.45-.68-.44-.68-.46-.68-.45-.69-.46-.68-.45-.68-.44-.67-.43-.68-.4-.67q-.21-.33-.4-.67l-.4-.66-.37-.67-.35-.66-.35-.66-.33-.65-.32-.65-.3-.65-.3-.65-.27-.63-.26-.64-.25-.64q.09-.34.33-.67.25-.33.47-.58.22-.24.5-.5l.56-.53.55-.5.53-.5.53-.48.53-.48.57-.52.6-.54.63-.57.64-.58.63-.57.61-.54.6-.54.63-.54.68-.58.74-.62.8-.65q.4-.34.83-.66.43-.33.87-.63.45-.31.91-.6l.95-.59q.48-.28.94-.52l.92-.47.9-.39q.44-.18.87-.33l.82-.25q.39-.12.75-.2.35-.07.68-.11.32-.04.75-.05.43-.01.93.02t.95.1q.44.08.9.22.46.13.95.33.5.2.88.4t.64.36q.27.15.53.33l.54.38.55.45q.27.23.55.5.28.26.57.56l.57.64.57.74.57.84q.29.44.58.93l.56 1 .54 1 .51 1.03.49 1.05.45 1.03.43.97.4.93.39.86.37.86.4.89.4.92.44.95.45.98.49 1 .51 1.05.48.94.35.68.3.55.29.56.3.57.32.57.32.58.33.6.33.58q-.2.41-.47.75-.29.33-.52.56-.23.24-.51.48l-.6.5-.66.54-.74.57-.82.61-.84.62-.83.6-.82.58-.8.57-.77.54-.7.49-.65.45-.58.4-.56.38-.56.38-.57.38-.57.37-.57.36-.56.35-.55.33-.66.4-.9.5q-.51.28-1 .52l-.96.45-.94.38q-.46.18-.88.3-.41.13-.72.2l-.63.17-.67.13-.7.1-.76.05q-.38.02-.78.02t-.8-.03l-.78-.06-.77-.1-.75-.15-.74-.17-.72-.2-.7-.21q-.34-.11-.67-.24l-.65-.25-.64-.25-.61-.26-.6-.27-.57-.27-.69-.33-.9-.46-.96-.49-.87-.45-.88-.46-.85-.46-.65-.36-.55-.3-.59-.33-.6-.34-.64-.35-.67-.38-.7-.39-.74-.4-.76-.43-.8-.44-.85-.45-.87-.47-.91-.47-.96-.45q-.48-.23-1-.45l-1.03-.44-1.08-.42-1.12-.4-1.02-.34-.75-.24-.6-.18-.63-.18q-.31-.1-.63-.18l-.65-.17-.65-.17-.67-.16-.68-.16-.7-.15-.7-.15-.7-.14-.73-.14-.73-.13-.75-.13-.75-.12-.77-.12-.77-.12-.8-.1q.03.2.21.52.19.32.46.65t.49.57l.49.53.57.58.65.63q.35.34.7.71.35.38.69.8l.68.87.6.84.41.64.34.53.33.55.33.58.33.6.32.62.33.63.32.67.32.67.3.68.27.7.27.7.25.7.23.72.21.72.2.74q.1.36.18.74l.17.74.15.76.13.76.11.77.1.78.09.79.07.8.06.78.05.77.05.75.04.73.05.7.03.7.04.66.03.65.02.64.03.65.01.65.02.67v.68l.01.68V325.5l-.03.69-.05.67-.05.65-.08.64-.11.78q-.07.46-.2 1.05l-.27 1.14q-.13.55-.28 1.07-.15.52-.31 1-.16.5-.33.94l-.37.92-.4.95-.46.98q-.23.5-.5 1-.25.51-.53 1-.29.5-.6.97-.3.47-.64.92-.33.45-.7.88-.35.44-.73.85l-.8.8q-.4.4-.84.76-.44.37-.9.73-.45.35-.94.66-.49.3-1 .57-.5.26-1.05.48-.53.22-1.1.4-.56.18-1.1.33-.53.16-1.03.29l-.99.24q-.48.12-.92.2-.45.1-.92.18l-.95.15q-.49.08-.99.14l-1.03.13-1.03.12-1 .1-.97.11-.94.1-.92.09-.9.08-.85.07-.84.07-.8.06-.78.05-.75.04-.72.04-.73.03-.78.03-.82.01-.87.01-.88.01h-.88l-.85-.01-.85-.01-.82-.03-.8-.03-.77-.06q-.38-.02-.74-.06-.37-.03-.7-.08-.32-.05-.75-.15-.43-.1-.86-.29-.43-.19-.64-.33-.2-.13-.2-.26.02-.13-.16-.14-.17 0-.26-.31-.09-.3-.14-.75-.05-.45-.05-.8 0-.33.03-.71.03-.38.09-.8.06-.42.15-.88.1-.46.17-.9l.14-.9.11-.86.1-.84q-.98-.33-1.49-.45-.5-.12-.54-.03-.26-.2-.66-.24-.39-.04-.72-.03-.33 0-.72.05-.4.04-.78.1-.39.04-.77.1l-.75.12-.73.13-.75.15-.8.17-.85.19-.9.2q-.46.12-.94.22l-.96.2-1 .2-1.02.18-1.05.16q-.53.09-1.07.16l-1.1.15-1.14.14-1.16.13-1.18.11-1.06.1-.77.05-.63.05-.63.04-.63.04-.65.04-.65.03-.66.04-.66.02-.67.03-.68.03q.13-.28.16-.63.04-.34.05-.61v-.6q-.02-.31.05-.61.06-.3.2-.59.14-.28.36-.54.22-.27.5-.51.3-.25.67-.5.37-.26.81-.52.44-.26.84-.46l.67-.35.57-.27.6-.28.58-.27.57-.26.7-.31.95-.42 1.04-.44 1-.41.97-.38.91-.35.87-.3q.43-.16.87-.29.44-.13.9-.24.46-.12.93-.22.48-.1.97-.18l.96-.15.9-.14.86-.12.8-.1.8-.1.82-.08.86-.08.9-.07.9-.07.9-.06.9-.06.9-.04q.45-.03.96-.04l1.06-.04 1.02-.02.78-.02h.66l.67-.01H209.98l.66.03.66.02.65.02.65.04.65.04.63.04.63.05.77.06 1.06.1 1.17.13 1.05.13.78.1.65.09.66.09.69.1.7.1.73.11.75.12.76.12.8.12.8.13.84.14.85.14.88.15.9.15.92.16.95.16.97.17 1 .18 1.01.17 1.04.19 1.07.19 1.09.2 1.1.19 1.1.2 1.1.18 1.08.19 1.1.19 1.08.18 1.08.18 1.08.18 1.08.17 1.07.17 1.06.18 1.06.16 1.06.17 1.05.16 1.04.16 1.04.16 1.03.16 1.02.15 1.02.15 1.01.15 1 .15 1 .14.98.15.98.14.97.13.96.14.95.13.94.13.93.13.93.13.9.12.91.13.9.12.87.1.87.1.85.1.83.1.83.07.81.08.8.06.77.06.75.06.72.05.69.05.66.05.78.05 1.02.06 1.12.07 1.13.06 1.14.05 1.15.06 1.17.04 1.17.05 1.18.04 1.19.04 1.19.03 1.2.03 1.19.03 1.2.02 1.2.02 1.2.02 1.18.02 1.19.01 1.19.01 1.18.01 1.18.01h1.18q0-.06-.27-.08h-.67l-.73.05-.67.06-.75.07-.84.1-.88.1-.84.1-.83.1-.8.1-.82.11-.87.12-.93.12-.99.14-1.05.15-1.11.16-1.03.14-.76.12-.63.09-.65.1-.66.1-.68.1-.7.1-.73.12-.73.11-.76.12-.78.13-.78.12-.79.13-.78.12-.79.13-.78.13-.8.13-.78.13-.79.13-.78.13-.8.14-.78.13-.78.13-.78.14-.79.14-.78.13-.78.14-.77.14-.78.14-.77.14-.76.14-.77.14-.76.14-.76.14-.76.14-.75.14-.75.15-.74.14-.74.14-.73.15-.74.14-.72.14-.72.15-.72.14-.71.15-.71.14-.7.15-.7.14-.69.15-.68.14-.68.15-.7.15-.72.16-.76.16-.8.18-.82.19-.85.19-.9.2-.92.21-.95.22-.95.23-.97.23-.99.23-.99.24-1 .24-1.01.25-1.03.25-1.03.25-1.01.26-1.01.27-1 .26-.99.28-.97.27-.97.28-.96.29-.95.28-.94.3-.93.29-.91.3q-.46.14-.9.3l-.9.3-.88.3-.88.31-.86.31-.85.31-.84.32-.83.32-.82.32-.8.32-.8.32-.79.32-.78.33-.76.33-.75.33-.74.33-.73.33-.73.33-.7.33-.7.33-.7.34-.67.33-.67.33-.66.34-.65.33-.63.33-.63.33-.62.33-.62.34-.65.35-.67.38-.7.4-.71.4-.74.44-.77.45-.78.46-.8.49-.8.5-.8.51-.8.53-.8.54-.81.56-.8.57-.81.58-.8.6-.8.58q-.38.3-.77.58l-.75.58-.75.58-.73.57q-.36.3-.72.57l-.7.57-.69.56-.68.56-.66.56-.65.55-.64.55-.62.54-.6.54-.6.53-.59.54-.56.54-.53.55q-.27.27-.52.55-.26.27-.5.56l-.48.56-.46.57-.43.57-.42.59-.4.59-.38.6-.37.6q-.18.3-.34.62l-.33.62-.31.64-.3.64q.12.22.33.38.21.16.51.25.3.1.7.12.4.03.9 0l.97-.1 1-.15q.49-.08.99-.19.5-.1 1-.23.5-.12.92-.25l.71-.23.6-.2.63-.24.66-.25.69-.28.72-.3.73-.32.74-.32.74-.33.74-.33.74-.34.75-.35.76-.35.75-.36.76-.36.76-.37.76-.37.77-.38.76-.38.77-.38.77-.4.77-.39.77-.4.77-.4.77-.4.77-.4.76-.4.77-.4.77-.4.76-.41.76-.4.76-.41.76-.4.75-.4.75-.4.75-.4.74-.4.74-.39.74-.39.75-.4.75-.39.76-.4.76-.4.76-.4.78-.4.77-.4.78-.41.78-.4.79-.41.79-.4.79-.4.8-.4.79-.41.8-.4.8-.4.8-.4.8-.38.81-.4.8-.38.81-.38.81-.38.8-.37.81-.37.8-.37.81-.35.8-.36.8-.35.8-.34.8-.33.8-.33.79-.32.77-.32.75-.3.73-.29.72-.28.7-.26.68-.26.66-.25.64-.24.64-.22.61-.23.6-.2.58-.21.71-.25.95-.32 1.03-.34.98-.31.92-.3.87-.27.86-.26.89-.27.92-.27.95-.28.99-.27 1.02-.24 1.05-.2q.53-.1 1.08-.18l1.08-.14 1.04-.1 1-.04q.49-.02.95 0 .47 0 .91.03l.87.05.81.06.77.09.72.1.68.1.63.13.6.14q.29.07.58.18.29.11.58.25.3.15.59.33.3.18.6.39.29.21.59.46t.6.54l.58.62q.3.32.6.68.3.36.44.76.15.4.23.7l.13.65q.05.34.07.73.03.39.04.81l-.02.9-.06.98q-.05.51-.13 1.06-.07.55-.16 1l-.15.75-.14.62-.15.64-.17.66-.2.69-.2.7-.23.72-.24.74-.26.77-.28.78-.3.8-.3.83q-.29.19-.7.33-.43.13-.85.2-.43.06-.75.08-.31.03-.66.04l-.74.01-.81-.01q-.43-.01-.84-.06-.42-.04-.83-.1-.4-.07-.81-.17l-.8-.21-.79-.27q-.39-.15-.77-.33-.39-.18-.76-.38-.38-.2-.75-.43l-.73-.46-.69-.46-.65-.47q-.32-.23-.62-.47l-.58-.47-.55-.48q-.26-.23-.5-.47-.26-.24-.49-.48l-.44-.49-.43-.48-.4-.48-.49-.6q-.28-.36-.62-.84l-.63-.95q-.3-.48-.51-.87l-.37-.66-.3-.56-.28-.57-.3-.6-.28-.62-.3-.63-.27-.66q-.14-.33-.26-.67-.13-.33-.24-.68l-.22-.69-.2-.7-.18-.72-.16-.73-.14-.74-.12-.74-.11-.72-.1-.7-.1-.69-.07-.66-.07-.65-.06-.62-.06-.76q-.03-.45-.04-.92l-.03-.78-.02-.65v-.65-.67l.01-.68.02-.7.03-.7.03-.69.04-.68.04-.67.05-.67.05-.66.06-.66.07-.65.07-.64.07-.63.08-.63.1-.77.16-1.05.2-1.18.2-1.15.23-1.11.23-1.09.24-1.04.27-1.08.26-1 .21-.75.18-.62.19-.64.2-.66.2-.68.21-.7.21-.72.21-.74.21-.76.22-.77.21-.8.22-.81.22-.81.2-.78.2-.76.2-.72.18-.7.18-.66.17-.64.16-.6.16-.6.16-.61.16-.6.16-.62.16-.62.16-.63.16-.63.17-.63.16-.64.16-.64.17-.65.16-.64.16-.65.16-.65.16-.65.16-.66.16-.65.16-.66.15-.66.16-.67.15-.66.16-.66.15-.67.15-.67.15-.67.15-.67.14-.68.15-.68.14-.67.14-.68.14-.68.14-.69.14-.68.13-.69.13-.68.13-.7.13-.68.13-.7.12-.69.12-.7.12-.69.12-.69.1-.68.11-.67.1-.67.1-.67.1-.66.08-.65.09-.65.08-.64.08-.63.07-.63.07-.63.08-.77.1-1.07.1-1.2.09-1.19.06-1.16.06-1.14.04-1.12.02-1.1v-1.09V272l-.01-1.04-.03-1q0-.5-.02-.97l-.04-.93-.04-.94-.05-1-.06-1.07-.08-1.13-.09-1.15-.11-1.1-.13-1.07q-.07-.53-.16-1.04l-.16-1-.18-.98-.2-.95q-.09-.47-.2-.92l-.22-.95-.26-1.02-.27-.95-.2-.72-.19-.6-.19-.6-.2-.6-.23-.6-.24-.6-.25-.6-.27-.6-.29-.6-.3-.59q-.16-.3-.33-.57l-.35-.54q-.19-.26-.4-.5-.2-.25-.52-.58-.32-.34-.7-.62-.36-.28-.62-.45l-.54-.31-.55-.29-.67-.31q-.4-.18-.89-.36-.5-.17-.97-.29-.47-.11-.9-.17-.44-.05-.85-.07-.4-.02-.78 0-.37 0-.7.05-.34.05-.64.13t-.59.2q-.28.12-.54.28-.26.17-.5.37-.24.2-.45.45-.22.25-.44.54l-.44.63-.45.73-.46.83-.45.88-.43.9-.42.9-.39.92q-.2.46-.37.93-.19.47-.36.95l-.33.95-.32.97-.29 1.01q-.14.52-.26 1.07-.13.56-.24 1.14l-.21 1.2-.19 1.2-.17 1.13-.15 1.07-.13 1.02-.12 1-.12 1.05-.11 1.09-.11 1.13-.11 1.14-.1 1.13-.1 1.13-.08 1.12-.08 1.1-.08 1.1-.06 1.1-.06 1.07-.06 1.08-.04 1.06-.04 1.05-.03 1.04-.03 1.04-.02 1.02-.01 1.02v1 2.92l.01.94.02.97.03 1.05q0 .55.02 1l.03.74.02.63.02.63.03.65.03.65.04.66.04.67.05.67.05.68.06.69.06.68.08.68.07.66.09.65.1.64.1.63.1.61.15.76.22 1.03.29 1.13q.14.55.31 1.08.16.54.34 1.04l.37 1 .38.99.4.94.43.93q.2.45.43.89l.45.87.48.84.49.8q.24.4.52.8t.6.8q.31.4.65.79.35.4.73.79.37.39.78.78.41.4.85.78.44.4.8.69l.6.48q.24.2.5.39.24.2.5.37l.65.44q.4.25.94.53.54.29 1.1.52.57.24 1.15.42l1.14.34 1.07.3 1.01.24.95.2.93.16.97.15 1 .13q.5.06 1.03.1.53.06 1.07.1l1.08.04 1.1.03 1.13-.01 1.15-.05q.58-.02 1.17-.07l1.2-.1 1.06-.12.77-.1.62-.09.62-.1.63-.1.64-.11.64-.12.65-.13.65-.13.66-.15.66-.15.67-.16.68-.17.68-.17.68-.19.7-.19.69-.2q.41-.1.3-.15-.1-.05-.32-.07l-.57-.03q-.35-.02-.72-.02l-.74-.02h-.78l-.8-.01h-1.78l-1.03.02-1.1.02-1.15.01-1.13.02-1.12.02-1.11.01-1.1.01-1.09.02h-1.07l-1.07.02h-1.05l-1.05.02h-1.03l-1.02.01h-2l-.99.01h-1.94l-.97-.02-.96-.03-.96-.04q-.48-.02-.95-.06l-.96-.06-.95-.08-.95-.1-.94-.1-.94-.12-.94-.13-.94-.14-.94-.16-.93-.17-.93-.18-.92-.19-.92-.2-.9-.2-.87-.21-.86-.22-.9-.23-.97-.27-1.05-.3-.98-.3-.73-.22-.6-.2-.6-.2-.6-.22-.62-.23-.62-.24-.62-.25-.64-.27-.63-.27-.63-.28-.63-.29-.62-.29-.62-.3-.61-.3-.61-.3-.61-.3-.6-.32-.6-.32-.6-.33-.6-.33-.59-.34q-.3-.16-.58-.34l-.59-.34-.58-.35-.56-.36-.56-.35-.54-.36-.53-.36-.51-.36-.62-.45-.83-.63-.9-.73-.83-.73-.78-.74-.72-.74-.67-.75-.62-.76q-.3-.38-.57-.76-.28-.38-.53-.77t-.5-.83q-.25-.44-.5-.94-.24-.49-.42-.9-.19-.41-.3-.7l-.25-.59-.22-.6-.25-.74q-.14-.44-.28-1.02-.14-.57-.23-1.14-.09-.56-.12-1.11-.04-.56-.03-1.02 0-.48.06-.86.05-.39.15-.7.1-.3.3-.63.22-.34.56-.6.35-.25.63-.4.28-.14.6-.26.32-.12.66-.22l.72-.19q.36-.09.75-.16l.8-.13.8-.11.76-.1.73-.07.68-.07.68-.05.7-.05.74-.04.76-.04.8-.02.81-.02h1.72l.9.02.92.03.95.05.98.05v-.04q-.08-.05-.4 0-.34.06-.77.17l-.8.22q-.35.1-.77.25l-.9.3-1.04.37q-.55.2-.97.39l-.7.33q-.29.14-.57.3l-.57.33-.58.35-.58.4-.59.4-.58.43-.56.43-.56.42-.53.42-.52.42-.5.41-.49.42-.47.4-.47.42-.48.43-.48.46-.5.46-.51.49-.52.5-.53.52-.53.53-.54.54-.54.55-.53.54-.53.54-.52.54-.51.54-.52.54-.5.54q-.26.26-.52.55l-.55.58-.56.62q-.3.31-.6.65l-.61.68-.64.7-.67.75-.69.77-.7.8-.7.8-.72.82-.7.83q-.37.42-.72.85l-.72.85-.72.87-.72.88-.73.88-.73.9-.74.9-.75.91-.75.92-.76.92-.77.94-.77.94-.78.95q-.4.47-.78.95l-.7.84-.49.6-.4.48-.4.48-.4.49-.4.48-.4.49-.4.49-.41.49-.4.49-.42.49-.4.5-.41.5-.41.49-.42.5-.4.5-.42.5-.41.52-.42.5-.41.52-.41.51-.42.52-.42.52-.41.52-.42.53-.42.52q-.2.27-.42.53-.2.27-.42.53-.2.27-.42.53l-.41.54-.42.53-.42.53q-.2.27-.42.53l-.41.54-.42.53-.41.54-.42.54-.42.53-.41.54-.41.54-.42.54-.41.54-.41.54-.41.54-.41.54-.4.53-.4.54-.38.53-.39.54-.38.53-.37.53-.37.53-.36.53-.36.52-.35.53-.34.52-.43.66-.58.9-.65 1.04-.63 1.04-.6 1.03-.59 1.03-.57 1.03-.54 1.02-.53 1.02-.51 1.02q0 .36.24.66.24.3.48.5t.56.43q.31.21.64.4l.64.38.65.34.66.3q.34.15.7.28l.77.25.84.22.9.2q.47.1.96.17l.98.11q.5.05 1.01.07.51.02 1.04.02t1.07-.04q.54-.02 1.1-.07l1.12-.13q.57-.08 1.16-.19.58-.1 1.04-.2l.76-.2.62-.17.63-.2.64-.2.65-.24.66-.26.67-.27.68-.3.69-.3.7-.32.7-.33.71-.35.72-.37.73-.38.75-.4.75-.4.78-.43.78-.44.8-.46.82-.47.83-.49.85-.5.86-.52.87-.53.89-.54.9-.56.92-.58.93-.59.94-.6.96-.61.98-.63.98-.64 1-.65 1-.66 1.03-.67.9-.59q.4-.25.65-.43l.53-.34.53-.35.53-.35.53-.35.54-.35.53-.36.55-.35.54-.35.54-.36.55-.35.55-.36.56-.35.55-.36.56-.35.56-.36.56-.36.56-.36.57-.35.57-.36.57-.36.56-.35.56-.35.56-.34.55-.34.54-.33.54-.33.67-.4.92-.56 1.04-.61 1.02-.6q.5-.3 1-.57l.98-.56.97-.54.94-.52.93-.5.9-.48.89-.46.87-.45.85-.42.83-.4.82-.4.8-.38.77-.35.76-.35.75-.32.72-.31.7-.3.7-.28.67-.27.66-.25.63-.25.62-.23.6-.22.6-.21.7-.24q.42-.15 1-.33.57-.18 1.01-.3l.75-.22.6-.16.6-.16.63-.15.62-.15.64-.14.64-.14.65-.13.65-.12.67-.12.67-.11q.33-.06.68-.1l.68-.1q.34-.06.7-.1l.7-.08.7-.08.72-.07.72-.06.72-.06.74-.04.74-.04.75-.03.76-.03.76-.01.77-.01H262l.8.02.78.03q.4 0 .78.02l.78.03q.39 0 .77.02l.77.03.76.04.76.03.75.04.74.03.7.04.7.04.65.04.63.03.76.05.99.07 1.1.09 1.1.09 1.14.1 1.15.1 1.17.1 1.2.1 1.2.12 1.21.12 1.08.1.78.08.62.06.63.06.62.06.63.06.64.06.64.07.63.06.64.06.64.06.64.06.65.06.64.06.64.05.65.06.64.05.65.06.64.05.65.05.64.05.64.04.64.05.64.04.78.05 1.06.07 1.17.06 1.13.06 1.08.05 1.04.03 1 .03.95.02h.91l.88.01H310.95l.76-.02.73-.01.7-.02.66-.03q.32 0 .63-.02l.75-.04.96-.05 1-.07.88-.07.79-.07.7-.07.65-.08.7-.1.67-.09.76-.11.65-.1q.22-.05.04-.09l-.63-.11q-.46-.08-.8-.16l-.63-.14-.6-.14-.64-.15-.7-.17-.72-.18-.76-.2-.77-.19-.75-.18-.72-.19-.7-.17-.7-.17-.74-.19-.78-.2-.82-.2-.85-.2-.9-.23-.94-.23-.97-.24-1.02-.25-1.06-.26-1.1-.27-1.13-.28-1.16-.28-1.17-.28-1.19-.28-1.2-.29-1.2-.28-1.2-.28-1.21-.28L294 323l-1.21-.28-1.2-.27-1.21-.26-1.2-.27-1.2-.25-1.18-.26-1.17-.25-1.15-.24-1.15-.24-1.13-.24-1.1-.22-1.1-.23q-.55-.1-.99-.2l-.75-.15-.63-.12-.65-.13-.68-.14-.7-.14-.73-.14-.74-.15-.75-.15-.75-.16-.76-.15-.77-.16-.77-.16-.78-.16-.78-.17-.78-.16-.74-.17-.72-.17-.69-.16-.65-.17-.63-.17-.6-.16-.72-.21-.9-.29-.87-.3-.72-.3q-.32-.15-.68-.35-.36-.2-.65-.43-.3-.23-.45-.52-.16-.28-.01-.59.15-.3.37-.53.22-.22.55-.45.34-.23.78-.47.44-.25.99-.5-.06-.3-.13-.13-.08.18.28.34.37.15.83.22.46.07.86.1l.9.09 1 .07 1 .06 1.02.05 1.03.04.96.03.75.02.64.02.66.02h.7l.74.02.77.01.8.02h.85q.43.02.88.02l.93.01.96.01 1 .01 1.03.01 1.08.01 1.1.01 1.1.01h1.1l1.1.01 1.11.01h1.11l1.12.01h1.11l1.1.01h1.07l1.03.01h1l.96.01h1.83l.85.01h1.71l.87.01h1.78l.9.01H305l.93.01h2.77l.9.01h3.59l.88.01h6.83l.82.01H362.19l.76-.01h6.44l1.08-.01h5.57l1.13-.01H382.82l1.13-.01h4.51l1.13-.01h4.51l1.12-.01h4.49l1.12-.01H405.3l1.12-.01H409.76l1.1-.01H415.3l1.1-.01h4.4l1.08-.01h4.36l1.08-.01h4.32l1.07-.01h4.28l1.08-.01h2.24l1.25-.01 1.4-.01 1.57-.01 1.75-.01 1.84-.02M448.26 312.6l4.58-.04 4.56-.03 4.49-.04 4.35-.03 4.17-.04 3.95-.04 3.7-.04 3.45-.04 3.17-.04 2.89-.04 2.62-.05 2.38-.05 2.13-.05 1.92-.05 1.73-.05 1.55-.05 1.4-.05 1.22-.05 1.1-.05.98-.05.9-.05.82-.04.76-.05.88-.05 1.1-.06 1.14-.07 1-.07.88-.05.89-.06 1.03-.07 1.01-.06.79-.05.67-.05.7-.05.74-.05.78-.05.8-.05.86-.06.88-.06.91-.06.95-.07.96-.06.93-.07.9-.06.88-.06.86-.06.82-.07.8-.06.78-.06.75-.05.72-.06.7-.06.67-.05.64-.06.77-.06 1.01-.1 1.12-.1 1.13-.11 1.14-.13 1.15-.13 1.16-.13 1.18-.15 1.19-.16 1.2-.16 1.2-.17 1.15-.17 1.13-.18 1.1-.17 1.06-.19 1.03-.19 1-.19.97-.19.92-.2.89-.19.84-.18.79-.18.74-.18.7-.18.66-.17.75-.2.97-.28.98-.29q.46-.13.85-.26l.73-.23.67-.23.68-.25.7-.25.69-.26.74-.3q.39-.15.82-.34.43-.18.9-.4l.99-.44.96-.44.85-.41.74-.37.63-.32.63-.35.76-.45.77-.46.61-.38.53-.33.52-.33.62-.4.78-.5.77-.54.66-.47.6-.46.65-.5.68-.56.72-.6.7-.6.6-.52.5-.47q.24-.21.42-.4l.43-.41.5-.54.61-.64.7-.75.66-.76.5-.59.42-.5.43-.55.45-.56.46-.6.48-.63.48-.65.47-.66.47-.7.47-.7.47-.72.45-.74.46-.75.45-.78.43-.77.41-.74.38-.7.36-.68.33-.65.3-.62.28-.59.31-.7.38-.87.36-.86.3-.7.2-.56.2-.53.2-.63.25-.74.26-.85.28-.94.27-1.03.24-.98.17-.74.13-.62.13-.63.13-.63.11-.62.11-.62.1-.62.12-.77.14-1.07.14-1.15q.07-.55.11-1.04l.09-.92.06-.8.03-.79.03-.86.02-.93v-1.01l-.01-.99-.03-.8-.04-.68-.05-.73-.06-.78-.07-.83-.08-.87-.09-.87-.08-.82-.09-.76-.08-.7-.09-.66-.1-.75-.16-.9-.17-.91-.17-.86-.18-.81-.18-.76q-.08-.36-.19-.73l-.18-.65-.17-.6-.2-.64-.23-.72-.25-.78-.27-.84-.28-.86-.28-.81-.27-.78-.26-.73-.26-.7-.25-.65-.25-.62-.24-.57-.25-.56-.25-.56-.27-.58-.28-.6-.3-.59-.3-.61-.32-.62-.33-.63-.33-.62-.3-.57-.3-.53-.34-.61-.42-.74-.42-.7q-.18-.3-.4-.61l-.36-.54-.34-.5-.4-.55-.42-.6-.48-.66-.52-.7-.52-.71-.48-.64-.43-.58q-.2-.28-.49-.64l-.56-.72-.49-.6-.4-.46-.42-.47-.43-.46-.44-.47-.52-.5-.52-.49-.52-.46-.6-.53-.68-.6-.76-.65-.85-.72-.84-.72-.77-.65-.69-.57-.6-.5-.53-.42-.55-.44-.55-.4-.57-.38-.72-.46-.76-.46-.62-.37-.53-.32-.57-.33-.6-.34-.65-.34-.67-.35-.7-.35-.74-.36-.78-.37-.8-.38-.81-.36-.78-.35-.75-.32-.72-.3-.69-.27-.66-.26-.63-.23-.6-.22-.6-.2-.6-.19-.62-.19-.62-.18q-.31-.1-.63-.18l-.64-.17-.65-.17-.66-.16-.64-.16-.75-.18-.95-.2q-.51-.12-.94-.2-.43-.1-.78-.15l-.78-.13-.94-.12-.94-.12-.74-.08-.64-.07-.64-.07-.74-.07-.95-.09-.95-.07-.81-.04q-.37-.02-.75-.02h-1.29l-.68.02-.76.02-.83.03-.9.03-.9.04-.83.04-.76.04-.7.04-.61.04-.69.05-.77.08-.85.12-.88.14-.72.12-.62.12-.66.12-.7.13-.74.16q-.38.07-.75.16l-.77.18-.78.2-.8.2-.81.23-.83.24-.85.26-.82.25-.76.24-.7.23-.63.21-.58.2-.63.23-.73.27-.77.33-.87.38-.96.45-.92.44-.7.35-.57.3-.59.3-.6.34-.62.34-.63.37-.64.38-.66.4-.65.4-.62.38-.58.37-.55.35-.52.34-.6.4-.74.53-.78.58-.76.59-.74.59-.73.6-.74.64-.8.72-.76.7-.57.55-.47.46-.48.47-.46.46-.44.45-.53.56-.71.75q-.4.43-.75.84l-.7.8-.62.73-.56.67-.49.62-.44.58-.43.57-.4.55-.38.54q-.19.27-.38.58-.2.3-.34.55l-.31.51-.35.6-.4.65-.42.74-.46.8-.46.83-.44.79-.4.75-.38.73q-.19.35-.35.69l-.32.65-.3.62-.26.59-.24.57-.25.58-.23.59-.23.59-.23.6-.22.61-.22.62-.2.62-.21.6-.23.72-.28.9-.27.9q-.12.42-.2.77-.1.34-.18.7l-.17.7-.15.73-.15.75-.15.74-.13.73-.12.72-.1.72q-.06.35-.11.82l-.1.9-.06.76-.05.67-.06.73-.05.79-.05.8-.04.8-.03.8-.01.78-.01.77v1.52l.03.75.03.74.03.74.05.73.05.73.06.73.07.72.08.72.08.72.1.7.09.7.1.67.1.67.1.64.12.63.11.62.12.6.13.61.16.66.17.72.2.76.22.8.25.86.26.91.3.96q.14.49.3.97l.31.97.34.96q.16.48.34.95l.35.95.37.94.39.93.39.92.39.89.37.82.34.76.32.69.3.63.34.7.42.8.42.76.4.7.36.63.34.56.34.52.34.54.37.55.37.55.48.66.55.73.48.61.42.54.48.6.51.63.52.63.47.57.42.52.47.56.54.63.54.6.57.59.52.52.44.43.56.5.65.58.58.48.5.43.58.47.62.5.62.5.57.47.53.42.6.46.7.53.63.44q.26.19.64.42l.75.46.64.38.58.33.63.37.7.39.69.4.65.35.6.33.7.38.85.44.81.39.69.31.63.28.56.25.5.2.63.24.78.27.71.24.65.2.72.24.8.25.82.26.81.24.8.22.79.21.77.2.76.18.75.16.73.15.72.14.72.12.71.12.71.1.7.1.7.09.7.07.7.07.7.05.71.05.73.03.74.02.75.01h1.55l.8-.03.77-.02.71-.03.66-.04.73-.04.86-.06.76-.08.67-.1.71-.11.76-.13.8-.16.81-.16.8-.18.78-.19.76-.2.74-.2.73-.21.7-.23q.36-.1.7-.23l.68-.23.64-.23.6-.23.57-.22.57-.24.6-.26.63-.28.66-.3.67-.33.67-.34.66-.34.66-.36.7-.4.8-.49q.43-.26.79-.5l.6-.38.52-.34.54-.37.59-.42.62-.47.66-.5.7-.57.75-.6.78-.66.83-.7.8-.7.73-.63.66-.58.58-.51.5-.46.52-.5q.3-.27.53-.53.25-.25.55-.6l.58-.66.47-.55.42-.5.44-.54.48-.58.48-.6.44-.55.42-.53.48-.6.58-.78.55-.76.51-.75.56-.84.52-.82.4-.64.32-.54.32-.55.4-.67.52-.93q.3-.53.57-1.05l.46-.9.32-.66.28-.6.3-.68.3-.74.33-.8.35-.88.36-.94.38-1 .37-1.01.34-.96.3-.9.29-.85.25-.8.22-.74.2-.7.15-.63.14-.58.17-.69.18-.86.18-.84.13-.69.1-.7.1-.91.1-.96.08-.77.05-.68.06-.67.06-.8.06-.98.05-.99.01-.8v-.75l-.03-.77-.03-.79-.05-.81-.06-.8-.07-.76-.07-.7-.09-.67q-.04-.32-.12-.75l-.15-.84-.15-.7-.13-.62-.15-.67-.17-.73-.18-.76-.2-.76-.21-.76-.23-.77-.24-.77-.26-.78-.27-.78-.29-.78-.28-.76-.27-.7-.25-.63-.28-.7-.35-.83q-.18-.42-.33-.71l-.29-.58-.34-.68q-.2-.4-.47-.86-.25-.47-.48-.85l-.4-.65-.34-.55-.38-.6-.46-.67-.53-.74q-.28-.4-.6-.82-.3-.43-.6-.8l-.5-.6q-.2-.26-.44-.53l-.47-.54-.51-.58-.55-.6-.58-.62-.57-.61-.53-.55-.46-.49-.51-.53-.58-.57-.54-.5-.67-.57-.74-.6q-.34-.27-.67-.5-.33-.25-.66-.47l-.57-.39-.51-.34-.57-.37-.61-.4-.63-.4-.59-.38-.55-.34-.64-.4-.81-.46q-.43-.25-.79-.43-.36-.2-.73-.38l-.78-.37-.8-.36-.85-.37-.88-.36-.92-.35-.95-.34-.98-.34-.95-.29-.77-.21-.67-.18-.71-.17-.77-.18-.8-.18-.87-.18-.86-.18-.82-.16-.78-.14-.74-.13-.7-.1-.65-.1-.61-.08-.71-.07-.9-.08-.93-.07-.81-.04-.7-.03h-2.08l-.78.03-.85.05-.94.07-1.05.1-1.15.12q-.6.07-1.18.16l-1.17.17-1.14.2-.99.2-.71.16-.62.16-.66.18-.7.2q-.36.1-.74.23l-.78.25-.83.27-.87.3-.84.3-.76.26-.67.25q-.32.1-.73.26l-.77.3-.58.23-.5.24-.73.38-.81.44-.68.38-.61.34-.61.35-.57.32-.53.3-.6.36-.7.44-.65.42-.58.4-.61.45-.65.49-.68.52-.68.56-.56.5-.5.46-.53.51-.59.56-.62.62-.67.67-.66.67-.6.62q-.3.3-.56.59l-.5.54-.46.5-.5.55-.54.67q-.27.34-.56.75-.3.4-.54.76l-.4.6-.35.52-.35.55-.37.58-.37.6-.36.6-.34.6-.34.6-.33.6-.32.61-.31.62-.3.6-.29.6-.32.7-.4.87-.37.85-.29.72-.24.64-.24.66-.22.67-.23.7-.21.69-.2.68-.2.67-.17.67-.17.72q-.1.39-.18.84l-.2.97-.17.95-.12.74-.1.65-.08.69-.08.74-.07.78-.07.83-.06.88-.06.92-.04.92-.04.86-.03.8-.01.75-.01.69v.78l.04.93.07.94.07.89.09.82q.04.4.1.77.04.37.11.78l.16.88.2.96.2.92.16.71.16.61.19.65.2.7.23.72.25.77.28.8.3.85.3.84.3.78.28.73.27.68.25.62.3.7q.18.41.4.85l.4.8.36.7.31.6.26.47.36.56.49.73.45.65.43.6.48.67.54.75.54.75q.27.35.5.68l.47.61q.21.3.41.55l.38.48.4.51q.24.3.46.54l.45.5.44.46.44.45.53.53.73.69.71.64.63.52.67.51.6.45.56.4.62.45.69.5.7.48.67.46.64.43.6.4.57.35.68.4q.39.24.73.42l.6.31.55.26.61.28.67.29.72.3.79.31.85.32.9.34.9.33.84.3.76.26.7.24.64.2.7.21q.4.12.81.2l.78.18.74.16.7.13.65.1q.31.06.64.1l.67.1.7.07.73.07.72.06.7.05.66.04.63.02h1.96l.7-.03.7-.04.69-.04.67-.06.65-.06.64-.08.65-.08.65-.1.65-.1.64-.13.75-.14.96-.22.96-.25.75-.21.63-.19.64-.2.62-.2.6-.22.59-.21.6-.23.62-.26.67-.3.7-.3.69-.33.64-.31.6-.3.55-.3.57-.34.53-.34.5-.34.56-.38.64-.45.7-.5.77-.55.77-.56.71-.52.65-.5.6-.45.52-.42.57-.48q.33-.27.64-.57l.65-.65.72-.75q.38-.4.68-.75l.52-.6.43-.5q.23-.25.43-.5l.49-.57.6-.74.57-.71.44-.6.37-.52.43-.64.48-.74.38-.61.32-.54.33-.58.34-.62.38-.75.4-.82.3-.69.27-.6.28-.66.3-.7.3-.72.26-.66.25-.62.27-.71.32-.87q.16-.45.27-.82l.22-.73.2-.73.19-.74.17-.73.16-.72.13-.67.12-.63.1-.58.08-.62.09-.74.08-.86.08-.98.06-.98.05-.83.03-.69v-.55l-.02-.58q-.01-.35-.05-.8l-.08-.86-.07-.72-.06-.63-.08-.65-.09-.65q-.04-.32-.1-.63l-.1-.64-.12-.62-.13-.62-.14-.61-.19-.75-.26-.98-.29-1q-.13-.45-.26-.83l-.25-.7q-.12-.32-.29-.7l-.36-.8q-.2-.43-.45-.91l-.54-1.04q-.28-.55-.54-1.01l-.48-.86-.42-.71-.44-.67-.53-.73-.48-.62-.42-.5q-.21-.26-.49-.53-.27-.27-.5-.47l-.48-.43-.57-.49-.64-.54-.71-.59-.8-.64q-.41-.33-.84-.65l-.87-.62-.89-.59q-.45-.29-.91-.56l-.94-.53q-.47-.26-.95-.5-.49-.25-.99-.48l-1-.44-.98-.4-.93-.38-.87-.33-.81-.3-.76-.24-.69-.22-.64-.18-.71-.17-.9-.19-.92-.17-.81-.14-.69-.1-.67-.05-.63-.03-.59-.02h-.67l-.74-.01h-1.73q-.48 0-.92.02-.45 0-.87.02l-.81.03-.77.05-.7.05-.66.06-.6.07-.7.1-.85.15-.85.15-.72.14-.72.17-.87.22-.92.26-.85.27-.72.25-.64.22-.69.27-.73.29-.78.33-.83.36-.84.38-.83.4-.8.42-.8.43-.75.43-.68.41-.63.4-.56.37-.56.4-.62.45-.69.52-.74.58q-.4.3-.73.58l-.64.51-.53.45-.54.48q-.3.27-.66.63l-.63.63-.5.52-.5.6-.61.73q-.34.4-.73.9l-.74.94-.66.88-.6.84-.51.78-.45.72-.4.65-.35.59-.35.64q-.2.36-.38.76-.2.4-.32.68l-.25.56-.27.65-.3.81-.29.84-.22.67-.18.58-.18.6-.21.72-.26 1q-.14.55-.25 1.08l-.2 1.05-.15 1.01-.12 1-.1.99-.05.96-.02.96v.97l.04.96.06.97.08.91.1.8.09.71.1.6.13.61q.08.34.2.75l.24.9.31 1.03.35 1.07.36 1 .37.94q.18.45.37.87l.37.79.34.7.31.6.29.5.3.49.35.55.4.6.47.68.48.68.47.64.46.6.45.56.45.54.46.54.48.54.5.53.5.54.54.54.57.54q.28.27.58.53l.59.52.55.47.51.43.48.39.57.43.68.47.58.4.52.36.58.38.63.42.65.42.63.4.62.39.6.36.57.34.56.32.55.3.65.36.93.47.97.48.7.33.58.27.6.27.6.26.64.27.7.3.8.3.85.32.92.34 1 .35 1.06.37 1.13.39 1.17.38q.58.2 1.16.37.57.19 1.15.36l1.13.34 1.13.33 1.12.31 1.11.3 1.1.28 1.1.27 1.12.27 1.12.26 1.13.26 1.15.25 1.15.25 1.17.23 1.17.24 1.16.23 1.13.21 1.09.2 1.05.2 1.01.18.98.17.95.16.9.14.87.13.72.11.64.09.7.1.75.1.81.1.87.12.92.11.98.13 1.03.12 1.1.14 1.14.14 1.05.12.78.1.64.07.65.08.66.08.67.08.67.07.66.08.66.07.65.08.65.07.64.07.64.08.64.06.63.07.62.07.78.09 1.08.1 1.22.13 1.2.13 1.18.11 1.16.11 1.15.11 1.13.1 1.11.1 1.1.1 1.08.09 1.06.09 1.04.08 1.03.08 1.01.08 1 .08.98.07.96.07.95.07.93.07.91.07.9.06.88.06.86.05.84.06.83.05.82.05.8.05.79.05.79.04.77.04.78.05.76.04.76.04.75.04.74.04.74.03.72.04.72.04.72.03.7.03.7.04.7.02.69.04.72.02.73.03.76.03.77.03.8.03.81.03.84.03.85.03.87.02.9.03.9.03.94.03.95.02.97.03 1 .03 1 .02 1.01.03 1.03.02 1.03.03 1.04.02 1.06.02 1.06.03 1.08.02 1.08.02 1.1.02 1.1.01 1.11.02 1.12.02 1.14.01 1.14.02 1.15.01 1.16.02 1.16.01 1.16.01 1.17.01 1.17.01 1.17.01 1.17.01 1.17.01 1.18.01 1.18.01h1.18l1.18.01 1.18.01h1.2l1.18.01h2.38l1.2.01h1.2l1.2.01H685.49l1.22.01h3.62l1.22.01H697.1l.74.01H732.97l.64-.01H749.9l.77-.01H754.02l1.02.01 1.19.01 1.43.02 1.74.02 2.09.04 2.42.04 2.63.05M823.92 272.8l.23-.52.24-.58q.06-.18.3-.76l.48-1.15.53-1.28.6-1.43.56-1.38.54-1.32.52-1.28.48-1.18.5-1.26.53-1.36.43-1.12.35-.9.38-1.03.37-1.01.31-.89.39-1.07q.22-.63.55-1.46l.64-1.63q.32-.78.58-1.36.25-.58.54-1.2.28-.63.61-1.31l.69-1.4.68-1.38.73-1.45.8-1.53.66-1.23.47-.85.5-.79q.31-.46.74-1.04.43-.59.89-1.09.46-.5.95-.91.48-.42.94-.72.45-.3 1.09-.6.63-.3 1.1-.37.46-.07.82 0 .37.06.62.22t.47.41q.22.25.3.4l.13.3q.05.16.1.65.06.5-.01.89-.08.4-.3.8-.2.4-.32.55l-.14.16q-.02.03-.34.22-.32.2-.76.32-.43.12-1.1.23-.65.11-1.27.17-.62.05-1.2.05-.6 0-1.5-.07-.92-.07-2.15-.22l-1.93-.22-.83-.1-.75-.16-1.72-.38-1.86-.42-1.42-.34q-.66-.16-1.51-.42t-1.56-.5q-.7-.24-1.55-.56-.84-.3-1.58-.6l-1.37-.55-1.26-.55-1.26-.58-1.12-.55q-.5-.24-1.04-.54-.54-.3-1-.58-.47-.28-1.18-.86-.7-.58-1.2-1.06-.49-.48-.75-.76l-.38-.42-.12-.16-.21-.45q-.2-.44-.27-.64-.06-.2-.07-.4-.02-.19-.01-.3 0-.1.21-.55.21-.45.38-.63.16-.18.52-.36.35-.18.88-.2.53-.03.77.03.24.07.39.15.15.07.26.16l.26.26q.16.17.26.33l.15.24q.05.08.15.54l.29 1.32q.18.86.28 1.67l.16 1.4.1 1.23.08 1.23.09 1.38.1 1.6q.03.83.03 1.7 0 .9-.07 1.84-.05.94-.14 1.93-.1.98-.23 2.01l-.22 1.85q-.09.81-.13 1.4l-.13 1.45-.16 1.54-.15 1.51-.17 1.56-.13 1.35-.11 1.15-.1 1.16-.11 1.3-.12 1.36-.15 1.41-.14 1.26-.15 1.18-.15 1.19-.17 1.36-.2 1.64q-.1.86-.2 1.46-.08.6-.23 1.48-.15.88-.22 1.2l-.08.38-.08.37-.14.66-.11.56-.1.43q-.03.22-.05.27l-.22 2.37q.05.44.14.71l.13.35q.04.08.13.16.08.08.79.48.71.4 1.25.6l1.1.42q.58.22.94.38l.8.35 1.09.45 1.17.48.95.4q.42.17.81.35l.91.48q.52.29.96.6.44.3 1 .79.56.49.99 1 .43.51.9 1.87-.02.05-.22.23-.2.19-.63.3-.42.13-2 .08l-1.05-.13-1.41-.2q-.8-.1-1.37-.2l-1.12-.16-1.18-.2q-.63-.1-1.4-.25-.77-.15-1.43-.3-.66-.14-1.27-.29l-1.4-.37q-.81-.22-1.62-.4-.8-.17-1.42-.27-.62-.1-1.32-.15-.7-.06-1.33-.07-.63 0-1.45.08-.83.08-1.44.23-.62.14-1.17.36-.55.23-.97.63l.08.15q.06.13.3.36.23.24.66.56.42.32 1.03.7.62.39 1.16.66.54.26 1.16.52.63.25 1.23.43l1.12.33 1.15.31 1.28.35 1.3.34 1.21.32 1.2.3 1.5.4 1.5.42q.62.19 1.2.39.6.2 1.35.48.76.28 1.28.49.53.21.97.44.44.22.77.45t.55.47q.22.23.31.4.1.18.12.4.02.23-.03.37-.06.14-.17.25-.11.1-.64.3-.53.18-1.04.19-.5.01-1.14-.06-.64-.06-1.58-.2-.94-.15-1.87-.32-.93-.16-1.85-.35l-2.49-.49-1.24-.22-1.82-.29-2.07-.3-1.93-.27-1.88-.24q-.82-.1-1.62-.14-.8-.04-1.36.06-.56.09-.76.2-.2.12-.27.24-.07.13-.08.26-.01.13.17.42.19.3.57.58.38.29.76.5.38.2 1.12.53l1.32.58 1.3.53 1.2.48.88.36.94.36 1.12.41q.57.21 1.15.4l1.12.37 1.28.38 1.55.4 1.55.37q.73.18 1.68.44.96.27 1.44.48.48.2.9.57.43.38.48.55.05.17-.05.39-.05.05-.27.14-.22.09-.69.14-.46.06-1.43.04-.97-.03-2.1-.12-1.12-.1-2.02-.2-.9-.09-1.52-.17l-1.28-.16-1.17-.17-1.03-.15-1.21-.2-1.21-.18-.86-.14-.9-.13-1.3-.17-1.3-.16q-.54-.06-1.04-.07-.5-.02-.91.04-.42.06-.55.13-.13.06-.2.13-.07.06-.12.15-.05.1-.04.2 0 .12.07.26.06.15.31.4.25.26.7.55.45.29 1.43.73l2 .9q1.01.47 1.42.78.41.31.56.49.15.17.28.39.12.21.2.41.07.2.1.34l.06.23.03.1.02.12.09.5q.06.4.08.7l.03.61v1.04l-.02.74-.01.8q0 .27.03.44.02.16.15.74.13.57.22.8.1.25.22.47.12.22.51.64l.17.05.33.03q.3.03 1-.06.7-.1 1.9-.41 1.19-.32 1.76-.5l1.14-.35q.56-.16 1-.25.45-.09.67-.1.22-.03.37-.02.14 0 .2.03.05.01.07.04.02.02 0 .06-.17.1-.95.2-.78.08-1.36.1-.57.03-1.2.03h-1.29l-1.3-.02-1.42-.05q-.76-.02-1.61-.07l-1.8-.09-1.74-.06-1.37-.03-1.23-.02-1.36-.02-1.47-.01h-1.5l-1.47-.01h-5.66l-2.08.01-2.2.01h-2.03l-2.05.02h-1.96q-.89 0-1.53.02l-1.33.02q-.69 0-1.42.03l-1.51.04-1.5.04-1.36.03-1.22.03-1.34.03-2.27.03"/>
    <path stroke-width="4.59" d="M832.5 280.89q-.24-1.12-.35-2.87-.12-1.74.42-4.05.53-2.3 1.74-4.5 1.2-2.18 2.38-3.84 1.17-1.67 2.72-3.55 1.56-1.89 3.37-3.7 1.82-1.83 3.93-3.59 2.1-1.76 4.36-3.45 2.25-1.68 5.86-4.16 3.62-2.48 6.74-4.75 3.12-2.26 5.19-4.03 2.07-1.78 4.1-3.84 2.04-2.07 3.78-4.33 1.75-2.27 3.3-5.1 1.54-2.83 2.34-5.32.81-2.48 1.41-5.64.6-3.16.62-6 .02-2.83-.86-6.6-.87-3.79-2.02-6.57-1.15-2.77-2.17-4.66-1.03-1.9-2.31-3.83-1.28-1.94-2.5-3.51-1.23-1.57-2.98-3.36-1.75-1.8-3.5-3.29-1.76-1.49-3.7-2.87-1.96-1.39-3.62-2.44-1.67-1.05-3.73-2.1-2.07-1.06-4.21-1.9-2.15-.86-4.59-1.6-2.44-.75-4.8-1.26-2.35-.5-4.88-.84-2.53-.33-4.5-.4-1.97-.09-4.22-.03t-4.23.23q-1.99.17-4.58.57-2.58.4-6.38 1.33-3.79.93-6.33 1.95-2.53 1.01-4.45 2.02-1.92 1-4.03 2.36-2.1 1.35-3.97 2.91-1.86 1.57-3.68 3.52-1.83 1.95-3.02 3.7-1.19 1.76-2.36 3.96-1.16 2.2-1.97 4.17-.8 1.97-1.5 4.56t-.58 6.85q.12 4.27.88 7.3.77 3.04 1.48 5.1.7 2.04 1.63 4.13.92 2.09 1.92 4.04 1 1.95 2.61 4.68 1.62 2.73 3.65 5.88t3.93 6.38q1.9 3.22 3.4 6.55 1.49 3.33 2.4 6.43.9 3.1 1.25 6.09.35 2.98.18 5.59-.16 2.6-1.21 6.03-1.05 3.44-1.47 4.31"/>
    <path stroke-width=".5" d="M543.85 411.91q-.18 1.3-.34 2.29-.17.98-.32 1.57-.14.58-.26.88-.13.3-.27.7-.15.4-.24 1.75-.1 1.35-.14 2.38-.06 1.04-.1 2.2l-.08 2.34-.06 2.31-.06 2.23-.06 2.1-.05 1.91-.06 2.14-.07 2.52-.13 2.7-.12 2.4-.12 2.07-.12 1.8-.12 1.53-.11 1.32-.13 1.22-.15 1.26-.17 1.2-.19 1.07q-.09.51-.18.88t-.17.62q-.72.8-.99.72l-.1-.06-.09-.08q-.08-.07-.2-.36-.12-.3-.28-.83-.16-.54-.29-1.06-.13-.53-.22-1.06-.09-.52-.17-1.13-.09-.6-.16-1.29-.08-.68-.15-1.52l-.14-1.82q-.07-1-.12-2.02-.06-1.03-.1-2.07l-.06-1.96-.05-1.7-.03-1.56-.03-1.63-.01-1.7-.01-1.74v-1.8-1.86l.02-1.9.02-1.95.02-1.99.04-2.03.03-2.09.04-2.14.05-2.21.04-2.28.05-2.32.04-2.36.04-2.36.03-2.32.02-2.22.01-2.05v-1.83l-.01-1.56q-.01-.71-.04-1.26t-.09-1.13q-.06-.6-.21-.84-.16-.25-.4-.29-.24-.03-.55.06-.32.08-.63.24-.32.15-.76.42-.22.13-.53.35l-.7.51q-.4.3-.78.7-.38.4-.76.87-.37.47-.73.98-.37.5-.72 1.05l-.36.57-.38.62-.38.67-.37.72-.36.7-.34.66-.3.6-.3.54-.29.48-.35.54q-.21.3-.51.62-.3.32-.6.55-.29.23-.69.39-.4.15-.76-.06-.36-.2-.45-.52-.08-.3-.05-.54.04-.25.18-.5.14-.26.29-.47.15-.2.39-.45.24-.25.56-.53.32-.28.54-.5.22-.22.44-.5.22-.26.42-.58.2-.33.38-.72.18-.4.34-.88.17-.48.32-1.04l.3-1.2.33-1.3q.18-.67.37-1.3.2-.62.43-1.18.22-.56.48-1.07.25-.5.52-.97.28-.45.6-.9.3-.46.66-.9.35-.45.73-.9l.8-.9.82-.88.76-.77q.36-.36.7-.67l.78-.7q.45-.38.86-.69l.7-.54.67-.47q.7-.48 1.8-1.04.54-.29 1.08-.54.54-.25 1.07-.46.53-.21 1.1-.4.56-.2 1.16-.36l1.13-.32 1-.25 1-.24 1.07-.24 1.1-.24 1.1-.22q.53-.11 1.07-.2.54-.1 1.08-.17.53-.07.95-.1.41-.04.73-.05.32 0 .63.02l.6.06.57.08.52.1.5.1.5.07q.27.03.5.02.23 0 .46-.04t.42-.1q.2-.05.44-.15.25-.1.47-.24.22-.13.52-.36.3-.23.61-.53.3-.3.65-.7.34-.4.66-.83.33-.44.66-.92.33-.48.6-.92.29-.43.64-1l.69-1.14.38-.66.45-.82.52-1 .55-1.16.54-1.2.5-1.1.46-1q.22-.46.42-.83.2-.38.42-.7.21-.33.43-.6.23-.27.47-.47.23-.2.49-.33.25-.13.49-.2.24-.06.58-.08.33-.01.89.1.56.12 1.1.31.56.2 1.1.35.54.15.85.19.31.03.5.03.34-.02.12-.27-.23-.25-.46-.47l-.53-.53q-.3-.3-.54-.65-.24-.34-.4-.7-.17-.37-.26-.8-.09-.44-.1-.92-.02-.47.02-.9.04-.43.14-.98t.25-1.13q.06-.45.04-.73-.01-.29-.12-.43-.1-.14-.24-.19-.13-.05-.28-.01-.14.04-.27.18-.12.14-.2.32-.09.18-.17.45-.08.28-.15.65l-.17.86-.17.99q-.1.5-.18 1.02l-.18 1-.16.89-.18.87-.19.93-.22.97-.24 1.01q-.25 1.02-.55 2.1-.31 1.05-.64 2.03-.33.99-.67 1.92-.35.92-.7 1.77-.34.85-.69 1.64-.35.8-.68 1.5-.33.7-.65 1.32-.31.63-.62 1.2l-.61 1.07-.57.93-.51.77q-.48.69-.88 1.2-.4.5-.81.94-.4.44-.85.89-.44.45-.81.87-.38.42-.74.92-.35.49-.72 1.08l-.8 1.24q-.4.65-.82 1.27l-.82 1.2-.82 1.24q-.42.64-.83 1.38-.41.74-.74 1.45-.33.7-.57 1.38-.25.67-.45 1.3t-.36 1.2l-.32 1.22q-.16.63-.31 1.33l-.3 1.37-.26 1.32-.26 1.43-.26 1.66q-.14.9-.28 2.02t-.27 2.47q-.13 1.34-.22 2.54t-.14 2.25l-.1 2.04-.05 1.94-.04 1.79-.01 1.57V426.79q0 .86.02 1.66l.02 1.51.03 1.44.04 1.4.03 1.37.04 1.28.04 1.36.06 1.56.07 1.7.07 1.75.06 1.76.07 1.7.06 1.63.06 1.56.04 1.47.03 1.32.02 1.33V454q0 .75-.04 1.38-.04.63-.1 1.15-.08.53-.2.8-.12.29-.28.35-.17.06-.37-.14-.2-.2-.43-.7-.23-.5-.43-1.05-.2-.56-.38-1.2l-.34-1.36q-.17-.71-.32-1.5l-.3-1.49-.29-1.64-.4-2.34-.45-2.98q-.24-1.58-.49-3.37l-.48-3.61q-.24-1.83-.46-3.72l-.4-3.36-.28-2.74-.29-2.81-.3-3.13-.3-3.24-.25-2.97-.2-2.34"/>
    <path stroke-width=".43" d="M551.06 367.65l.07.17.08.18.07.17.07.18.07.18.07.19.07.18.07.2.06.18.06.2.06.18.06.2.06.2.05.19.05.2.05.2.05.19.04.2.04.2.03.19.04.2.02.19.03.2.02.18.01.2.01.18v.55l-.01.18-.02.17-.02.17-.03.17-.04.16-.04.16-.05.16-.05.15-.06.15-.06.15-.07.14-.08.13-.08.13-.09.13-.09.12-.1.12-.1.11-.11.11-.12.1-.12.1-.13.1-.13.09-.13.08-.14.08-.15.07-.15.07-.16.06-.16.06-.17.06-.17.05-.17.04-.18.04-.18.03-.18.03-.2.03-.18.02-.2.01-.2.02h-1l-.2-.01-.21-.02-.2-.01-.21-.02-.2-.03-.2-.02-.21-.03-.2-.03-.2-.03-.2-.04-.2-.03-.2-.04-.19-.05-.2-.04-.18-.04-.19-.05-.19-.05-.18-.05-.18-.06-.18-.05-.17-.06-.18-.06-.17-.06-.17-.07-.17-.06-.16-.07-.16-.07-.16-.08-.16-.07-.15-.08-.15-.08-.15-.08-.15-.08-.14-.09-.14-.09-.14-.09q-.07-.04-.13-.1l-.14-.09-.13-.1-.13-.1-.12-.1-.12-.1-.12-.1-.12-.11-.12-.11-.1-.11-.12-.12-.1-.11-.1-.12-.1-.12-.1-.13-.1-.12-.08-.12-.1-.13-.08-.13-.08-.13-.08-.13-.07-.14-.07-.13-.07-.14-.07-.14-.06-.14-.06-.14-.06-.14-.05-.15-.05-.14-.05-.15-.04-.14-.04-.15-.04-.15-.03-.15-.03-.15-.02-.15-.03-.15-.01-.15-.02-.15-.01-.15-.01-.15v-.16-.15-.15-.15-.15l.02-.16.01-.15.02-.15.02-.15.03-.15.03-.15.03-.15.04-.14q.01-.08.04-.15l.04-.15.04-.14.05-.15.05-.14.06-.14.06-.14.06-.14.07-.14.06-.13.07-.14.08-.13.07-.13.09-.13.08-.13.08-.13.1-.12.08-.12.1-.12.1-.12q.04-.06.1-.11l.1-.12.1-.1.1-.12.12-.1.1-.1.12-.1.12-.1.12-.1.12-.1.12-.08.12-.09.13-.08.13-.08.13-.08.13-.08.13-.07.14-.07.14-.07.13-.06.14-.06.14-.06.15-.05.14-.05.15-.05.14-.04.15-.04.14-.04.15-.04.15-.03.15-.02.15-.03q.08 0 .15-.02.08 0 .15-.02h.15l.16-.02h.15l.15-.01h.3l.16.01.15.01.15.01.15.02.15.02.15.03.16.02.14.04.15.03.15.04.15.04.14.04.15.05.14.05.15.06.14.06.14.06.14.06.14.07.14.07.13.07.14.08.13.08.13.08.13.1.13.08.12.1.13.09.12.1.12.1.12.1.12.11.11.11.12.12.11.11.11.12q.06.06.1.13l.12.12.1.13.1.13.1.13.1.14.1.14.1.14.09.14.1.15.08.15.09.15.09.16.08.15.09.16.08.16.08.17.08.17.08.17z"/>
    <path stroke-width=".25" d="M547.13 368.24l.15-.06.42-.37q.45-.42.94-1.08.5-.66.77-1.08.27-.43.44-.82l.23-.54"/>
    <path stroke-width=".65" d="M546.16 363.43q-.04.39-.02.42.03.02-.02.33t-.36.83q-.31.51-.78.93-.46.42-.94.81-.49.4-.9.76-.4.36-.64.63-.25.27-.44.59-.2.31-.32.64-.12.34-.15.69-.04.35 0 .71.03.37.13.74.1.38.26.8l.37.89.41.97q.21.5.38 1.06.17.55.27 1.16.1.62.12 1.32 0 .7-.1 1.52-.1.81-.33 1.77-.22.96-.5 1.86-.27.9-.54 1.7l-.5 1.43-.4 1.13"/>
    <path stroke-width=".24" d="M874.68 440.23v.36l-.01.12-.01.12-.01.12-.02.12-.01.11-.02.12-.02.12-.03.11-.03.12-.03.12-.03.11-.04.11-.03.12-.04.1-.05.12-.04.11-.05.1-.05.12-.05.1-.06.1-.06.11-.06.1-.06.1-.06.1-.07.1-.07.1-.07.1-.07.1-.08.09-.08.09-.08.08-.08.1-.08.08-.09.08-.08.08-.1.08-.08.08-.1.07-.09.08-.1.07-.1.06-.1.07-.1.07-.1.06-.1.06-.1.05-.1.06-.11.05-.11.05-.11.05-.11.04-.11.05-.11.04-.12.03-.11.04-.12.03-.11.03-.12.03-.11.02-.12.03-.12.01-.12.02q-.06 0-.11.02h-.12l-.12.01-.12.01h-.48l-.12-.01-.11-.01-.12-.01-.12-.02-.12-.02-.12-.02-.11-.02-.12-.03-.11-.03-.12-.03-.11-.03-.12-.04-.1-.04-.12-.04-.11-.04-.11-.05-.1-.05-.12-.05-.1-.06-.1-.05-.11-.06-.1-.06-.1-.06-.1-.07-.1-.07-.1-.07-.1-.07-.09-.07-.09-.08-.09-.08-.09-.08-.08-.08-.09-.09-.08-.08-.08-.09-.08-.09-.07-.1-.08-.08-.07-.1-.07-.1-.07-.1-.06-.1-.06-.1-.06-.1-.06-.1-.06-.1-.05-.11-.05-.11-.05-.1-.05-.12-.04-.11-.04-.11-.04-.11-.04-.12-.03-.11-.03-.12-.03-.11-.03-.12-.02-.11-.02-.12-.02-.12-.02-.12v-.12l-.02-.12v-.12-.11l-.01-.12v-.12-.12-.12l.02-.12.01-.12.01-.12.02-.11.02-.12.02-.12.03-.11.02-.12.04-.12.03-.11.03-.11.04-.12.04-.1.04-.12.05-.11.05-.1.05-.12.05-.1.06-.1.05-.11.06-.1.07-.1.06-.1.07-.1.07-.1.07-.1.07-.1.08-.09.07-.09.08-.08.08-.1.09-.08.08-.08.09-.08.09-.08.09-.08.1-.07.09-.08.1-.07.09-.06.1-.07.1-.07.1-.06.1-.06.1-.05.11-.06.11-.05.1-.05.12-.05.1-.04.12-.05.11-.04.11-.03.12-.04.11-.03.12-.03.11-.03.12-.02.12-.03.12-.01.11-.02.12-.02h.12l.12-.02h.71l.12.02.12.01.12.02.12.02q.06 0 .11.02l.12.02.12.03.11.03.12.03.11.03.11.04.12.04.1.04.12.04.1.05.12.05.1.05.11.05.1.06.1.06.11.06.1.06.1.07.1.07.1.07.1.07.08.07.1.08.08.08.1.08.08.08.08.09.09.08q.03.05.08.09l.07.09.08.1.07.08.07.1.08.1.06.1.07.1.06.1.06.1.06.1.06.1.05.11.05.11.05.1.05.12.04.11.04.11.04.11.04.12.03.11.03.12.03.11.03.12q0 .06.02.11l.02.12.02.12.01.12.02.12v.12l.01.12v.11z"/>
    <path stroke-width=".44" d="M870.43 437.15h0l-.04-.02-.06-.01-.2-.06q-.2-.05-.43-.07-.22-.03-.42-.03-.19 0-.35.03l-.38.06q-.21.05-.47.15-.25.1-.47.22l-.3.2q-.1.07-.14.12l-.09.07-.04.03-.14.14q-.13.13-.24.27l-.24.35q-.14.22-.23.45l-.14.4q-.05.17-.1.45-.03.28-.02.46l.01.27q0 .1.05.33.04.25.1.4l.07.22.07.15.14.28q.1.2.27.41.15.21.39.42.23.21.39.31l.25.16.15.08.09.04.09.04.19.08.24.07.18.05.07.01.05.01.06.01.12.02.1.01h.08l.1.01h.03H869.65l.04-.01h.05l.05-.01.13-.02q.13-.02.3-.07"/>
    <path stroke-width=".24" d="M874.68 440.23v.36l-.01.12-.01.12-.01.12-.02.12-.01.11-.02.12-.02.12-.03.11-.03.12-.03.12-.03.11-.04.11-.03.12-.04.1-.05.12-.04.11-.05.1-.05.12-.05.1-.06.1-.06.11-.06.1-.06.1-.06.1-.07.1-.07.1-.07.1-.07.1-.08.09-.08.09-.08.08-.08.1-.08.08-.09.08-.08.08-.1.08-.08.08-.1.07-.09.08-.1.07-.1.06-.1.07-.1.07-.1.06-.1.06-.1.05-.1.06-.11.05-.11.05-.11.05-.11.04-.11.05-.11.04-.12.03-.11.04-.12.03-.11.03-.12.03-.11.02-.12.03-.12.01-.12.02q-.06 0-.11.02h-.12l-.12.01-.12.01h-.48l-.12-.01-.11-.01-.12-.01-.12-.02-.12-.02-.12-.02-.11-.02-.12-.03-.11-.03-.12-.03-.11-.03-.12-.04-.1-.04-.12-.04-.11-.04-.11-.05-.1-.05-.12-.05-.1-.06-.1-.05-.11-.06-.1-.06-.1-.06-.1-.07-.1-.07-.1-.07-.1-.07-.09-.07-.09-.08-.09-.08-.09-.08-.08-.08-.09-.09-.08-.08-.08-.09-.08-.09-.07-.1-.08-.08-.07-.1-.07-.1-.07-.1-.06-.1-.06-.1-.06-.1-.06-.1-.06-.1-.05-.11-.05-.11-.05-.1-.05-.12-.04-.11-.04-.11-.04-.11-.04-.12-.03-.11-.03-.12-.03-.11-.03-.12-.02-.11-.02-.12-.02-.12-.02-.12v-.12l-.02-.12v-.12-.11l-.01-.12v-.12-.12-.12l.02-.12.01-.12.01-.12.02-.11.02-.12.02-.12.03-.11.02-.12.04-.12.03-.11.03-.11.04-.12.04-.1.04-.12.05-.11.05-.1.05-.12.05-.1.06-.1.05-.11.06-.1.07-.1.06-.1.07-.1.07-.1.07-.1.07-.1.08-.09.07-.09.08-.08.08-.1.09-.08.08-.08.09-.08.09-.08.09-.08.1-.07.09-.08.1-.07.09-.06.1-.07.1-.07.1-.06.1-.06.1-.05.11-.06.11-.05.1-.05.12-.05.1-.04.12-.05.11-.04.11-.03.12-.04.11-.03.12-.03.11-.03.12-.02.12-.03.12-.01.11-.02.12-.02h.12l.12-.02h.71l.12.02.12.01.12.02.12.02q.06 0 .11.02l.12.02.12.03.11.03.12.03.11.03.11.04.12.04.1.04.12.04.1.05.12.05.1.05.11.05.1.06.1.06.11.06.1.06.1.07.1.07.1.07.1.07.08.07.1.08.08.08.1.08.08.08.08.09.09.08q.03.05.08.09l.07.09.08.1.07.08.07.1.08.1.06.1.07.1.06.1.06.1.06.1.06.1.05.11.05.11.05.1.05.12.04.11.04.11.04.11.04.12.03.11.03.12.03.11.03.12q0 .06.02.11l.02.12.02.12.01.12.02.12v.12l.01.12v.11z"/>
    <path stroke-width=".87" d="M870.43 437.15h0l-.04-.02-.06-.01-.2-.06q-.2-.05-.43-.07-.22-.03-.42-.03-.19 0-.35.03l-.38.06q-.21.05-.47.15-.25.1-.47.22l-.3.2q-.1.07-.14.12l-.09.07-.04.03-.14.14q-.13.13-.24.27l-.24.35q-.14.22-.23.45l-.14.4q-.05.17-.1.45-.03.28-.02.46l.01.27q0 .1.05.33.04.25.1.4l.07.22.07.15.14.28q.1.2.27.41.15.21.39.42.23.21.39.31l.25.16.15.08.09.04.09.04.19.08.24.07.18.05.07.01.05.01.06.01.12.02.1.01h.08l.1.01h.03H869.65l.04-.01h.05l.05-.01.13-.02q.13-.02.3-.07"/>
    <path stroke-width=".56" d="M822.79 432.99l-.01.29v2.21l.01.59v1.02l.01.56v.55l.01.53v.55l.01.63.01.65v.64l.02.63v.65l.01.66.01.67v.62l.01.52v1.3l-.03.44q0 .25-.03.37l-.03.17-.02.06-.02.03h-.05q-.04 0-.1-.14-.07-.13-.13-.37l-.1-.44-.06-.39-.04-.33-.03-.2-.02-.25-.04-.4-.02-.37v-.53l.04-.62.04-.34.03-.19.04-.18.1-.3.13-.37.18-.37q.1-.2.22-.37.1-.17.22-.32.12-.16.26-.31l.3-.32.35-.33.35-.3.35-.31.34-.3.3-.3q.14-.13.29-.3.14-.18.28-.42.14-.23.25-.55.11-.33.16-.57.05-.25.07-.44l.03-.45v-.5-.44l-.02-.45v-.46-.49-.53l-.05.26-.08.52-.06.62-.04.67-.02.59-.01.52v1.92l.01.52v.58l.02.61V440.81l.01.45v.47l.01.47v.45l.01.47v.55l.01.58v.58l.01.53v.54l.02.63q.01.34.09.9l.08-.2q.08-.2.14-.47l.11-.5.1-.46.09-.47.1-.49.08-.45.08-.42.07-.38.07-.38.08-.47.1-.48.07-.44.09-.44.09-.48.09-.5.09-.47.09-.49.1-.55.13-.65.14-.74.14-.7.1-.53.12-.5.14-.63.14-.6.12-.46.17-.47q.1-.26.34-.51l.05.12q.05.11.1.32l.07.4.07.44.07.5.08.5.07.5.06.46.06.48.08.51.08.56.08.6.1.58q.03.29.08.55l.08.54.08.58.1.6.08.57.08.55.08.53.07.49.06.5.06.55.05.54.04.5.01.48q0 .27-.03.5-.02.22-.09.4-.06.2-.21.27-.15.08-.38-.05-.24-.12-.44-.3l-.4-.38-.33-.38-.32-.4-.31-.43q-.15-.22-.27-.45-.13-.23-.2-.43-.1-.2-.16-.46-.07-.26-.06-.56.01-.29.07-.48.07-.2.2-.39.12-.2.32-.37.2-.18.49-.34M838.85 442.38l.11-.37.23-.77.25-.86.23-.76.18-.6.13-.44.13-.4.13-.44.12-.4.1-.4.11-.48q.06-.28.1-.57l.02-.5v-.47l-.05-.47q-.03-.22-.11-.5-.07-.27-.16-.46l-.15-.27-.08-.1-.07-.06q-.05-.04-.17-.07-.12-.04-.22-.02-.1 0-.19.04-.09.03-.18.09-.1.05-.24.18-.15.14-.24.27t-.17.29q-.09.16-.15.33t-.12.43q-.06.26-.07.55-.01.28.04.57.05.29.1.47l.13.38.14.34.17.33.25.42.3.43.22.32q.1.11.17.22l.17.23q.1.12.2.28l.24.34.24.37.2.34.17.32.16.34q.1.2.18.44l.14.41.1.38.09.4.07.43.04.46.01.48-.01.46-.06.5q-.03.27-.1.55l-.18.47-.19.36-.18.29-.2.25q-.13.14-.32.29-.19.15-.32.21-.14.07-.25.1l-.23.06-.25.02q-.12 0-.24-.03l-.23-.07-.22-.1q-.11-.07-.23-.18-.12-.1-.25-.26-.13-.15-.23-.32t-.18-.35l-.13-.35-.1-.34-.07-.33-.05-.32-.04-.33-.03-.48-.02-.63.02-.63q.01-.35.04-.65.03-.3.08-.57.05-.28.11-.46.07-.18.17-.37.1-.18.22-.28.12-.1.25-.13.14-.02.26 0 .12 0 .27.07.15.06.32.17l.37.23q.19.14.36.24.17.1.33.17.15.06.27.08.13.02.26 0 .14 0 .25-.05.12-.04.27-.15.15-.12.3-.35.15-.24.26-.5.11-.28.2-.57l.17-.61.14-.66.13-.69q.06-.35.1-.72l.1-.7.08-.6.06-.51.06-.43.05-.4.05-.4q.03-.23.2-.85l.07.4q.06.4.08.75l.05.63.03.62.03.65.03.72q.02.41.02.83l.01.71v1.31l-.01.76-.02.74-.02.65-.02.59-.03.64-.03.73-.03.64-.03.6-.03.61-.03.61-.03.6-.04.58v-.1l-.05-.33-.05-.5-.06-.58-.04-.64-.03-.62v-.65l.01-.73.03-.7.05-.64q.03-.33.07-.53l.07-.33.04-.16.06-.17.16-.34q.1-.22.22-.4.1-.17.22-.3.1-.13.24-.24.14-.11.3-.2.17-.08.35-.12.18-.04.37-.03.2 0 .4.03l.43.09q.21.05.36.06.15.02.27 0 .12-.01.24-.05.13-.04.26-.13t.26-.23q.19-.45.27-.83.09-.39.1-.67l.01-.57-.01-.68-.03-.73-.03-.73-.03-.57-.02-.36-.03-.38v-.28-.08l-.04.1q-.04.1-.1.34l-.1.5-.05.46-.02.43-.01.45V437.14l.01.57v1.92l-.01.68-.01.52V441.74l-.01.5V443.15l-.01.41v.47l-.01.55v.5 1.76q.01.13.07.45l.12-.3q.11-.3.18-.56l.14-.55.12-.51.07-.34.11-.54.1-.48.09-.42.08-.4.08-.42.11-.55.13-.66.14-.69.13-.66.11-.58.18-.97.13-.75.1-.56.07-.38.04-.3.08-.42.1-.64.1-.64.13-.6.16-.69.2-.75.08.12q.06.1.1.25.05.15.12.47l.13.63.1.58.1.6.11.6.1.54.08.47.08.45.09.49.09.47.08.47.09.46.08.44.08.47.1.54.11.55.1.52.1.5.19.94.14.76.1.63q.06.3.1.67.03.37.03.66l-.01.51q-.1.42-.19.63l-.03-.07-.04-.08-.07-.12-.1-.17-.17-.25-.17-.22-.11-.14-.23-.25-.25-.27-.18-.2-.17-.16-.2-.2-.22-.22-.25-.26-.24-.26-.21-.28q-.1-.16-.19-.37-.08-.22-.1-.47-.01-.25.06-.45.07-.2.23-.42.17-.23.36-.4l.32-.3.28-.28.3-.3q.15-.15.3-.33l.3-.36.29-.38.28-.4.28-.42.27-.42.25-.42.23-.41.2-.42.19-.41.16-.42q.12-.42.19-.76t.1-.61q.05-.28.07-.53l.05-.5.03-.46.02-.5.02-.41V433v.19l.02.25v.33q.02.2.02.42l.01.48v.43l.01.3v1.71l-.01.73q0 .38-.02.7 0 .3-.02.52l-.01.44-.03.47-.02.47-.03.47-.04.54-.05.67-.05.7-.05.67q-.03.33-.04.67l-.01.69v.62l.04.47q.02.2.06.38l.11.41q.08.24.15.37l.11.15.14.09.2.08q.1.03.2.03.09.01.3-.02.22-.04.38-.09l.28-.1.27-.1.28-.12.31-.14.33-.15.25-.13.25-.11.28-.12q.14-.05.3-.08.15-.04.29-.02.13.02.21.08.08.07.12.15l.06.2.03.29.03.35"/>
    <path stroke-width=".56" d="M829.28 441.86l.31-.2.52-.27.57-.25.46-.16.4-.15.4-.15.38-.15.35-.15.35-.14.39-.17.4-.17.36-.16.32-.15.3-.17q.17-.09.3-.2.15-.1.28-.23.13-.14.25-.3.12-.18.2-.34.08-.18.16-.43t.12-.5q.04-.26.04-.65 0-.4-.03-.69-.03-.3-.1-.57l-.1-.4-.16-.39q-.12-.25-.27-.5-.17-.24-.34-.43-.18-.2-.28-.27l-.26-.18q-.16-.1-.32-.16-.17-.06-.24-.06-.08 0-.26.04-.18.05-.3.12-.11.07-.22.18-.12.11-.21.26-.1.16-.18.36-.07.2-.13.52l-.08.61-.04.68-.02.76v1.48l.01.69.01.69v1.53l-.03.82q0 .43-.02.8l-.03.8-.02.8v.68l-.02.6-.01.53-.03.5-.03.37-.01.21v.16l.03-.37.02-.64v-.62-.66l.01-.55.02-.5.03-.48.05-.53q.03-.3.1-.7.06-.39.16-.74t.18-.54q.08-.2.16-.33t.3-.28q.2-.16.34-.16.13 0 .28.12.16.1.3.27.12.16.28.44.17.28.27.51l.17.44.15.45.14.52.15.65.16.76.13.71.12.64.14.61q.09.33.23.69.14.36.34.46.2.1.47-.12.16-.29.31-.65.16-.36.3-.8l.3-.89.26-.86.21-.76.2-.68.12-.4"/>
  </g>
</svg>
