<?xml version="1.0" encoding="UTF-8"?>
<!DOCTYPE svg PUBLIC "-//W3C//DTD SVG 1.1//EN" "http://www.w3.org/Graphics/SVG/1.1/DTD/svg11.dtd">
<svg version="1.1" xmlns="http://www.w3.org/2000/svg" xmlns:xlink="http://www.w3.org/1999/xlink" x="0" y="0" width="1920" height="1080" viewBox="0, 0, 1920, 1080">
  <g id="Layer_1">
    <g>
      <path d="M292.092,607.514 L292.092,726.123" fill-opacity="0" stroke="#000000" stroke-width="2.28" stroke-linecap="round"/>
      <path d="M1037.553,719.08 L302.798,719.08 L302.798,612.867" fill-opacity="0" stroke="#000000" stroke-width="2.28" stroke-linecap="round"/>
      <path d="M318.575,612.867 L318.575,708.374" fill-opacity="0" stroke="#000000" stroke-width="0.84" stroke-linecap="round"/>
      <path d="M292.092,726.123 L1026.848,726.123" fill-opacity="0" stroke="#000000" stroke-width="2.28" stroke-linecap="round"/>
      <path d="M0.5,628.644 L292.656,628.644" fill-opacity="0" stroke="#000000" stroke-width="2.04" stroke-linecap="round"/>
      <path d="M302.798,612.867 L326.182,612.867" fill-opacity="0" stroke="#000000" stroke-width="2.28" stroke-linecap="round"/>
      <path d="M292.092,607.514 L309.841,607.514" fill-opacity="0" stroke="#000000" stroke-width="2.28" stroke-linecap="round"/>
      <path d="M460.567,612.867 L467.892,612.867" fill-opacity="0" stroke="#000000" stroke-width="2.28" stroke-linecap="round"/>
      <path d="M467.892,650.055 L467.892,719.08" fill-opacity="0" stroke="#000000" stroke-width="0.84" stroke-linecap="round"/>
      <path d="M599.461,657.099 L599.461,719.08" fill-opacity="0" stroke="#000000" stroke-width="0.84" stroke-linecap="round"/>
      <path d="M602.842,657.099 L602.842,719.08" fill-opacity="0" stroke="#000000" stroke-width="0.84" stroke-linecap="round"/>
      <path d="M606.504,653.436 L606.504,719.08" fill-opacity="0" stroke="#000000" stroke-width="0.84" stroke-linecap="round"/>
      <path d="M326.182,719.08 L326.182,708.374 L303.08,708.374" fill-opacity="0" stroke="#000000" stroke-width="2.04" stroke-linecap="round"/>
      <path d="M467.892,650.055 L467.892,612.867" fill-opacity="0" stroke="#000000" stroke-width="2.28" stroke-linecap="round"/>
      <path d="M477.19,612.867 L595.799,612.867" fill-opacity="0" stroke="#000000" stroke-width="2.28" stroke-linecap="round"/>
      <path d="M477.19,607.514 L606.504,607.514" fill-opacity="0" stroke="#000000" stroke-width="2.28" stroke-linecap="round"/>
      <path d="M609.885,644.703 L609.885,650.055" fill-opacity="0" stroke="#000000" stroke-width="2.28" stroke-linecap="round"/>
      <path d="M477.19,612.867 L477.19,650.055" fill-opacity="0" stroke="#000000" stroke-width="2.28" stroke-linecap="round"/>
      <path d="M606.504,607.514 L606.504,644.703 L609.885,644.703" fill-opacity="0" stroke="#000000" stroke-width="2.28" stroke-linecap="round"/>
      <path d="M602.842,653.436 L606.504,653.436" fill-opacity="0" stroke="#000000" stroke-width="2.28" stroke-linecap="round"/>
      <path d="M599.461,657.099 L602.842,657.099" fill-opacity="0" stroke="#000000" stroke-width="2.28" stroke-linecap="round"/>
      <path d="M606.504,653.436 L606.504,650.055" fill-opacity="0" stroke="#000000" stroke-width="2.28" stroke-linecap="round"/>
      <path d="M602.842,657.099 L602.842,653.436" fill-opacity="0" stroke="#000000" stroke-width="2.28" stroke-linecap="round"/>
      <path d="M599.461,657.099 L599.461,623.573" fill-opacity="0" stroke="#000000" stroke-width="2.28" stroke-linecap="round"/>
      <path d="M606.504,650.055 L609.885,650.055" fill-opacity="0" stroke="#000000" stroke-width="2.28" stroke-linecap="round"/>
      <path d="M452.679,596.808 L477.19,596.808" fill-opacity="0" stroke="#000000" stroke-width="2.28" stroke-linecap="round"/>
      <path d="M548.749,442.701 L548.749,495.948" fill-opacity="0" stroke="#000000" stroke-width="2.04" stroke-linecap="round"/>
      <path d="M556.92,442.701 L556.92,495.948" fill-opacity="0" stroke="#000000" stroke-width="2.04" stroke-linecap="round"/>
      <path d="M477.19,501.301 L548.749,501.301" fill-opacity="0" stroke="#000000" stroke-width="2.28" stroke-linecap="round"/>
      <path d="M469.301,495.948 L556.92,495.948" fill-opacity="0" stroke="#000000" stroke-width="2.28" stroke-linecap="round"/>
      <path d="M548.749,512.007 L556.92,512.007" fill-opacity="0" stroke="#000000" stroke-width="2.28" stroke-linecap="round"/>
      <path d="M556.92,512.007 L556.92,525.248" fill-opacity="0" stroke="#000000" stroke-width="2.04" stroke-linecap="round"/>
      <path d="M548.749,512.007 L548.749,525.248" fill-opacity="0" stroke="#000000" stroke-width="2.04" stroke-linecap="round"/>
      <path d="M548.749,501.301 L548.749,512.007" fill-opacity="0" stroke="#000000" stroke-width="2.28" stroke-linecap="round"/>
      <path d="M556.92,495.948 L556.92,512.007" fill-opacity="0" stroke="#000000" stroke-width="2.28" stroke-linecap="round"/>
      <path d="M477.19,501.301 L477.19,512.007 L469.301,512.007 L469.301,495.948" fill-opacity="0" stroke="#000000" stroke-width="2.28" stroke-linecap="round"/>
      <path d="M548.749,533.137 L556.92,533.137" fill-opacity="0" stroke="#000000" stroke-width="2.28" stroke-linecap="round"/>
      <path d="M548.749,525.248 L556.92,525.248" fill-opacity="0" stroke="#000000" stroke-width="2.28" stroke-linecap="round"/>
      <path d="M548.749,533.137 L548.749,607.514" fill-opacity="0" stroke="#000000" stroke-width="0.84" stroke-linecap="round"/>
      <path d="M556.92,533.137 L556.92,607.514" fill-opacity="0" stroke="#000000" stroke-width="0.84" stroke-linecap="round"/>
      <path d="M556.92,525.248 L556.92,533.137" fill-opacity="0" stroke="#000000" stroke-width="2.28" stroke-linecap="round"/>
      <path d="M548.749,525.248 L548.749,533.137" fill-opacity="0" stroke="#000000" stroke-width="2.28" stroke-linecap="round"/>
      <path d="M977.263,719.08 L977.263,650.055 L973.882,650.055" fill-opacity="0" stroke="#000000" stroke-width="0.84" stroke-linecap="round"/>
      <path d="M977.263,633.997 L977.263,644.702 L973.882,644.702" fill-opacity="0" stroke="#000000" stroke-width="0.84" stroke-linecap="round"/>
      <path d="M987.969,633.997 L987.969,644.702" fill-opacity="0" stroke="#000000" stroke-width="0.84" stroke-linecap="round"/>
      <path d="M995.012,633.997 L977.263,633.997" fill-opacity="0" stroke="#000000" stroke-width="0.84" stroke-linecap="round"/>
      <path d="M973.882,644.703 L973.882,650.055" fill-opacity="0" stroke="#000000" stroke-width="0.84" stroke-linecap="round"/>
      <path d="M1026.848,708.374 L995.012,708.374" fill-opacity="0" stroke="#000000" stroke-width="0.84" stroke-linecap="round"/>
      <path d="M987.969,633.997 L987.969,719.08 L987.969,633.997" fill-opacity="0" stroke="#000000" stroke-width="0.84" stroke-linecap="round"/>
      <path d="M991.631,633.997 L991.631,719.08" fill-opacity="0" stroke="#000000" stroke-width="0.84" stroke-linecap="round"/>
      <path d="M995.012,633.997 L995.012,719.08" fill-opacity="0" stroke="#000000" stroke-width="0.84" stroke-linecap="round"/>
      <path d="M1026.848,644.702 L1026.848,719.08" fill-opacity="0" stroke="#000000" stroke-width="0.84" stroke-linecap="round"/>
      <path d="M1026.848,703.021 L995.012,703.021" fill-opacity="0" stroke="#000000" stroke-width="0.84" stroke-linecap="round"/>
      <path d="M1026.848,697.668 L995.012,697.668" fill-opacity="0" stroke="#000000" stroke-width="0.84" stroke-linecap="round"/>
      <path d="M1026.848,692.597 L995.012,692.597" fill-opacity="0" stroke="#000000" stroke-width="0.84" stroke-linecap="round"/>
      <path d="M1026.848,687.244 L995.012,687.244" fill-opacity="0" stroke="#000000" stroke-width="0.84" stroke-linecap="round"/>
      <path d="M1026.848,681.891 L995.012,681.891" fill-opacity="0" stroke="#000000" stroke-width="0.84" stroke-linecap="round"/>
      <path d="M1026.848,676.538 L995.012,676.538" fill-opacity="0" stroke="#000000" stroke-width="0.84" stroke-linecap="round"/>
      <path d="M1026.848,671.185 L995.012,671.185" fill-opacity="0" stroke="#000000" stroke-width="0.84" stroke-linecap="round"/>
      <path d="M1026.848,665.832 L995.012,665.832" fill-opacity="0" stroke="#000000" stroke-width="0.84" stroke-linecap="round"/>
      <path d="M1026.848,660.761 L995.012,660.761" fill-opacity="0" stroke="#000000" stroke-width="0.84" stroke-linecap="round"/>
      <path d="M1026.848,655.408 L995.012,655.408" fill-opacity="0" stroke="#000000" stroke-width="0.84" stroke-linecap="round"/>
      <path d="M1026.848,650.055 L995.012,650.055" fill-opacity="0" stroke="#000000" stroke-width="0.84" stroke-linecap="round"/>
      <path d="M1026.848,644.703 L995.012,644.703" fill-opacity="0" stroke="#000000" stroke-width="0.84" stroke-linecap="round"/>
      <path d="M1026.848,713.727 L995.012,713.727" fill-opacity="0" stroke="#000000" stroke-width="0.84" stroke-linecap="round"/>
      <path d="M1090.801,745.562 L1090.801,750.915" fill-opacity="0" stroke="#000000" stroke-width="2.28" stroke-linecap="round"/>
      <path d="M1080.095,740.209 L1080.095,745.562" fill-opacity="0" stroke="#000000" stroke-width="2.28" stroke-linecap="round"/>
      <path d="M1069.389,734.857 L1069.389,740.209" fill-opacity="0" stroke="#000000" stroke-width="2.28" stroke-linecap="round"/>
      <path d="M1058.965,729.785 L1058.965,734.857" fill-opacity="0" stroke="#000000" stroke-width="2.28" stroke-linecap="round"/>
      <path d="M1048.259,724.432 L1048.259,729.785" fill-opacity="0" stroke="#000000" stroke-width="2.28" stroke-linecap="round"/>
      <path d="M1035.018,644.702 L1035.018,719.08" fill-opacity="0" stroke="#000000" stroke-width="0.84" stroke-linecap="round"/>
      <path d="M1037.553,724.433 L1048.259,724.433" fill-opacity="0" stroke="#000000" stroke-width="2.28" stroke-linecap="round"/>
      <path d="M1048.259,729.785 L1058.965,729.785" fill-opacity="0" stroke="#000000" stroke-width="2.28" stroke-linecap="round"/>
      <path d="M1058.965,734.857 L1069.389,734.857" fill-opacity="0" stroke="#000000" stroke-width="2.28" stroke-linecap="round"/>
      <path d="M1069.389,740.209 L1080.095,740.209" fill-opacity="0" stroke="#000000" stroke-width="2.28" stroke-linecap="round"/>
      <path d="M1080.095,745.562 L1090.801,745.562" fill-opacity="0" stroke="#000000" stroke-width="2.28" stroke-linecap="round"/>
      <path d="M1090.801,750.915 L1305.48,750.915" fill-opacity="0" stroke="#000000" stroke-width="2.28" stroke-linecap="round"/>
      <path d="M1294.774,757.959 L1090.801,757.959 L1026.848,726.123" fill-opacity="0" stroke="#000000" stroke-width="2.28" stroke-linecap="round"/>
      <path d="M1037.553,724.432 L1037.553,719.08" fill-opacity="0" stroke="#000000" stroke-width="2.28" stroke-linecap="round"/>
      <path d="M1026.848,644.703 L1035.018,644.703 L1035.018,628.644" fill-opacity="0" stroke="#000000" stroke-width="2.28" stroke-linecap="round"/>
      <path d="M1026.848,644.703 L1026.848,628.644" fill-opacity="0" stroke="#000000" stroke-width="2.28" stroke-linecap="round"/>
      <path d="M1115.875,639.35 L1115.875,750.915" fill-opacity="0" stroke="#000000" stroke-width="0.84" stroke-linecap="round"/>
      <path d="M1082.631,639.35 L1082.631,745.562" fill-opacity="0" stroke="#000000" stroke-width="0.84" stroke-linecap="round"/>
      <path d="M1114.184,639.35 L1114.184,750.915" fill-opacity="0" stroke="#000000" stroke-width="0.84" stroke-linecap="round"/>
      <path d="M1111.649,639.35 L1111.649,750.915" fill-opacity="0" stroke="#000000" stroke-width="0.84" stroke-linecap="round"/>
      <path d="M1107.986,639.35 L1107.986,750.915" fill-opacity="0" stroke="#000000" stroke-width="0.84" stroke-linecap="round"/>
      <path d="M1103.479,639.35 L1103.479,750.915" fill-opacity="0" stroke="#000000" stroke-width="0.84" stroke-linecap="round"/>
      <path d="M1098.126,639.35 L1098.126,750.915" fill-opacity="0" stroke="#000000" stroke-width="0.84" stroke-linecap="round"/>
      <path d="M1091.646,639.35 L1091.646,750.915" fill-opacity="0" stroke="#000000" stroke-width="0.84" stroke-linecap="round"/>
      <path d="M1194.196,514.543 L1194.196,596.808" fill-opacity="0" stroke="#000000" stroke-width="0.84" stroke-linecap="round"/>
      <path d="M1305.48,750.915 L1305.48,756.268" fill-opacity="0" stroke="#000000" stroke-width="2.28" stroke-linecap="round"/>
      <path d="M1316.186,756.268 L1316.186,761.621" fill-opacity="0" stroke="#000000" stroke-width="2.28" stroke-linecap="round"/>
      <path d="M1326.61,761.621 L1326.61,766.974" fill-opacity="0" stroke="#000000" stroke-width="2.28" stroke-linecap="round"/>
      <path d="M1348.022,772.045 L1348.022,777.398" fill-opacity="0" stroke="#000000" stroke-width="2.28" stroke-linecap="round"/>
      <path d="M1337.316,766.974 L1337.316,772.045" fill-opacity="0" stroke="#000000" stroke-width="2.28" stroke-linecap="round"/>
      <path d="M1390.563,719.08 L1390.563,750.915" fill-opacity="0" stroke="#000000" stroke-width="0.84" stroke-linecap="round"/>
      <path d="M1305.48,756.268 L1316.186,756.268" fill-opacity="0" stroke="#000000" stroke-width="2.28" stroke-linecap="round"/>
      <path d="M1316.186,761.621 L1326.61,761.621" fill-opacity="0" stroke="#000000" stroke-width="2.28" stroke-linecap="round"/>
      <path d="M1326.61,766.974 L1337.316,766.974" fill-opacity="0" stroke="#000000" stroke-width="2.28" stroke-linecap="round"/>
      <path d="M1337.316,772.045 L1348.021,772.045" fill-opacity="0" stroke="#000000" stroke-width="2.28" stroke-linecap="round"/>
      <path d="M1294.774,757.959 L1358.446,789.794" fill-opacity="0" stroke="#000000" stroke-width="2.28" stroke-linecap="round"/>
      <path d="M1348.021,777.398 L1358.445,777.398" fill-opacity="0" stroke="#000000" stroke-width="2.28" stroke-linecap="round"/>
      <path d="M1358.446,674.003 L1358.446,777.398" fill-opacity="0" stroke="#000000" stroke-width="0.84" stroke-linecap="round"/>
      <path d="M1362.108,674.003 L1362.108,782.751" fill-opacity="0" stroke="#000000" stroke-width="0.84" stroke-linecap="round"/>
      <path d="M1365.771,674.003 L1365.771,782.751" fill-opacity="0" stroke="#000000" stroke-width="0.84" stroke-linecap="round"/>
      <path d="M1369.151,674.003 L1369.151,782.751" fill-opacity="0" stroke="#000000" stroke-width="0.84" stroke-linecap="round"/>
      <path d="M1514.525,674.003 L1514.525,788.104" fill-opacity="0" stroke="#000000" stroke-width="0.84" stroke-linecap="round"/>
      <path d="M1510.862,674.003 L1510.862,788.104" fill-opacity="0" stroke="#000000" stroke-width="0.84" stroke-linecap="round"/>
      <path d="M1507.2,674.003 L1507.2,788.104" fill-opacity="0" stroke="#000000" stroke-width="0.84" stroke-linecap="round"/>
      <path d="M1503.819,674.003 L1503.819,782.751" fill-opacity="0" stroke="#000000" stroke-width="0.84" stroke-linecap="round"/>
      <path d="M1489.732,719.08 L1489.732,750.915" fill-opacity="0" stroke="#000000" stroke-width="0.84" stroke-linecap="round"/>
      <path d="M595.799,612.867 L595.799,623.573 L599.461,623.573" fill-opacity="0" stroke="#000000" stroke-width="2.28" stroke-linecap="round"/>
      <path d="M973.882,644.703 L872.459,644.703" fill-opacity="0" stroke="#000000" stroke-width="0.84" stroke-linecap="round"/>
      <path d="M609.885,650.055 L711.309,650.055" fill-opacity="0" stroke="#000000" stroke-width="0.84" stroke-linecap="round"/>
      <path d="M977.263,633.997 L872.459,633.997" fill-opacity="0" stroke="#000000" stroke-width="0.84" stroke-linecap="round"/>
      <path d="M1358.446,777.398 L1358.446,782.751 L1503.819,782.751" fill-opacity="0" stroke="#000000" stroke-width="2.28" stroke-linecap="round"/>
      <path d="M1358.445,789.794 L1493.113,789.794" fill-opacity="0" stroke="#000000" stroke-width="2.28" stroke-linecap="round"/>
      <path d="M1503.819,788.104 L1514.525,788.104" fill-opacity="0" stroke="#000000" stroke-width="2.28" stroke-linecap="round"/>
      <path d="M1514.525,793.457 L1920.5,793.457" fill-opacity="0" stroke="#000000" stroke-width="2.28" stroke-linecap="round"/>
      <path d="M1503.819,782.751 L1503.819,788.104" fill-opacity="0" stroke="#000000" stroke-width="2.28" stroke-linecap="round"/>
      <path d="M1514.525,788.104 L1514.525,793.457" fill-opacity="0" stroke="#000000" stroke-width="2.28" stroke-linecap="round"/>
      <path d="M1920.5,800.5 L1514.525,800.5 L1493.113,789.794" fill-opacity="0" stroke="#000000" stroke-width="2.28" stroke-linecap="round"/>
      <path d="M467.893,650.055 L477.19,650.055" fill-opacity="0" stroke="#000000" stroke-width="2.28" stroke-linecap="round"/>
      <path d="M477.19,607.514 L477.19,596.808" fill-opacity="0" stroke="#000000" stroke-width="2.28" stroke-linecap="round"/>
      <path d="M1035.018,639.35 L1115.875,639.35 L1344.359,639.35" fill-opacity="0" stroke="#000000" stroke-width="0.84" stroke-linecap="round"/>
      <path d="M1194.196,719.08 L1344.359,719.08" fill-opacity="0" stroke="#000000" stroke-width="0.84" stroke-linecap="round"/>
      <path d="M460.567,612.867 L456.905,606.669 L452.961,600.471 L448.453,594.836 L443.1,589.765 L437.747,585.257 L431.549,581.031 L425.069,577.65 L418.589,574.833 L411.546,572.861 L404.503,571.452 L397.178,570.607 L389.853,570.607 L382.528,571.452 L375.485,572.861 L368.441,574.833 L361.961,577.65 L355.482,581.031 L349.284,585.257 L343.931,589.765 L338.578,594.836 L334.07,600.471 L330.126,606.669 L326.463,612.867" fill-opacity="0" stroke="#000000" stroke-width="2.28" stroke-linecap="round" stroke-linejoin="bevel"/>
      <path d="M452.679,596.808 L447.608,591.455 L442.255,586.102 L436.057,581.595 L429.577,577.65 L422.815,574.551 L415.772,572.016 L408.447,570.044 L401.122,568.917 L393.515,568.635 L385.909,568.917 L378.584,570.044 L371.259,572.016 L364.215,574.551 L357.454,577.65 L350.974,581.595 L344.776,586.102 L339.423,591.455 L334.352,596.808" fill-opacity="0" stroke="#000000" stroke-width="2.28" stroke-linecap="round" stroke-linejoin="bevel"/>
      <path d="M334.07,596.808 L309.841,596.808 L309.841,607.514" fill-opacity="0" stroke="#000000" stroke-width="2.28" stroke-linecap="round"/>
      <path d="M776.107,655.408 L776.107,719.08" fill-opacity="0" stroke="#000000" stroke-width="0.84" stroke-linecap="round"/>
      <path d="M807.942,719.08 L807.942,655.408 L776.107,655.408" fill-opacity="0" stroke="#000000" stroke-width="0.84" stroke-linecap="round"/>
      <path d="M1035.018,596.808 L1355.065,596.808" fill-opacity="0" stroke="#000000" stroke-width="2.04" stroke-linecap="round"/>
      <path d="M1026.848,593.427 L1038.399,593.427" fill-opacity="0" stroke="#000000" stroke-width="2.28" stroke-linecap="round"/>
      <path d="M1035.018,589.765 L1038.399,589.765 L1038.399,593.427" fill-opacity="0" stroke="#000000" stroke-width="2.28" stroke-linecap="round"/>
      <path d="M1035.018,589.765 L1035.018,582.721" fill-opacity="0" stroke="#000000" stroke-width="2.28" stroke-linecap="round"/>
      <path d="M1026.848,628.644 L1035.018,628.644" fill-opacity="0" stroke="#000000" stroke-width="2.28" stroke-linecap="round"/>
      <path d="M1026.848,593.427 L1026.848,582.722" fill-opacity="0" stroke="#000000" stroke-width="2.28" stroke-linecap="round"/>
      <path d="M1035.018,628.644 L1035.018,593.427" fill-opacity="0" stroke="#000000" stroke-width="2.04" stroke-linecap="round"/>
      <path d="M1026.848,628.644 L1026.848,593.427" fill-opacity="0" stroke="#000000" stroke-width="2.04" stroke-linecap="round"/>
      <path d="M1026.848,582.722 L1035.018,582.722" fill-opacity="0" stroke="#000000" stroke-width="2.28" stroke-linecap="round"/>
      <path d="M1035.018,599.625 L1355.065,599.625" fill-opacity="0" stroke="#000000" stroke-width="2.04" stroke-linecap="round"/>
      <path d="M1194.196,639.35 L1194.196,719.08" fill-opacity="0" stroke="#000000" stroke-width="0.84" stroke-linecap="round"/>
      <path d="M1344.359,631.461 L1533.119,631.461" fill-opacity="0" stroke="#000000" stroke-width="2.04" stroke-linecap="round"/>
      <path d="M1344.359,633.997 L1533.119,633.997" fill-opacity="0" stroke="#000000" stroke-width="2.04" stroke-linecap="round"/>
      <path d="M1344.359,633.997 L1344.359,674.003" fill-opacity="0" stroke="#000000" stroke-width="0.84" stroke-linecap="round"/>
      <path d="M1344.359,633.997 L1344.359,631.461" fill-opacity="0" stroke="#000000" stroke-width="2.04" stroke-linecap="round"/>
      <path d="M1355.065,596.808 L1355.065,599.625" fill-opacity="0" stroke="#000000" stroke-width="2.04" stroke-linecap="round"/>
      <path d="M1355.065,599.625 L1355.065,631.461" fill-opacity="0" stroke="#000000" stroke-width="0.84" stroke-linecap="round"/>
      <path d="M1522.413,674.003 L1344.359,674.003 L1344.359,719.08" fill-opacity="0" stroke="#000000" stroke-width="0.84" stroke-linecap="round"/>
      <path d="M1390.563,750.915 L1489.732,750.915" fill-opacity="0" stroke="#000000" stroke-width="0.84" stroke-linecap="round"/>
      <path d="M1390.563,719.08 L1489.732,719.08" fill-opacity="0" stroke="#000000" stroke-width="0.84" stroke-linecap="round"/>
      <path d="M1533.119,633.997 L1533.119,665.832" fill-opacity="0" stroke="#000000" stroke-width="0.84" stroke-linecap="round"/>
      <path d="M1533.119,633.997 L1533.119,631.461" fill-opacity="0" stroke="#000000" stroke-width="2.04" stroke-linecap="round"/>
      <path d="M1522.413,668.65 L1522.413,708.374" fill-opacity="0" stroke="#000000" stroke-width="0.84" stroke-linecap="round"/>
      <path d="M1522.413,668.65 L1522.413,665.832" fill-opacity="0" stroke="#000000" stroke-width="2.04" stroke-linecap="round"/>
      <path d="M1522.413,708.374 L1703.003,708.374" fill-opacity="0" stroke="#000000" stroke-width="0.84" stroke-linecap="round"/>
      <path d="M1522.413,665.832 L1748.08,665.832" fill-opacity="0" stroke="#000000" stroke-width="2.04" stroke-linecap="round"/>
      <path d="M1522.413,668.65 L1748.08,668.65" fill-opacity="0" stroke="#000000" stroke-width="2.04" stroke-linecap="round"/>
      <path d="M1748.08,668.65 L1748.08,708.374" fill-opacity="0" stroke="#000000" stroke-width="0.84" stroke-linecap="round"/>
      <path d="M1748.08,668.65 L1748.08,665.832" fill-opacity="0" stroke="#000000" stroke-width="2.04" stroke-linecap="round"/>
      <path d="M1713.709,686.117 L1713.709,793.457" fill-opacity="0" stroke="#000000" stroke-width="0.84" stroke-linecap="round"/>
      <path d="M1703.003,793.457 L1703.003,686.117 L1713.709,686.117" fill-opacity="0" stroke="#000000" stroke-width="0.84" stroke-linecap="round"/>
      <path d="M1713.709,708.374 L1748.08,708.374" fill-opacity="0" stroke="#000000" stroke-width="0.84" stroke-linecap="round"/>
      <path d="M1026.848,426.924 L987.969,426.924" fill-opacity="0" stroke="#000000" stroke-width="2.28" stroke-linecap="round"/>
      <path d="M1035.018,421.571 L987.969,421.571" fill-opacity="0" stroke="#000000" stroke-width="2.28" stroke-linecap="round"/>
      <path d="M1035.018,442.701 L1026.848,442.701" fill-opacity="0" stroke="#000000" stroke-width="2.28" stroke-linecap="round"/>
      <path d="M1026.848,421.571 L1026.848,410.865" fill-opacity="0" stroke="#000000" stroke-width="2.04" stroke-linecap="round"/>
      <path d="M1035.018,421.571 L1035.018,410.865" fill-opacity="0" stroke="#000000" stroke-width="2.04" stroke-linecap="round"/>
      <path d="M1026.848,426.924 L1026.848,442.701" fill-opacity="0" stroke="#000000" stroke-width="2.28" stroke-linecap="round"/>
      <path d="M1035.018,421.571 L1035.018,442.701" fill-opacity="0" stroke="#000000" stroke-width="2.28" stroke-linecap="round"/>
      <path d="M1035.018,410.865 L1026.848,410.865" fill-opacity="0" stroke="#000000" stroke-width="2.04" stroke-linecap="round"/>
      <path d="M987.969,442.701 L987.969,633.997" fill-opacity="0" stroke="#000000" stroke-width="0.84" stroke-linecap="round"/>
      <path d="M977.263,442.701 L977.263,633.997" fill-opacity="0" stroke="#000000" stroke-width="0.84" stroke-linecap="round"/>
      <path d="M721.733,512.852 L721.733,719.08" fill-opacity="0" stroke="#000000" stroke-width="0.84" stroke-linecap="round"/>
      <path d="M862.035,512.852 L862.035,719.08" fill-opacity="0" stroke="#000000" stroke-width="0.84" stroke-linecap="round"/>
      <path d="M872.459,650.055 L973.882,650.055" fill-opacity="0" stroke="#000000" stroke-width="0.84" stroke-linecap="round"/>
      <path d="M862.035,644.703 L721.733,644.703" fill-opacity="0" stroke="#000000" stroke-width="0.84" stroke-linecap="round"/>
      <path d="M862.035,633.997 L721.733,633.997" fill-opacity="0" stroke="#000000" stroke-width="0.84" stroke-linecap="round"/>
      <path d="M721.733,650.055 L862.035,650.055" fill-opacity="0" stroke="#000000" stroke-width="0.84" stroke-linecap="round"/>
      <path d="M711.309,644.703 L609.885,644.703" fill-opacity="0" stroke="#000000" stroke-width="0.84" stroke-linecap="round"/>
      <path d="M711.308,633.997 L606.504,633.997" fill-opacity="0" stroke="#000000" stroke-width="0.84" stroke-linecap="round"/>
      <path d="M861.753,512.852 L861.471,505.809 L860.344,498.766 L858.654,492.004 L856.118,485.242 L853.019,479.044 L849.357,472.846 L844.849,467.212 L840.06,462.141 L834.707,457.633 L828.79,453.689 L822.592,450.026 L816.113,447.209 L809.351,445.237 L802.589,443.828 L795.546,442.983 L788.221,442.983 L781.178,443.828 L774.416,445.237 L767.655,447.209 L761.175,450.026 L754.977,453.689 L749.06,457.633 L743.708,462.141 L738.918,467.212 L734.41,472.846 L730.748,479.044 L727.649,485.242 L725.113,492.004 L723.423,498.766 L722.296,505.809 L722.014,512.852" fill-opacity="0" stroke="#000000" stroke-width="0.84" stroke-linecap="round" stroke-linejoin="bevel"/>
      <path d="M862.035,512.852 L872.459,512.852" fill-opacity="0" stroke="#000000" stroke-width="0.84" stroke-linecap="round"/>
      <path d="M869.36,512.852 L870.205,506.372 L870.768,500.738 L871.614,495.948 L872.459,492.004 L873.304,488.342 L874.431,485.242 L875.276,482.425 L876.121,479.89 L877.248,477.354 L878.375,475.1 L879.502,472.846 L880.629,470.874 L881.756,468.62 L883.165,466.93 L884.292,464.958 L885.419,463.267 L886.827,461.859 L887.954,460.168 L889.363,458.76 L890.771,457.351 L891.898,456.224 L893.307,455.097 L894.716,453.97 L896.124,452.843 L897.533,451.716 L898.942,450.59 L900.069,449.744 L901.477,448.899 L902.886,448.054 L904.294,447.209 L905.703,446.645 L906.83,446.082 L908.239,445.518 L909.366,444.955 L910.493,444.673 L911.62,444.391 L912.746,444.11 L913.873,443.828 L914.719,443.546 L915.564,443.546 L916.409,443.265 L917.254,443.265 L917.818,443.265 L918.663,442.983 L919.226,442.983 L919.79,442.983 L920.635,442.983 L921.48,442.983 L922.325,442.983 L923.452,442.983 L924.579,443.265 L925.706,443.265 L926.833,443.546 L928.242,443.546 L929.369,443.828 L930.777,444.11 L932.468,444.673 L933.876,444.955 L935.567,445.518 L937.257,446.082 L938.947,446.927 L940.356,447.772 L942.047,448.617 L943.737,449.463 L945.427,450.59 L947.118,451.435 L948.808,452.843 L950.498,453.97 L951.907,455.097 L953.316,456.506 L954.724,457.633 L956.133,459.041 L957.542,460.168 L958.669,461.577 L959.796,462.704 L960.641,464.113 L961.768,465.24 L962.613,466.648 L963.458,467.775 L964.303,469.184 L965.148,470.592 L965.994,472.001 L966.839,473.41 L967.402,474.818 L968.248,476.227 L968.811,477.636 L969.656,479.044 L970.22,480.735 L970.783,482.143 L971.347,483.834 L971.91,485.242 L972.474,486.651 L973.037,488.342 L973.6,489.75 L973.882,491.159 L974.446,492.286 L974.727,493.694 L975.009,494.821 L975.291,496.23 L975.573,497.357 L975.854,498.484 L975.854,499.611 L976.136,500.738 L976.418,502.146 L976.418,503.273 L976.699,504.682 L976.699,505.809 L976.981,507.218 L976.981,508.626 L977.263,510.035 L977.263,511.444 L977.263,512.852" fill-opacity="0" stroke="#000000" stroke-width="0.84" stroke-linecap="round"/>
      <path d="M938.666,446.927 L938.102,446.645 L936.975,446.363 L935.848,445.8 L934.721,445.518 L933.594,445.237 L932.468,444.955 L931.341,444.955 L930.214,444.673 L929.087,444.673 L927.96,444.391 L926.551,444.391 L925.143,444.391 L923.734,444.391 L922.325,444.391 L920.635,444.673 L919.226,444.673 L917.536,444.955 L915.845,445.237 L914.155,445.8 L912.746,446.363 L911.056,446.927 L909.366,447.491 L907.957,448.336 L906.266,449.181 L904.858,450.026 L903.449,450.871 L902.041,451.998 L900.914,452.843 L899.505,453.97 L898.378,455.097 L897.251,455.942 L896.124,457.069 L894.997,458.196 L894.152,459.323 L893.025,460.45 L892.18,461.295 L891.053,462.422 L890.208,463.549 L889.363,464.676 L888.517,466.085 L887.672,467.212 L886.827,468.339 L885.982,469.466 L885.137,470.874 L884.291,472.001 L883.446,473.41 L882.883,474.818 L882.038,476.227 L881.474,477.636 L880.629,479.044 L880.065,480.453 L879.502,481.862 L878.939,483.27 L878.375,484.679 L877.812,486.088 L877.248,487.778 L876.685,489.187 L876.403,490.595 L875.839,491.722 L875.558,493.131 L875.276,494.258 L874.994,495.667 L874.713,496.793 L874.431,497.92 L874.149,499.047 L873.867,500.174 L873.867,501.301 L873.586,502.428 L873.586,503.555 L873.304,504.964 L873.022,506.091 L873.022,507.499 L872.74,508.626 L872.74,510.035 L872.74,511.443 L872.459,512.852 L872.459,719.08" fill-opacity="0" stroke="#000000" stroke-width="0.84" stroke-linecap="round"/>
      <path d="M714.689,512.852 L713.844,506.372 L712.999,500.738 L712.154,495.948 L711.309,492.004 L710.463,488.342 L709.618,485.242 L708.491,482.425 L707.646,479.89 L706.519,477.354 L705.392,475.1 L704.265,472.846 L703.138,470.874 L702.011,468.62 L700.884,466.93 L699.476,464.958 L698.349,463.267 L696.94,461.859 L695.813,460.168 L694.405,458.76 L692.996,457.351 L691.869,456.224 L690.46,455.097 L689.052,453.97 L687.643,452.843 L686.516,451.716 L685.108,450.59 L683.699,449.744 L682.29,448.899 L680.882,448.054 L679.473,447.209 L678.064,446.645 L676.937,446.082 L675.529,445.518 L674.402,444.955 L673.275,444.673 L672.148,444.391 L671.021,444.11 L669.894,443.828 L669.049,443.546 L668.204,443.546 L667.358,443.265 L666.795,443.265 L665.95,443.265 L665.386,442.983 L664.541,442.983 L663.978,442.983 L663.132,442.983 L662.287,442.983 L661.442,442.983 L660.315,442.983 L659.47,443.265 L658.343,443.265 L656.934,443.546 L655.807,443.546 L654.399,443.828 L652.99,444.11 L651.3,444.673 L649.891,444.955 L648.201,445.518 L646.792,446.082 L645.102,446.927 L643.411,447.772 L641.721,448.617 L640.031,449.463 L638.34,450.59 L636.65,451.435 L634.959,452.843 L633.269,453.97 L631.86,455.097 L630.452,456.506 L629.043,457.633 L627.634,459.041 L626.507,460.168 L625.099,461.577 L624.254,462.704 L623.127,464.113 L622,465.24 L621.154,466.648 L620.309,467.775 L619.464,469.184 L618.619,470.592 L617.774,472.001 L617.21,473.41 L616.365,474.818 L615.52,476.227 L614.956,477.636 L614.111,479.044 L613.548,480.735 L612.984,482.143 L612.421,483.834 L611.857,485.242 L611.294,486.651 L610.73,488.342 L610.167,489.75 L609.885,491.159 L609.604,492.286 L609.04,493.694 L608.758,494.821 L608.477,496.23 L608.195,497.357 L608.195,498.484 L607.913,499.611 L607.631,500.738 L607.35,502.146 L607.35,503.273 L607.068,504.682 L607.068,505.809 L606.786,507.218 L606.786,508.626 L606.504,510.035 L606.504,511.444 L606.504,512.852" fill-opacity="0" stroke="#000000" stroke-width="0.84" stroke-linecap="round"/>
      <path d="M645.102,446.927 L645.665,446.645 L646.792,446.363 L647.919,445.8 L649.046,445.518 L650.173,445.237 L651.3,444.955 L652.427,444.955 L653.554,444.673 L654.68,444.673 L656.089,444.391 L657.216,444.391 L658.625,444.391 L660.033,444.391 L661.442,444.391 L663.132,444.673 L664.541,444.673 L666.231,444.955 L667.922,445.237 L669.612,445.8 L671.021,446.363 L672.711,446.927 L674.402,447.491 L675.81,448.336 L677.501,449.181 L678.909,450.026 L680.318,450.871 L681.727,451.998 L683.135,452.843 L684.262,453.97 L685.389,455.097 L686.516,455.942 L687.643,457.069 L688.77,458.196 L689.897,459.323 L690.742,460.45 L691.587,461.295 L692.714,462.422 L693.559,463.549 L694.405,464.676 L695.25,466.085 L696.095,467.212 L696.94,468.339 L697.785,469.466 L698.631,470.874 L699.476,472.001 L700.321,473.41 L700.884,474.818 L701.73,476.227 L702.293,477.636 L703.138,479.044 L703.702,480.453 L704.265,481.862 L704.829,483.27 L705.392,484.679 L705.956,486.088 L706.519,487.778 L707.083,489.187 L707.364,490.595 L707.928,491.722 L708.209,493.131 L708.491,494.258 L708.773,495.667 L709.055,496.793 L709.336,497.92 L709.618,499.047 L709.9,500.174 L709.9,501.301 L710.182,502.428 L710.463,503.555 L710.463,504.964 L710.745,506.091 L710.745,507.499 L711.027,508.626 L711.027,510.035 L711.027,511.443 L711.308,512.852 L711.308,719.08" fill-opacity="0" stroke="#000000" stroke-width="0.84" stroke-linecap="round"/>
      <path d="M721.733,512.852 L711.309,512.852" fill-opacity="0" stroke="#000000" stroke-width="0.84" stroke-linecap="round"/>
      <path d="M548.749,421.571 L548.749,410.865" fill-opacity="0" stroke="#000000" stroke-width="2.04" stroke-linecap="round"/>
      <path d="M556.92,421.571 L556.92,410.865" fill-opacity="0" stroke="#000000" stroke-width="2.04" stroke-linecap="round"/>
      <path d="M548.749,421.571 L595.799,421.571" fill-opacity="0" stroke="#000000" stroke-width="2.28" stroke-linecap="round"/>
      <path d="M556.92,426.924 L595.799,426.924" fill-opacity="0" stroke="#000000" stroke-width="2.28" stroke-linecap="round"/>
      <path d="M548.749,421.571 L548.749,442.701" fill-opacity="0" stroke="#000000" stroke-width="2.28" stroke-linecap="round"/>
      <path d="M556.92,426.924 L556.92,442.701 L548.749,442.701" fill-opacity="0" stroke="#000000" stroke-width="2.28" stroke-linecap="round"/>
      <path d="M548.749,410.865 L556.92,410.865" fill-opacity="0" stroke="#000000" stroke-width="2.04" stroke-linecap="round"/>
      <path d="M606.504,442.701 L606.504,607.514" fill-opacity="0" stroke="#000000" stroke-width="0.84" stroke-linecap="round"/>
      <path d="M595.799,442.701 L595.799,607.514" fill-opacity="0" stroke="#000000" stroke-width="0.84" stroke-linecap="round"/>
      <path d="M977.263,426.924 L606.504,426.924" fill-opacity="0" stroke="#000000" stroke-width="0.84" stroke-linecap="round"/>
      <path d="M1035.018,582.722 L1035.018,442.701" fill-opacity="0" stroke="#000000" stroke-width="2.04" stroke-linecap="round"/>
      <path d="M1026.848,582.722 L1026.848,442.701" fill-opacity="0" stroke="#000000" stroke-width="2.04" stroke-linecap="round"/>
      <path d="M1194.196,514.543 L1035.018,514.543" fill-opacity="0" stroke="#000000" stroke-width="0.84" stroke-linecap="round"/>
      <path d="M1035.018,633.997 L1344.359,633.997" fill-opacity="0" stroke="#000000" stroke-width="0.84" stroke-linecap="round"/>
      <path d="M1035.018,628.644 L1355.065,628.644" fill-opacity="0" stroke="#000000" stroke-width="0.84" stroke-linecap="round"/>
      <path d="M1035.018,623.573 L1355.065,623.573" fill-opacity="0" stroke="#000000" stroke-width="0.84" stroke-linecap="round"/>
      <path d="M1035.018,618.22 L1355.065,618.22" fill-opacity="0" stroke="#000000" stroke-width="0.84" stroke-linecap="round"/>
      <path d="M1035.018,612.867 L1355.065,612.867" fill-opacity="0" stroke="#000000" stroke-width="0.84" stroke-linecap="round"/>
      <path d="M1035.018,607.514 L1355.065,607.514" fill-opacity="0" stroke="#000000" stroke-width="0.84" stroke-linecap="round"/>
      <path d="M1035.018,602.161 L1355.065,602.161" fill-opacity="0" stroke="#000000" stroke-width="0.84" stroke-linecap="round"/>
      <path d="M1344.359,668.65 L1522.413,668.65" fill-opacity="0" stroke="#000000" stroke-width="0.84" stroke-linecap="round"/>
      <path d="M1344.359,663.297 L1533.119,663.297" fill-opacity="0" stroke="#000000" stroke-width="0.84" stroke-linecap="round"/>
      <path d="M1344.359,657.944 L1533.119,657.944" fill-opacity="0" stroke="#000000" stroke-width="0.84" stroke-linecap="round"/>
      <path d="M1344.359,652.591 L1533.119,652.591" fill-opacity="0" stroke="#000000" stroke-width="0.84" stroke-linecap="round"/>
      <path d="M1344.359,647.238 L1533.119,647.238" fill-opacity="0" stroke="#000000" stroke-width="0.84" stroke-linecap="round"/>
      <path d="M1344.359,642.167 L1533.119,642.167" fill-opacity="0" stroke="#000000" stroke-width="0.84" stroke-linecap="round"/>
      <path d="M1344.359,636.814 L1533.119,636.814" fill-opacity="0" stroke="#000000" stroke-width="0.84" stroke-linecap="round"/>
      <path d="M1522.413,703.021 L1703.003,703.021" fill-opacity="0" stroke="#000000" stroke-width="0.84" stroke-linecap="round"/>
      <path d="M1522.413,697.668 L1703.003,697.668" fill-opacity="0" stroke="#000000" stroke-width="0.84" stroke-linecap="round"/>
      <path d="M1713.709,703.021 L1748.08,703.021" fill-opacity="0" stroke="#000000" stroke-width="0.84" stroke-linecap="round"/>
      <path d="M1713.709,697.668 L1748.08,697.668" fill-opacity="0" stroke="#000000" stroke-width="0.84" stroke-linecap="round"/>
      <path d="M1713.709,692.597 L1748.08,692.597" fill-opacity="0" stroke="#000000" stroke-width="0.84" stroke-linecap="round"/>
      <path d="M1713.709,687.244 L1748.08,687.244" fill-opacity="0" stroke="#000000" stroke-width="0.84" stroke-linecap="round"/>
      <path d="M1522.413,692.597 L1703.003,692.597" fill-opacity="0" stroke="#000000" stroke-width="0.84" stroke-linecap="round"/>
      <path d="M1522.413,687.244 L1703.003,687.244" fill-opacity="0" stroke="#000000" stroke-width="0.84" stroke-linecap="round"/>
      <path d="M1522.413,681.891 L1748.08,681.891" fill-opacity="0" stroke="#000000" stroke-width="0.84" stroke-linecap="round"/>
      <path d="M1522.413,676.538 L1748.08,676.538" fill-opacity="0" stroke="#000000" stroke-width="0.84" stroke-linecap="round"/>
      <path d="M1522.413,671.185 L1748.08,671.185" fill-opacity="0" stroke="#000000" stroke-width="0.84" stroke-linecap="round"/>
      <path d="M477.19,512.007 L477.19,596.808" fill-opacity="0" stroke="#000000" stroke-width="0.84" stroke-linecap="round"/>
      <path d="M469.301,512.007 L469.301,596.808" fill-opacity="0" stroke="#000000" stroke-width="0.84" stroke-linecap="round"/>
      <path d="M477.19,495.948 L477.19,479.89" fill-opacity="0" stroke="#000000" stroke-width="2.04" stroke-linecap="round"/>
      <path d="M469.301,495.948 L469.301,479.89 L477.19,479.89" fill-opacity="0" stroke="#000000" stroke-width="2.04" stroke-linecap="round"/>
      <path d="M477.19,479.89 L548.749,479.89" fill-opacity="0" stroke="#000000" stroke-width="0.84" stroke-linecap="round"/>
      <path d="M469.301,479.89 L0.5,479.89" fill-opacity="0" stroke="#000000" stroke-width="0.84" stroke-linecap="round"/>
      <path d="M292.092,618.22 L0.5,618.22" fill-opacity="0" stroke="#000000" stroke-width="0.84" stroke-linecap="round"/>
      <path d="M147.282,479.89 L147.282,355.083 L0.5,355.083" fill-opacity="0" stroke="#000000" stroke-width="0.84" stroke-linecap="round"/>
      <path d="M546.214,544.97 L546.214,607.514" fill-opacity="0" stroke="#000000" stroke-width="0.84" stroke-linecap="round"/>
      <path d="M479.725,544.97 L479.725,607.514" fill-opacity="0" stroke="#000000" stroke-width="0.84" stroke-linecap="round"/>
      <path d="M545.932,544.97 L545.65,540.18 L544.523,535.391 L542.551,530.601 L540.297,526.375 L537.198,522.431 L533.536,519.332 L529.31,516.515 L525.084,514.261 L520.295,512.852 L515.505,512.007 L510.434,512.007 L505.645,512.852 L500.855,514.261 L496.347,516.515 L492.403,519.332 L488.741,522.431 L485.642,526.375 L483.388,530.601 L481.416,535.391 L480.289,540.18 L480.007,544.97" fill-opacity="0" stroke="#000000" stroke-width="0.84" stroke-linecap="round" stroke-linejoin="bevel"/>
      <path d="M619.746,408.33 L964.022,408.33" fill-opacity="0" stroke="#000000" stroke-width="0.84" stroke-linecap="round"/>
      <path d="M952.471,395.088 L631.579,395.088" fill-opacity="0" stroke="#000000" stroke-width="0.84" stroke-linecap="round"/>
      <path d="M645.102,381.847 L938.666,381.847" fill-opacity="0" stroke="#000000" stroke-width="0.84" stroke-linecap="round"/>
      <path d="M922.044,368.324 L661.724,368.324" fill-opacity="0" stroke="#000000" stroke-width="0.84" stroke-linecap="round"/>
      <path d="M682.008,355.083 L901.759,355.083" fill-opacity="0" stroke="#000000" stroke-width="0.84" stroke-linecap="round"/>
      <path d="M977.263,408.33 L964.022,408.33 L964.022,395.088 L952.471,395.088 L952.471,381.847 L938.666,381.847 L938.666,368.324 L922.044,368.324 L922.044,355.083 L901.759,355.083 L901.759,341.841 L874.431,341.841 L874.431,328.6 L825.973,328.6 L825.973,314.513" fill-opacity="0" stroke="#000000" stroke-width="2.28" stroke-linecap="round"/>
      <path d="M912.465,338.46 L884.855,338.46" fill-opacity="0" stroke="#000000" stroke-width="2.28" stroke-linecap="round"/>
      <path d="M609.322,396.779 L609.322,391.426" fill-opacity="0" stroke="#000000" stroke-width="2.28" stroke-linecap="round"/>
      <path d="M606.504,408.33 L619.746,408.33 L619.746,395.088 L631.578,395.088 L631.578,381.847 L645.102,381.847 L645.102,368.324 L661.724,368.324 L661.724,355.083 L682.008,355.083 L682.008,341.841 L709.618,341.841 L709.618,328.6 L757.794,328.6 L757.794,314.513" fill-opacity="0" stroke="#000000" stroke-width="2.28" stroke-linecap="round"/>
      <path d="M606.504,442.701 L606.504,408.33" fill-opacity="0" stroke="#000000" stroke-width="2.28" stroke-linecap="round"/>
      <path d="M595.799,421.571 L595.799,404.667" fill-opacity="0" stroke="#000000" stroke-width="2.28" stroke-linecap="round"/>
      <path d="M595.799,426.924 L595.799,442.701 L606.504,442.701" fill-opacity="0" stroke="#000000" stroke-width="2.28" stroke-linecap="round"/>
      <path d="M595.799,404.667 L601.151,404.667" fill-opacity="0" stroke="#000000" stroke-width="2.28" stroke-linecap="round"/>
      <path d="M601.151,404.667 L603.687,404.386 L605.659,403.259 L607.631,401.287 L608.758,399.314 L609.04,396.779" fill-opacity="0" stroke="#000000" stroke-width="2.28" stroke-linecap="round" stroke-linejoin="bevel"/>
      <path d="M691.024,338.179 L693.559,337.897 L695.531,336.77 L697.504,334.798 L698.63,332.826 L698.912,330.29" fill-opacity="0" stroke="#000000" stroke-width="2.28" stroke-linecap="round" stroke-linejoin="bevel"/>
      <path d="M663.414,351.42 L665.95,351.138 L667.922,350.011 L669.894,348.039 L671.021,346.067 L671.303,343.532" fill-opacity="0" stroke="#000000" stroke-width="2.28" stroke-linecap="round" stroke-linejoin="bevel"/>
      <path d="M626.507,378.185 L629.043,377.903 L631.015,376.776 L632.987,374.804 L634.114,372.832 L634.396,370.296" fill-opacity="0" stroke="#000000" stroke-width="2.28" stroke-linecap="round" stroke-linejoin="bevel"/>
      <path d="M612.984,391.426 L615.52,391.144 L617.492,390.017 L619.464,388.045 L620.591,386.073 L620.873,383.537" fill-opacity="0" stroke="#000000" stroke-width="2.28" stroke-linecap="round" stroke-linejoin="bevel"/>
      <path d="M609.322,391.426 L612.984,391.426" fill-opacity="0" stroke="#000000" stroke-width="2.28" stroke-linecap="round"/>
      <path d="M626.507,378.185 L620.873,378.185 L620.873,383.537" fill-opacity="0" stroke="#000000" stroke-width="2.28" stroke-linecap="round"/>
      <path d="M643.129,364.943 L645.665,364.661 L647.637,363.534 L649.609,361.562 L650.736,359.59 L651.018,357.055" fill-opacity="0" stroke="#000000" stroke-width="2.28" stroke-linecap="round" stroke-linejoin="bevel"/>
      <path d="M643.129,364.943 L634.678,364.943 L634.678,370.296" fill-opacity="0" stroke="#000000" stroke-width="2.28" stroke-linecap="round"/>
      <path d="M663.414,351.702 L651.018,351.702 L651.018,357.055" fill-opacity="0" stroke="#000000" stroke-width="2.28" stroke-linecap="round"/>
      <path d="M691.024,338.46 L671.584,338.46 L671.584,343.532" fill-opacity="0" stroke="#000000" stroke-width="2.28" stroke-linecap="round"/>
      <path d="M747.088,309.16 L836.679,309.16" fill-opacity="0" stroke="#000000" stroke-width="0.84" stroke-linecap="round"/>
      <path d="M757.794,314.513 L825.973,314.513" fill-opacity="0" stroke="#000000" stroke-width="0.84" stroke-linecap="round"/>
      <path d="M757.794,328.6 L825.973,328.6" fill-opacity="0" stroke="#000000" stroke-width="0.84" stroke-linecap="round"/>
      <path d="M709.618,341.841 L874.431,341.841" fill-opacity="0" stroke="#000000" stroke-width="0.84" stroke-linecap="round"/>
      <path d="M836.679,309.16 L824.001,306.625 L811.323,304.653 L798.363,303.807 L785.404,303.807 L772.444,304.653 L759.766,306.625 L747.088,309.16" fill-opacity="0" stroke="#000000" stroke-width="2.28" stroke-linecap="round" stroke-linejoin="bevel"/>
      <path d="M836.961,307.47 L824.283,304.934 L811.323,303.244 L798.363,302.117 L785.404,302.117 L772.444,303.244 L759.485,304.934 L746.807,307.47" fill-opacity="0" stroke="#000000" stroke-width="2.28" stroke-linecap="round" stroke-linejoin="bevel"/>
      <path d="M739.2,324.937 L741.735,324.656 L743.708,323.529 L745.68,321.557 L746.807,319.584 L747.088,317.049" fill-opacity="0" stroke="#000000" stroke-width="2.28" stroke-linecap="round" stroke-linejoin="bevel"/>
      <path d="M739.2,324.937 L698.912,324.937 L698.912,330.29" fill-opacity="0" stroke="#000000" stroke-width="2.28" stroke-linecap="round"/>
      <path d="M746.807,307.47 L747.088,309.16" fill-opacity="0" stroke="#000000" stroke-width="2.28" stroke-linecap="round"/>
      <path d="M747.088,317.049 L747.088,314.513 L757.794,314.513" fill-opacity="0" stroke="#000000" stroke-width="2.28" stroke-linecap="round"/>
      <path d="M836.679,314.513 L836.679,324.937 L884.855,324.937 L884.855,338.46" fill-opacity="0" stroke="#000000" stroke-width="2.28" stroke-linecap="round"/>
      <path d="M836.679,309.16 L836.961,307.47" fill-opacity="0" stroke="#000000" stroke-width="2.28" stroke-linecap="round"/>
      <path d="M836.679,314.513 L825.973,314.513" fill-opacity="0" stroke="#000000" stroke-width="2.28" stroke-linecap="round"/>
      <path d="M974.446,404.667 L974.446,391.426" fill-opacity="0" stroke="#000000" stroke-width="2.28" stroke-linecap="round"/>
      <path d="M987.969,421.571 L987.969,404.667" fill-opacity="0" stroke="#000000" stroke-width="2.28" stroke-linecap="round"/>
      <path d="M977.263,442.701 L977.263,408.33" fill-opacity="0" stroke="#000000" stroke-width="2.28" stroke-linecap="round"/>
      <path d="M987.969,426.924 L987.969,442.701 L977.263,442.701" fill-opacity="0" stroke="#000000" stroke-width="2.28" stroke-linecap="round"/>
      <path d="M987.969,404.667 L974.446,404.667" fill-opacity="0" stroke="#000000" stroke-width="2.28" stroke-linecap="round"/>
      <path d="M912.465,351.702 L912.465,338.46" fill-opacity="0" stroke="#000000" stroke-width="2.28" stroke-linecap="round"/>
      <path d="M949.372,378.185 L949.372,364.943" fill-opacity="0" stroke="#000000" stroke-width="2.28" stroke-linecap="round"/>
      <path d="M962.895,378.185 L962.895,391.426 L974.446,391.426" fill-opacity="0" stroke="#000000" stroke-width="2.28" stroke-linecap="round"/>
      <path d="M962.895,378.185 L949.371,378.185" fill-opacity="0" stroke="#000000" stroke-width="2.28" stroke-linecap="round"/>
      <path d="M949.371,364.943 L932.749,364.943 L932.749,351.702 L912.465,351.702" fill-opacity="0" stroke="#000000" stroke-width="2.28" stroke-linecap="round"/>
    </g>
    <g id="Logo_Geometry">
      <path d="M1850,96.599 L1850,120 L1826.599,120 L1826.599,116.888 L1846.875,116.875 L1846.904,96.599 L1850,96.599 z" fill="#C69F73"/>
      <path d="M1803.168,96.599 L1803.125,116.875 L1823.47,116.871 L1823.47,120 L1800,120 L1800,96.599 L1803.168,96.599 z" fill="#C69F73"/>
      <path d="M1843.75,96.599 L1843.75,113.75 L1826.599,113.75 L1826.599,110.635 L1840.625,110.625 L1840.635,96.599 L1843.75,96.599 z" fill="#C69F73"/>
      <path d="M1809.371,96.599 L1809.375,110.625 L1823.47,110.635 L1823.47,113.75 L1806.25,113.75 L1806.25,96.599 L1809.371,96.599 z" fill="#C69F73"/>
      <path d="M1823.47,70 L1823.47,73.085 L1803.125,73.125 L1803.135,93.47 L1800,93.47 L1800,70 L1823.47,70 z" fill="#C69F73"/>
      <path d="M1823.47,76.25 L1823.47,79.371 L1809.375,79.375 L1809.371,93.47 L1806.25,93.47 L1806.25,76.25 L1823.47,76.25 z" fill="#C69F73"/>
      <path d="M1843.75,76.25 L1843.75,93.47 L1840.635,93.47 L1840.625,79.375 L1826.599,79.404 L1826.599,76.25 L1843.75,76.25" fill="#C69F73"/>
      <path d="M1850,70 L1850,93.47 L1846.854,93.47 L1846.875,73.125 L1826.599,73.133 L1826.599,70 L1850,70 z" fill="#C69F73"/>
      <path d="M1821.875,82.452 L1821.875,85.577 L1815.625,85.577 L1815.625,104.327 L1834.375,104.327 L1834.375,85.577 L1828.125,85.577 L1828.125,82.452 L1837.5,82.452 L1837.5,107.452 L1812.5,107.452 L1812.5,82.452 L1821.875,82.452 z" fill="#C69F73"/>
      <path d="M1826.279,88.813 L1832.421,101.09 L1829.56,101.09 L1825,91.974 L1820.44,101.09 L1817.579,101.09 L1823.721,88.813 L1826.279,88.813 z" fill="#C69F73"/>
    </g>
  </g>
</svg>
