<?xml version="1.0" encoding="UTF-8"?>
<!DOCTYPE svg PUBLIC "-//W3C//DTD SVG 1.1//EN" "http://www.w3.org/Graphics/SVG/1.1/DTD/svg11.dtd">
<svg version="1.1" xmlns="http://www.w3.org/2000/svg" xmlns:xlink="http://www.w3.org/1999/xlink" x="0" y="0" width="36" height="36" viewBox="0, 0, 36, 36">
  <g id="Layer_1">
    <g id="Logo_Geometry">
      <path d="M36,19.151 L36,36 L19.151,36 L19.151,33.759 L33.75,33.75 L33.771,19.151 L36,19.151 z" fill="#C69F73"/>
      <path d="M2.281,19.151 L2.25,33.75 L16.898,33.747 L16.898,36 L0,36 L0,19.151 L2.281,19.151 z" fill="#C69F73"/>
      <path d="M31.5,19.151 L31.5,31.5 L19.151,31.5 L19.151,29.257 L29.25,29.25 L29.257,19.151 L31.5,19.151 z" fill="#C69F73"/>
      <path d="M6.747,19.151 L6.75,29.25 L16.898,29.257 L16.898,31.5 L4.5,31.5 L4.5,19.151 L6.747,19.151 z" fill="#C69F73"/>
      <path d="M16.898,-0 L16.898,2.221 L2.25,2.25 L2.257,16.898 L0,16.898 L0,-0 L16.898,-0 z" fill="#C69F73"/>
      <path d="M16.898,4.5 L16.898,6.747 L6.75,6.75 L6.747,16.898 L4.5,16.898 L4.5,4.5 L16.898,4.5 z" fill="#C69F73"/>
      <path d="M31.5,4.5 L31.5,16.898 L29.257,16.898 L29.25,6.75 L19.151,6.771 L19.151,4.5 L31.5,4.5" fill="#C69F73"/>
      <path d="M36,-0 L36,16.898 L33.735,16.898 L33.75,2.25 L19.151,2.255 L19.151,-0 L36,-0 z" fill="#C69F73"/>
      <path d="M15.75,8.965 L15.75,11.215 L11.25,11.215 L11.25,24.715 L24.75,24.715 L24.75,11.215 L20.25,11.215 L20.25,8.965 L27,8.965 L27,26.965 L9,26.965 L9,8.965 L15.75,8.965 z" fill="#C69F73"/>
      <path d="M18.921,13.545 L23.343,22.385 L21.283,22.385 L18,15.822 L14.717,22.385 L12.657,22.385 L17.079,13.545 L18.921,13.545 z" fill="#C69F73"/>
    </g>
  </g>
</svg>
